<svg width="53" height="18" viewBox="0 0 53 18" fill="none" xmlns="http://www.w3.org/2000/svg">
<g clip-path="url(#clip0_983_2796)">
<path d="M7.68535 6.53869C7.67627 6.83886 7.71257 7.13902 7.78516 7.42917C7.86682 7.67931 7.96664 7.91944 8.07552 8.14956C8.11182 8.2196 8.13904 8.29964 8.13904 8.37969C8.12996 8.49975 8.06645 8.61982 7.96664 8.67985L7.39499 9.10008C7.3224 9.1501 7.24073 9.19012 7.15907 9.19012C7.05926 9.18012 6.95945 9.13009 6.88686 9.05005C6.7689 8.90997 6.65094 8.74989 6.5602 8.57979C6.46946 8.4097 6.37872 8.2196 6.27891 7.98948C5.57116 8.90997 4.68192 9.37022 3.61122 9.37022C2.84902 9.37022 2.24108 9.13009 1.79646 8.64983C1.35184 8.16957 1.125 7.52923 1.125 6.7288C1.125 5.87834 1.39721 5.18796 1.95071 4.66768C2.50422 4.1474 3.23919 3.88726 4.17379 3.88726C4.49138 3.88726 4.81803 3.91728 5.13561 3.9673C5.47134 4.01733 5.81615 4.09737 6.1791 4.18742V3.45703C6.1791 2.69662 6.03392 2.16633 5.75263 1.85616C5.47134 1.546 4.97229 1.39592 4.2736 1.39592C3.94695 1.39592 3.61122 1.43594 3.29364 1.52599C2.95791 1.61603 2.63125 1.72609 2.31367 1.86617C2.21385 1.9162 2.10497 1.95622 1.99608 1.99624C1.95071 2.01625 1.89627 2.02626 1.8509 2.02626C1.72387 2.02626 1.66035 1.9262 1.66035 1.71609V1.22582C1.65128 1.10576 1.6785 0.985694 1.72387 0.875635C1.79646 0.785586 1.87812 0.715549 1.97794 0.665522C2.34089 0.465414 2.72199 0.315333 3.12123 0.215278C3.584 0.0852083 4.06491 0.0251758 4.53674 0.0251758C5.61652 0.0251758 6.40594 0.295322 6.91408 0.835613C7.42221 1.37591 7.6672 2.19635 7.6672 3.29694V6.53869H7.68535ZM4.00139 8.05951C4.31897 8.05951 4.63656 7.99948 4.93599 7.87942C5.27172 7.74935 5.56208 7.52923 5.798 7.23907C5.94318 7.05897 6.05207 6.83886 6.10651 6.59873C6.17003 6.31857 6.19725 6.01841 6.19725 5.72826V5.30803C5.92503 5.23799 5.64375 5.17796 5.36246 5.13794C5.08117 5.09791 4.79081 5.0779 4.50952 5.0779C3.90158 5.0779 3.45696 5.20797 3.15753 5.47812C2.85809 5.74827 2.71291 6.12847 2.71291 6.62874C2.71291 7.099 2.8218 7.44918 3.04864 7.68931C3.27549 7.92944 3.584 8.05951 4.00139 8.05951ZM11.2876 9.1401C11.1697 9.1501 11.0427 9.12009 10.9428 9.04004C10.8521 8.92998 10.7795 8.79991 10.7523 8.64983L8.61995 0.915657C8.57458 0.785586 8.54736 0.655516 8.53828 0.515441C8.52921 0.395376 8.6018 0.285316 8.71069 0.265305H9.65436C9.82676 0.265305 9.94472 0.295322 10.0082 0.36536C10.0718 0.435397 10.1353 0.565468 10.1897 0.75557L11.705 7.37915L13.1205 0.75557C13.1659 0.555462 13.2204 0.425392 13.293 0.36536C13.4018 0.295322 13.5289 0.2553 13.6559 0.265305H14.3818C14.5542 0.265305 14.6722 0.295322 14.7448 0.36536C14.8355 0.475419 14.899 0.605489 14.9172 0.75557L16.3508 7.45919L17.9206 0.75557C17.9478 0.605489 18.0113 0.475419 18.1021 0.36536C18.2109 0.295322 18.3289 0.2553 18.4559 0.265305H19.2998C19.4087 0.245295 19.5085 0.335343 19.5266 0.455408V0.515441C19.5266 0.565468 19.5176 0.6255 19.5085 0.675527C19.4903 0.765576 19.4722 0.845619 19.445 0.925662L17.2582 8.65984C17.2038 8.85995 17.1402 8.99002 17.0676 9.05005C16.9678 9.12009 16.8408 9.16011 16.7228 9.1501H15.9425C15.7701 9.1501 15.6521 9.12009 15.5795 9.05005C15.4888 8.93999 15.4253 8.79991 15.4071 8.64983L14.0007 2.19635L12.6033 8.63983C12.5852 8.78991 12.5217 8.92998 12.4309 9.04004C12.3221 9.12009 12.195 9.1501 12.068 9.1401H11.2876ZM22.9475 9.41024C22.4756 9.41024 22.0038 9.35021 21.5501 9.23015C21.0964 9.11008 20.7425 8.98001 20.5066 8.82993C20.3887 8.7699 20.2888 8.66984 20.2253 8.54978C20.189 8.45973 20.1709 8.36968 20.1709 8.26963V7.75935C20.1709 7.54924 20.2435 7.44918 20.3796 7.44918C20.434 7.44918 20.4885 7.45919 20.5429 7.4792C20.5973 7.49921 20.679 7.53923 20.7698 7.57925C21.0873 7.73934 21.4231 7.8494 21.7679 7.92944C22.1217 8.00949 22.4847 8.04951 22.8476 8.04951C23.4193 8.04951 23.8639 7.93945 24.1724 7.71933C24.4719 7.51922 24.6533 7.15903 24.6443 6.76882C24.6533 6.50868 24.5626 6.25854 24.3993 6.06844C24.2359 5.87834 23.9274 5.70824 23.4828 5.54816L22.1671 5.09792C21.5047 4.86779 21.0147 4.52761 20.7153 4.07736C20.4249 3.65714 20.2616 3.15687 20.2616 2.62658C20.2525 2.23637 20.3342 1.85616 20.5066 1.51598C20.6699 1.19581 20.8877 0.915657 21.1599 0.695538C21.4412 0.455408 21.7588 0.285316 22.1036 0.175257C22.4756 0.055192 22.8567 -0.00484037 23.2469 0.00516504C23.4465 0.00516504 23.6552 0.0151704 23.8548 0.0451866C24.0635 0.0752029 24.2541 0.115224 24.4446 0.155246C24.6352 0.195268 24.7985 0.2553 24.9618 0.315333C25.0979 0.36536 25.225 0.425392 25.3429 0.49543C25.4518 0.555462 25.5426 0.635505 25.6152 0.745565C25.6787 0.845619 25.7059 0.955678 25.6968 1.07574V1.546C25.6968 1.75611 25.6242 1.86617 25.4881 1.86617C25.3702 1.84616 25.2522 1.80614 25.1433 1.74611C24.5989 1.47596 24 1.34589 23.4011 1.35589C22.8839 1.35589 22.4756 1.44594 22.1943 1.63605C21.913 1.82615 21.7679 2.11631 21.7679 2.52653C21.7588 2.79667 21.8586 3.05681 22.0401 3.23691C22.2216 3.42701 22.5573 3.61712 23.0382 3.78721L24.3267 4.23745C24.98 4.46757 25.4518 4.78775 25.7331 5.19797C26.0144 5.59819 26.1596 6.09846 26.1505 6.59873C26.1596 6.99894 26.0779 7.39916 25.9146 7.75935C25.7513 8.09954 25.5244 8.3997 25.2522 8.63983C24.9528 8.89997 24.608 9.09007 24.245 9.20013C23.8276 9.34021 23.3921 9.41024 22.9475 9.41024Z" fill="#AAAAAA"/>
<path d="M24.6655 14.2728C21.6802 16.7041 17.3429 17.9948 13.6136 17.9948C8.38709 17.9948 3.67779 15.8637 0.120864 12.3218C-0.160423 12.0416 0.093643 11.6614 0.429373 11.8815C4.27666 14.3429 9.02225 15.8337 13.9312 15.8337C17.4699 15.8137 20.9724 15.0232 24.2299 13.5124C24.729 13.2623 25.1554 13.8726 24.6655 14.2728Z" fill="#FF9900"/>
<path d="M25.9037 12.712C25.5226 12.1717 23.3812 12.4519 22.4103 12.582C22.1199 12.622 22.0745 12.3418 22.3377 12.1317C24.0435 10.811 26.8474 11.1912 27.174 11.6315C27.5007 12.0717 27.0833 15.1734 25.4863 16.6542C25.2413 16.8843 25.0054 16.7642 25.1143 16.4641C25.4772 15.4735 26.2848 13.2423 25.9037 12.712Z" fill="#FF9900"/>
<path d="M41.7934 11.2513C41.8841 11.4514 42.0202 11.6215 42.1835 11.7516C42.3559 11.8816 42.5465 11.9817 42.7552 12.0317C42.973 12.0917 43.1998 12.1218 43.4267 12.1218C43.5991 12.1218 43.7624 12.1017 43.9348 12.0817C44.1072 12.0517 44.2796 12.0017 44.4429 11.9116C44.5972 11.8316 44.7333 11.7115 44.8331 11.5715C44.942 11.4114 44.9964 11.2213 44.9873 11.0212C44.9964 10.801 44.9148 10.5909 44.7786 10.4408C44.6244 10.2808 44.4338 10.1607 44.2342 10.0706C43.9892 9.96058 43.7352 9.88054 43.472 9.8105C43.1907 9.74047 42.9004 9.65042 42.61 9.56037C42.3106 9.48033 42.0202 9.38027 41.7299 9.26021C41.4576 9.15015 41.1945 8.99006 40.9677 8.78995C40.7408 8.59985 40.5593 8.35972 40.4232 8.07957C40.278 7.7594 40.2055 7.40921 40.2145 7.04901C40.2055 6.63879 40.2962 6.22857 40.4867 5.86838C40.6591 5.5382 40.8951 5.24804 41.1763 5.02792C41.4667 4.7978 41.7934 4.63771 42.1382 4.52765C42.492 4.41759 42.855 4.36757 43.218 4.36757C43.6263 4.36757 44.0255 4.41759 44.4248 4.51765C44.7968 4.60769 45.1416 4.77779 45.4501 5.01792C45.7495 5.24804 45.9945 5.5482 46.1669 5.89839C46.3484 6.29861 46.4391 6.74885 46.4301 7.19909H44.7242C44.7151 6.96897 44.6607 6.74885 44.5699 6.54874C44.4883 6.37865 44.3703 6.23858 44.2251 6.13852C44.0709 6.03847 43.9076 5.96843 43.7352 5.92841C43.5355 5.88839 43.3359 5.86838 43.1363 5.86838C42.9911 5.86838 42.8459 5.88839 42.7098 5.9184C42.5737 5.94842 42.4376 6.00845 42.3196 6.08849C42.2017 6.16854 42.1109 6.2786 42.0384 6.39866C41.9567 6.53874 41.9204 6.69882 41.9295 6.86892C41.9204 7.019 41.9567 7.15907 42.0202 7.28914C42.111 7.42922 42.2289 7.52927 42.3741 7.5893C42.61 7.69936 42.855 7.78941 43.1 7.85945C43.4085 7.9495 43.8168 8.06956 44.3159 8.20964C44.4611 8.23966 44.6698 8.29969 44.942 8.38974C45.2233 8.47979 45.4864 8.61986 45.7314 8.79996C46.0036 9.00007 46.2395 9.2502 46.4119 9.55036C46.6025 9.87054 46.7023 10.2708 46.7023 10.771C46.7023 11.1612 46.6297 11.5414 46.4845 11.9016C46.3393 12.2518 46.1216 12.562 45.8493 12.8021C45.5408 13.0723 45.187 13.2724 44.8059 13.3924C44.334 13.5425 43.8531 13.6126 43.3631 13.6026C42.9276 13.6026 42.5011 13.5425 42.0747 13.4225C41.6754 13.3124 41.3034 13.1223 40.9767 12.8521C40.6591 12.592 40.396 12.2618 40.2145 11.8716C40.0149 11.4314 39.9242 10.9511 39.9423 10.4609H41.6482C41.6391 10.751 41.6936 11.0112 41.7934 11.2513ZM50.0687 8.25967C50.2592 8.24966 50.4407 8.19963 50.6131 8.11959C50.7764 8.04955 50.9216 7.92949 51.0305 7.77941C51.1484 7.60932 51.2029 7.3992 51.1938 7.18909C51.1938 6.81889 51.0849 6.52873 50.8581 6.33863C50.6403 6.13852 50.3681 6.03847 50.0868 6.03847C49.6785 6.03847 49.3791 6.18855 49.1704 6.4787C48.9526 6.79888 48.8528 7.18909 48.8709 7.5893H47.3556C47.3647 7.16908 47.4373 6.75886 47.5734 6.36865C47.7004 6.01846 47.8819 5.68828 48.1269 5.41813C48.3719 5.14799 48.6532 4.93787 48.9707 4.8078C49.3246 4.65772 49.6966 4.58768 50.0687 4.58768C50.3862 4.58768 50.7038 4.63771 51.0123 4.73776C51.3208 4.83782 51.6021 4.99791 51.8562 5.19801C52.1012 5.39812 52.3099 5.65826 52.4641 5.94842C52.6275 6.25859 52.7091 6.61878 52.7001 6.97897C52.7091 7.36919 52.6093 7.7594 52.4278 8.08958C52.2373 8.41975 51.9469 8.64988 51.6021 8.74993V8.77995C52.0014 8.87 52.3643 9.11013 52.6184 9.47032C52.8725 9.84052 52.9995 10.2908 52.9904 10.741C52.9995 11.1612 52.9178 11.5815 52.7545 11.9517C52.6003 12.3018 52.3825 12.602 52.1103 12.8421C51.829 13.0823 51.5205 13.2724 51.1757 13.3824C50.8218 13.5025 50.4498 13.5725 50.0777 13.5725C49.6694 13.5825 49.2611 13.5025 48.8709 13.3624C48.5261 13.2324 48.2085 13.0222 47.9454 12.7521C47.6823 12.4719 47.4826 12.1418 47.3556 11.7616C47.2104 11.3313 47.1469 10.8811 47.156 10.4208H48.6713C48.6804 10.641 48.7076 10.8711 48.7711 11.0812C48.8256 11.2813 48.9163 11.4614 49.0343 11.6315C49.1522 11.7816 49.2883 11.9116 49.4516 11.9917C49.6422 12.0917 49.8418 12.1318 50.0505 12.1318C50.3862 12.1418 50.7129 12.0117 50.9579 11.7716C51.2029 11.5314 51.3299 11.1912 51.3299 10.771C51.3299 10.4408 51.2755 10.1907 51.1575 10.0206C51.0486 9.85053 50.8944 9.72046 50.7129 9.64041C50.5224 9.56037 50.3227 9.52035 50.1231 9.51034C49.9053 9.50034 49.7057 9.49033 49.5152 9.49033V8.25967C49.6966 8.27968 49.8872 8.27968 50.0687 8.25967ZM34.0625 0.195312H34.6977V17.8048H34.0625V0.195312Z" fill="#AAAAAA"/>
</g>
<defs>
<clipPath id="clip0_983_2796">
<rect width="53" height="18" fill="white"/>
</clipPath>
</defs>
</svg>
