<svg width="13" height="10" viewBox="0 0 13 10" fill="none" xmlns="http://www.w3.org/2000/svg">
<path d="M10.3271 0.453467C10.537 0.245375 10.8204 0.128261 11.116 0.127446C11.4115 0.12663 11.6956 0.242178 11.9066 0.449109C12.1177 0.65604 12.2389 0.937727 12.2439 1.23327C12.2489 1.52881 12.1375 1.81446 11.9336 2.02847L5.94556 9.51347C5.84265 9.62432 5.71844 9.71327 5.58036 9.77502C5.44228 9.83676 5.29317 9.87003 5.14194 9.87283C4.99071 9.87563 4.84047 9.84791 4.7002 9.79132C4.55993 9.73473 4.43251 9.65043 4.32556 9.54347L0.358063 5.57447C0.247532 5.47147 0.158879 5.34727 0.0973912 5.20928C0.0359033 5.07128 0.00284026 4.92231 0.00017508 4.77125C-0.0024901 4.6202 0.0252972 4.47015 0.0818787 4.33007C0.13846 4.18999 0.222677 4.06274 0.329505 3.95591C0.436333 3.84908 0.563584 3.76487 0.703666 3.70828C0.843749 3.6517 0.993792 3.62391 1.14485 3.62658C1.2959 3.62925 1.44487 3.66231 1.58287 3.7238C1.72087 3.78528 1.84507 3.87394 1.94806 3.98447L5.08906 7.12397L10.2986 0.486468C10.3079 0.474845 10.3164 0.463823 10.3271 0.453467Z" fill="#CBDDBB"/>
</svg>
