<svg width="200" height="200" viewBox="0 0 200 200" fill="none" xmlns="http://www.w3.org/2000/svg">
<path fill-rule="evenodd" clip-rule="evenodd" d="M22.0728 17.8949C22.0728 17.3136 22.544 16.8423 23.1254 16.8423H122.138C122.72 16.8423 123.191 17.3136 123.191 17.8949V82.0395C123.191 82.6209 122.72 83.0922 122.138 83.0922H23.1254C22.544 83.0922 22.0728 82.6209 22.0728 82.0395V17.8949Z" fill="url(#paint0_linear_1088_16056)"/>
<path fill-rule="evenodd" clip-rule="evenodd" d="M22.0728 17.8949C22.0728 17.3136 22.544 16.8423 23.1254 16.8423H122.138C122.72 16.8423 123.191 17.3136 123.191 17.8949V82.0395C123.191 82.6209 122.72 83.0922 122.138 83.0922H23.1254C22.544 83.0922 22.0728 82.6209 22.0728 82.0395V17.8949Z" fill="url(#paint1_linear_1088_16056)"/>
<path fill-rule="evenodd" clip-rule="evenodd" d="M22.0728 17.8949C22.0728 17.3136 22.544 16.8423 23.1254 16.8423H122.138C122.72 16.8423 123.191 17.3136 123.191 17.8949V82.0395C123.191 82.6209 122.72 83.0922 122.138 83.0922H23.1254C22.544 83.0922 22.0728 82.6209 22.0728 82.0395V17.8949Z" fill="url(#paint2_linear_1088_16056)"/>
<path fill-rule="evenodd" clip-rule="evenodd" d="M58.6843 86.5791L62.1712 90.0659H83.0922L86.579 86.5791H128.421V88.3225L126.097 90.0659C123.079 92.3289 119.409 93.5528 115.637 93.5528H29.6268C25.854 93.5528 22.1841 92.3289 19.1663 90.0659L16.8423 88.3225V86.5791H58.6843Z" fill="url(#paint3_linear_1088_16056)"/>
<path fill-rule="evenodd" clip-rule="evenodd" d="M58.6843 86.5791L62.1712 90.0659H83.0922L86.579 86.5791H128.421V88.3225L126.097 90.0659C123.079 92.3289 119.409 93.5528 115.637 93.5528H29.6268C25.854 93.5528 22.1841 92.3289 19.1663 90.0659L16.8423 88.3225V86.5791H58.6843Z" fill="url(#paint4_linear_1088_16056)"/>
<path fill-rule="evenodd" clip-rule="evenodd" d="M62.1714 90.0659L58.6846 86.5791H86.5793L83.0924 90.0659H62.1714Z" fill="url(#paint5_linear_1088_16056)"/>
<path fill-rule="evenodd" clip-rule="evenodd" d="M22.0728 17.8949C22.0728 17.3136 22.544 16.8423 23.1254 16.8423H122.138C122.72 16.8423 123.191 17.3136 123.191 17.8949V82.0395C123.191 82.6209 122.72 83.0922 122.138 83.0922H23.1254C22.544 83.0922 22.0728 82.6209 22.0728 82.0395V17.8949Z" fill="url(#paint6_linear_1088_16056)"/>
<path fill-rule="evenodd" clip-rule="evenodd" d="M77.8618 108.553C77.8618 107.971 78.3331 107.5 78.9144 107.5H177.927C178.509 107.5 178.98 107.971 178.98 108.553V172.697C178.98 173.279 178.509 173.75 177.927 173.75H78.9145C78.3331 173.75 77.8618 173.279 77.8618 172.697V108.553Z" fill="url(#paint7_linear_1088_16056)"/>
<path fill-rule="evenodd" clip-rule="evenodd" d="M77.8618 108.553C77.8618 107.971 78.3331 107.5 78.9144 107.5H177.927C178.509 107.5 178.98 107.971 178.98 108.553V172.697C178.98 173.279 178.509 173.75 177.927 173.75H78.9145C78.3331 173.75 77.8618 173.279 77.8618 172.697V108.553Z" fill="url(#paint8_linear_1088_16056)"/>
<path fill-rule="evenodd" clip-rule="evenodd" d="M77.8618 108.553C77.8618 107.971 78.3331 107.5 78.9144 107.5H177.927C178.509 107.5 178.98 107.971 178.98 108.553V172.697C178.98 173.279 178.509 173.75 177.927 173.75H78.9145C78.3331 173.75 77.8618 173.279 77.8618 172.697V108.553Z" fill="url(#paint9_linear_1088_16056)"/>
<path fill-rule="evenodd" clip-rule="evenodd" d="M114.473 177.237L117.96 180.724H138.881L142.368 177.237H184.21V178.98L181.886 180.724C178.868 182.987 175.198 184.21 171.426 184.21H85.4158C81.6431 184.21 77.9732 182.987 74.9553 180.724L72.6313 178.98V177.237H114.473Z" fill="url(#paint10_linear_1088_16056)"/>
<path fill-rule="evenodd" clip-rule="evenodd" d="M114.473 177.237L117.96 180.724H138.881L142.368 177.237H184.21V178.98L181.886 180.724C178.868 182.987 175.198 184.21 171.426 184.21H85.4158C81.6431 184.21 77.9732 182.987 74.9553 180.724L72.6313 178.98V177.237H114.473Z" fill="url(#paint11_linear_1088_16056)"/>
<path fill-rule="evenodd" clip-rule="evenodd" d="M117.96 180.723L114.474 177.236H142.368L138.881 180.723H117.96Z" fill="url(#paint12_linear_1088_16056)"/>
<path fill-rule="evenodd" clip-rule="evenodd" d="M77.8618 108.553C77.8618 107.971 78.3331 107.5 78.9144 107.5H177.927C178.509 107.5 178.98 107.971 178.98 108.553V172.697C178.98 173.279 178.509 173.75 177.927 173.75H78.9145C78.3331 173.75 77.8618 173.279 77.8618 172.697V108.553Z" fill="url(#paint13_linear_1088_16056)"/>
<path d="M138.881 137.138H149.342V147.599" stroke="#D3D3D3" stroke-width="1.05263" stroke-linecap="round"/>
<path d="M62.171 63.9146H51.7104V53.4541" stroke="#D3D3D3" stroke-width="1.05263" stroke-linecap="round"/>
<path d="M149.342 137.138C138.215 151.959 120.49 161.546 100.526 161.546C66.8257 161.546 39.5063 134.227 39.5063 100.526C39.5063 95.7285 40.0607 91.0579 41.1086 86.5791" stroke="#D3D3D3" stroke-width="1.05263" stroke-linecap="round"/>
<path d="M51.7104 63.9147C62.8422 49.0939 80.5623 39.5068 100.526 39.5068C134.226 39.5068 161.546 66.8262 161.546 100.526C161.546 105.324 160.991 109.995 159.944 114.474" stroke="#D3D3D3" stroke-width="1.05263" stroke-linecap="round"/>
<defs>
<linearGradient id="paint0_linear_1088_16056" x1="128.421" y1="29.0462" x2="93.5201" y2="63.0964" gradientUnits="userSpaceOnUse">
<stop stop-color="#D3D3D3"/>
<stop offset="0.0631599" stop-color="#D3D3D3" stop-opacity="0.890196"/>
<stop offset="0.210126" stop-color="#D3D3D3" stop-opacity="0.658824"/>
<stop offset="0.356631" stop-color="#D3D3D3" stop-opacity="0.458824"/>
<stop offset="0.499305" stop-color="#D3D3D3" stop-opacity="0.294118"/>
<stop offset="0.637318" stop-color="#D3D3D3" stop-opacity="0.164706"/>
<stop offset="0.769459" stop-color="#D3D3D3" stop-opacity="0.0745098"/>
<stop offset="0.89315" stop-color="#D3D3D3" stop-opacity="0.0196078"/>
<stop offset="1" stop-color="#D3D3D3" stop-opacity="0"/>
</linearGradient>
<linearGradient id="paint1_linear_1088_16056" x1="65.6582" y1="97.0395" x2="67.0467" y2="41.981" gradientUnits="userSpaceOnUse">
<stop stop-color="#D3D3D3"/>
<stop offset="0.0631599" stop-color="#D3D3D3" stop-opacity="0.890196"/>
<stop offset="0.210126" stop-color="#D3D3D3" stop-opacity="0.658824"/>
<stop offset="0.356631" stop-color="#D3D3D3" stop-opacity="0.458824"/>
<stop offset="0.499305" stop-color="#D3D3D3" stop-opacity="0.294118"/>
<stop offset="0.637318" stop-color="#D3D3D3" stop-opacity="0.164706"/>
<stop offset="0.769459" stop-color="#D3D3D3" stop-opacity="0.0745098"/>
<stop offset="0.89315" stop-color="#D3D3D3" stop-opacity="0.0196078"/>
<stop offset="1" stop-color="#D3D3D3" stop-opacity="0"/>
</linearGradient>
<linearGradient id="paint2_linear_1088_16056" x1="42.1221" y1="11.612" x2="40.7962" y2="50.1017" gradientUnits="userSpaceOnUse">
<stop stop-color="#D3D3D3"/>
<stop offset="0.0631599" stop-color="#D3D3D3" stop-opacity="0.890196"/>
<stop offset="0.210126" stop-color="#D3D3D3" stop-opacity="0.658824"/>
<stop offset="0.356631" stop-color="#D3D3D3" stop-opacity="0.458824"/>
<stop offset="0.499305" stop-color="#D3D3D3" stop-opacity="0.294118"/>
<stop offset="0.637318" stop-color="#D3D3D3" stop-opacity="0.164706"/>
<stop offset="0.769459" stop-color="#D3D3D3" stop-opacity="0.0745098"/>
<stop offset="0.89315" stop-color="#D3D3D3" stop-opacity="0.0196078"/>
<stop offset="1" stop-color="#D3D3D3" stop-opacity="0"/>
</linearGradient>
<linearGradient id="paint3_linear_1088_16056" x1="21.0459" y1="85.5864" x2="24.672" y2="113.733" gradientUnits="userSpaceOnUse">
<stop stop-color="#D3D3D3"/>
<stop offset="0.0631599" stop-color="#D3D3D3" stop-opacity="0.890196"/>
<stop offset="0.210126" stop-color="#D3D3D3" stop-opacity="0.658824"/>
<stop offset="0.356631" stop-color="#D3D3D3" stop-opacity="0.458824"/>
<stop offset="0.499305" stop-color="#D3D3D3" stop-opacity="0.294118"/>
<stop offset="0.637318" stop-color="#D3D3D3" stop-opacity="0.164706"/>
<stop offset="0.769459" stop-color="#D3D3D3" stop-opacity="0.0745098"/>
<stop offset="0.89315" stop-color="#D3D3D3" stop-opacity="0.0196078"/>
<stop offset="1" stop-color="#D3D3D3" stop-opacity="0"/>
</linearGradient>
<linearGradient id="paint4_linear_1088_16056" x1="78.7336" y1="86.5791" x2="78.9241" y2="99.6562" gradientUnits="userSpaceOnUse">
<stop offset="0.0248721" stop-color="#D3D3D3"/>
<stop offset="0.0631599" stop-color="#D3D3D3" stop-opacity="0.890196"/>
<stop offset="0.210126" stop-color="#D3D3D3" stop-opacity="0.658824"/>
<stop offset="0.356631" stop-color="#D3D3D3" stop-opacity="0.458824"/>
<stop offset="0.499305" stop-color="#D3D3D3" stop-opacity="0.294118"/>
<stop offset="0.637318" stop-color="#D3D3D3" stop-opacity="0.164706"/>
<stop offset="0.769459" stop-color="#D3D3D3" stop-opacity="0.0745098"/>
<stop offset="0.89315" stop-color="#D3D3D3" stop-opacity="0.0196078"/>
<stop offset="1" stop-color="#D3D3D3" stop-opacity="0"/>
</linearGradient>
<linearGradient id="paint5_linear_1088_16056" x1="76.1188" y1="86.5791" x2="76.1713" y2="89.3106" gradientUnits="userSpaceOnUse">
<stop stop-color="#D3D3D3"/>
<stop offset="0.0631599" stop-color="#D3D3D3" stop-opacity="0.890196"/>
<stop offset="0.210126" stop-color="#D3D3D3" stop-opacity="0.658824"/>
<stop offset="0.356631" stop-color="#D3D3D3" stop-opacity="0.458824"/>
<stop offset="0.499305" stop-color="#D3D3D3" stop-opacity="0.294118"/>
<stop offset="0.637318" stop-color="#D3D3D3" stop-opacity="0.164706"/>
<stop offset="0.769459" stop-color="#D3D3D3" stop-opacity="0.0745098"/>
<stop offset="0.89315" stop-color="#D3D3D3" stop-opacity="0.0196078"/>
<stop offset="1" stop-color="#D3D3D3" stop-opacity="0"/>
</linearGradient>
<linearGradient id="paint6_linear_1088_16056" x1="14.2274" y1="83.0922" x2="51.2167" y2="61.0341" gradientUnits="userSpaceOnUse">
<stop stop-color="#A7C889"/>
<stop offset="0.0631599" stop-color="#A7C889" stop-opacity="0.890196"/>
<stop offset="0.210126" stop-color="#A7C889" stop-opacity="0.658824"/>
<stop offset="0.356631" stop-color="#A7C889" stop-opacity="0.458824"/>
<stop offset="0.499305" stop-color="#A7C889" stop-opacity="0.294118"/>
<stop offset="0.637318" stop-color="#A7C889" stop-opacity="0.164706"/>
<stop offset="0.769459" stop-color="#A7C889" stop-opacity="0.0745098"/>
<stop offset="0.89315" stop-color="#A7C889" stop-opacity="0.0196078"/>
<stop offset="1" stop-color="#A7C889" stop-opacity="0"/>
</linearGradient>
<linearGradient id="paint7_linear_1088_16056" x1="121.447" y1="187.697" x2="122.836" y2="132.639" gradientUnits="userSpaceOnUse">
<stop stop-color="#D3D3D3"/>
<stop offset="0.0631599" stop-color="#D3D3D3" stop-opacity="0.890196"/>
<stop offset="0.210126" stop-color="#D3D3D3" stop-opacity="0.658824"/>
<stop offset="0.356631" stop-color="#D3D3D3" stop-opacity="0.458824"/>
<stop offset="0.499305" stop-color="#D3D3D3" stop-opacity="0.294118"/>
<stop offset="0.637318" stop-color="#D3D3D3" stop-opacity="0.164706"/>
<stop offset="0.769459" stop-color="#D3D3D3" stop-opacity="0.0745098"/>
<stop offset="0.89315" stop-color="#D3D3D3" stop-opacity="0.0196078"/>
<stop offset="1" stop-color="#D3D3D3" stop-opacity="0"/>
</linearGradient>
<linearGradient id="paint8_linear_1088_16056" x1="70.0164" y1="173.75" x2="107.006" y2="151.692" gradientUnits="userSpaceOnUse">
<stop stop-color="#D3D3D3"/>
<stop offset="0.0631599" stop-color="#D3D3D3" stop-opacity="0.890196"/>
<stop offset="0.210126" stop-color="#D3D3D3" stop-opacity="0.658824"/>
<stop offset="0.356631" stop-color="#D3D3D3" stop-opacity="0.458824"/>
<stop offset="0.499305" stop-color="#D3D3D3" stop-opacity="0.294118"/>
<stop offset="0.637318" stop-color="#D3D3D3" stop-opacity="0.164706"/>
<stop offset="0.769459" stop-color="#D3D3D3" stop-opacity="0.0745098"/>
<stop offset="0.89315" stop-color="#D3D3D3" stop-opacity="0.0196078"/>
<stop offset="1" stop-color="#D3D3D3" stop-opacity="0"/>
</linearGradient>
<linearGradient id="paint9_linear_1088_16056" x1="83.4786" y1="102.27" x2="82.1527" y2="140.759" gradientUnits="userSpaceOnUse">
<stop stop-color="#D3D3D3"/>
<stop offset="0.0631599" stop-color="#D3D3D3" stop-opacity="0.890196"/>
<stop offset="0.210126" stop-color="#D3D3D3" stop-opacity="0.658824"/>
<stop offset="0.356631" stop-color="#D3D3D3" stop-opacity="0.458824"/>
<stop offset="0.499305" stop-color="#D3D3D3" stop-opacity="0.294118"/>
<stop offset="0.637318" stop-color="#D3D3D3" stop-opacity="0.164706"/>
<stop offset="0.769459" stop-color="#D3D3D3" stop-opacity="0.0745098"/>
<stop offset="0.89315" stop-color="#D3D3D3" stop-opacity="0.0196078"/>
<stop offset="1" stop-color="#D3D3D3" stop-opacity="0"/>
</linearGradient>
<linearGradient id="paint10_linear_1088_16056" x1="76.8349" y1="176.244" x2="80.4611" y2="204.391" gradientUnits="userSpaceOnUse">
<stop stop-color="#D3D3D3"/>
<stop offset="0.0631599" stop-color="#D3D3D3" stop-opacity="0.890196"/>
<stop offset="0.210126" stop-color="#D3D3D3" stop-opacity="0.658824"/>
<stop offset="0.356631" stop-color="#D3D3D3" stop-opacity="0.458824"/>
<stop offset="0.499305" stop-color="#D3D3D3" stop-opacity="0.294118"/>
<stop offset="0.637318" stop-color="#D3D3D3" stop-opacity="0.164706"/>
<stop offset="0.769459" stop-color="#D3D3D3" stop-opacity="0.0745098"/>
<stop offset="0.89315" stop-color="#D3D3D3" stop-opacity="0.0196078"/>
<stop offset="1" stop-color="#D3D3D3" stop-opacity="0"/>
</linearGradient>
<linearGradient id="paint11_linear_1088_16056" x1="134.523" y1="177.237" x2="134.713" y2="190.314" gradientUnits="userSpaceOnUse">
<stop offset="0.0248721" stop-color="#D3D3D3"/>
<stop offset="0.0631599" stop-color="#D3D3D3" stop-opacity="0.890196"/>
<stop offset="0.210126" stop-color="#D3D3D3" stop-opacity="0.658824"/>
<stop offset="0.356631" stop-color="#D3D3D3" stop-opacity="0.458824"/>
<stop offset="0.499305" stop-color="#D3D3D3" stop-opacity="0.294118"/>
<stop offset="0.637318" stop-color="#D3D3D3" stop-opacity="0.164706"/>
<stop offset="0.769459" stop-color="#D3D3D3" stop-opacity="0.0745098"/>
<stop offset="0.89315" stop-color="#D3D3D3" stop-opacity="0.0196078"/>
<stop offset="1" stop-color="#D3D3D3" stop-opacity="0"/>
</linearGradient>
<linearGradient id="paint12_linear_1088_16056" x1="131.908" y1="177.236" x2="131.96" y2="179.968" gradientUnits="userSpaceOnUse">
<stop stop-color="#D3D3D3"/>
<stop offset="0.0631599" stop-color="#D3D3D3" stop-opacity="0.890196"/>
<stop offset="0.210126" stop-color="#D3D3D3" stop-opacity="0.658824"/>
<stop offset="0.356631" stop-color="#D3D3D3" stop-opacity="0.458824"/>
<stop offset="0.499305" stop-color="#D3D3D3" stop-opacity="0.294118"/>
<stop offset="0.637318" stop-color="#D3D3D3" stop-opacity="0.164706"/>
<stop offset="0.769459" stop-color="#D3D3D3" stop-opacity="0.0745098"/>
<stop offset="0.89315" stop-color="#D3D3D3" stop-opacity="0.0196078"/>
<stop offset="1" stop-color="#D3D3D3" stop-opacity="0"/>
</linearGradient>
<linearGradient id="paint13_linear_1088_16056" x1="184.21" y1="119.704" x2="149.309" y2="153.754" gradientUnits="userSpaceOnUse">
<stop stop-color="#A7C889"/>
<stop offset="0.0631599" stop-color="#A7C889" stop-opacity="0.890196"/>
<stop offset="0.210126" stop-color="#A7C889" stop-opacity="0.658824"/>
<stop offset="0.356631" stop-color="#A7C889" stop-opacity="0.458824"/>
<stop offset="0.499305" stop-color="#A7C889" stop-opacity="0.294118"/>
<stop offset="0.637318" stop-color="#A7C889" stop-opacity="0.164706"/>
<stop offset="0.769459" stop-color="#A7C889" stop-opacity="0.0745098"/>
<stop offset="0.89315" stop-color="#A7C889" stop-opacity="0.0196078"/>
<stop offset="1" stop-color="#A7C889" stop-opacity="0"/>
</linearGradient>
</defs>
</svg>
