<svg width="98" height="15" viewBox="0 0 98 15" fill="none" xmlns="http://www.w3.org/2000/svg">
<path d="M11.8341 3.96961H12.3756L13.9187 2.44282L13.9945 1.79461C13.1105 1.02262 12.0422 0.486346 10.8905 0.236446C9.73881 -0.0134538 8.54174 0.0312698 7.41237 0.366392C6.283 0.701515 5.25862 1.31597 4.43599 2.15172C3.61337 2.98747 3.01965 4.01692 2.71094 5.14282C2.88285 5.07311 3.07327 5.0618 3.25237 5.11068L6.33856 4.60711C6.33856 4.60711 6.49558 4.34996 6.57679 4.36604C7.23807 3.64746 8.15193 3.20616 9.1313 3.13246C10.1107 3.05877 11.0815 3.35825 11.845 3.96961H11.8341Z" fill="#EA4335"/>
<path d="M16.1108 5.14291C15.7562 3.85057 15.0279 2.68877 14.0155 1.80005L11.8497 3.94291C12.3011 4.30782 12.6628 4.76937 12.9076 5.29277C13.1524 5.81616 13.2739 6.38772 13.2629 6.96433V7.34469C13.516 7.34469 13.7667 7.39402 14.0005 7.48986C14.2344 7.58571 14.4469 7.72619 14.6258 7.90328C14.8048 8.08038 14.9468 8.29062 15.0437 8.522C15.1405 8.75339 15.1904 9.00139 15.1904 9.25183C15.1904 9.50228 15.1405 9.75028 15.0437 9.98167C14.9468 10.2131 14.8048 10.4233 14.6258 10.6004C14.4469 10.7775 14.2344 10.918 14.0005 11.0138C13.7667 11.1096 13.516 11.159 13.2629 11.159H9.40786L9.02344 11.5447V13.8322L9.40786 14.2125H13.2629C14.3394 14.2208 15.39 13.8861 16.2593 13.2578C17.1286 12.6295 17.7704 11.741 18.0899 10.7238C18.4093 9.70664 18.3893 8.61473 18.0329 7.60964C17.6765 6.60455 17.0026 5.73966 16.1108 5.14291Z" fill="#4285F4"/>
<path d="M5.55007 14.1911H9.4051V11.1375H5.55007C5.27541 11.1374 5.00398 11.079 4.75416 10.9661L4.21272 11.1321L2.6588 12.6589L2.52344 13.1946C3.39484 13.8457 4.45814 14.1958 5.55007 14.1911Z" fill="#34A853"/>
<path d="M5.55407 4.28574C4.50954 4.29191 3.49304 4.62072 2.64655 5.22624C1.80006 5.83176 1.16584 6.68375 0.832488 7.66321C0.499133 8.64267 0.483286 9.7007 0.787159 10.6895C1.09103 11.6783 1.69945 12.5485 2.52744 13.1786L4.76357 10.9661C4.4794 10.8391 4.23063 10.6457 4.03859 10.4026C3.84654 10.1596 3.71697 9.87403 3.66098 9.57052C3.605 9.26701 3.62427 8.95459 3.71714 8.66006C3.81002 8.36554 3.97373 8.09771 4.19422 7.87955C4.41471 7.66139 4.6854 7.49941 4.98307 7.40752C5.28074 7.31562 5.5965 7.29655 5.90325 7.35195C6.21001 7.40734 6.4986 7.53555 6.74427 7.72556C6.98994 7.91557 7.18535 8.16172 7.31373 8.44288L9.54987 6.23038C9.08052 5.62329 8.4756 5.13185 7.78242 4.79449C7.08923 4.45714 6.32656 4.28301 5.55407 4.28574Z" fill="#FBBC05"/>
<path d="M28.5814 12.0589C27.9177 12.0673 27.2591 11.943 26.6451 11.6936C26.0311 11.4441 25.4742 11.0746 25.008 10.6072C24.527 10.1596 24.1453 9.61793 23.8872 9.01665C23.629 8.41537 23.4999 7.76755 23.5082 7.11431C23.5003 6.46111 23.6295 5.81339 23.8876 5.21216C24.1458 4.61092 24.5273 4.06926 25.008 3.62145C25.4719 3.14916 26.0277 2.77469 26.6419 2.52058C27.256 2.26647 27.9158 2.13799 28.5814 2.14288C29.2157 2.13451 29.8453 2.25097 30.4337 2.48549C31.0221 2.72001 31.5575 3.0679 32.0087 3.50895L31.045 4.47859C30.385 3.84749 29.4992 3.50078 28.5814 3.51431C28.1054 3.50852 27.6333 3.60079 27.1952 3.78524C26.7571 3.96969 26.3626 4.2423 26.0367 4.58573C25.698 4.91819 25.4308 5.31502 25.2512 5.75234C25.0717 6.18965 24.9834 6.65841 24.9917 7.13038C24.9877 7.59696 25.0782 8.05961 25.2576 8.4911C25.4371 8.92259 25.702 9.3142 26.0367 9.64288C26.7072 10.304 27.612 10.6801 28.5585 10.6911C29.505 10.7021 30.4185 10.3472 31.1045 9.70181C31.5292 9.24162 31.7898 8.6564 31.8463 8.03573H28.5977V6.66431H33.1945C33.2397 6.94051 33.2578 7.22037 33.2486 7.50002C33.2772 8.07881 33.1869 8.65733 32.9831 9.20059C32.7793 9.74385 32.4662 10.2406 32.0629 10.6607C31.6144 11.1227 31.0726 11.486 30.4728 11.7269C29.8729 11.9678 29.2285 12.081 28.5814 12.0589ZM39.2694 11.1482C38.6525 11.7333 37.831 12.06 36.9764 12.06C36.1219 12.06 35.3003 11.7333 34.6834 11.1482C34.3764 10.8537 34.1346 10.4992 33.9733 10.1072C33.8121 9.71528 33.7349 9.29446 33.7468 8.87145C33.7352 8.44848 33.8125 8.02776 33.9738 7.63586C34.135 7.24397 34.3766 6.88943 34.6834 6.59466C35.301 6.01079 36.1223 5.68496 36.9764 5.68496C37.8306 5.68496 38.6519 6.01079 39.2694 6.59466C39.5762 6.88943 39.8178 7.24397 39.9791 7.63586C40.1403 8.02776 40.2176 8.44848 40.2061 8.87145C40.2172 9.29485 40.1392 9.71591 39.977 10.1079C39.8148 10.4998 39.572 10.8541 39.264 11.1482H39.2694ZM35.6959 10.2536C35.86 10.427 36.0583 10.5652 36.2786 10.6597C36.4988 10.7542 36.7363 10.8029 36.9764 10.8029C37.2165 10.8029 37.454 10.7542 37.6743 10.6597C37.8945 10.5652 38.0928 10.427 38.2569 10.2536C38.4358 10.0706 38.5759 9.85408 38.6689 9.6167C38.7619 9.37932 38.8059 9.12592 38.7984 8.87145C38.8063 8.61612 38.7625 8.36179 38.6695 8.12349C38.5765 7.88518 38.4362 7.66772 38.2569 7.48395C38.0907 7.31234 37.891 7.17579 37.67 7.0825C37.449 6.98921 37.2113 6.94112 36.971 6.94112C36.7307 6.94112 36.493 6.98921 36.272 7.0825C36.051 7.17579 35.8514 7.31234 35.6851 7.48395C35.5058 7.66772 35.3655 7.88518 35.2725 8.12349C35.1795 8.36179 35.1357 8.61612 35.1437 8.87145C35.1368 9.1263 35.1817 9.37992 35.2756 9.61732C35.3695 9.85471 35.5106 10.0711 35.6905 10.2536H35.6959ZM46.3189 11.1482C45.702 11.7333 44.8805 12.06 44.0259 12.06C43.1714 12.06 42.3498 11.7333 41.7329 11.1482C41.4259 10.8537 41.1841 10.4992 41.0228 10.1072C40.8616 9.71528 40.7844 9.29446 40.7963 8.87145C40.7847 8.44848 40.8621 8.02776 41.0233 7.63586C41.1845 7.24397 41.4262 6.88943 41.7329 6.59466C42.3498 6.00956 43.1714 5.6829 44.0259 5.6829C44.8805 5.6829 45.702 6.00956 46.3189 6.59466C46.6257 6.88943 46.8673 7.24397 47.0286 7.63586C47.1898 8.02776 47.2671 8.44848 47.2556 8.87145C47.2674 9.29446 47.1903 9.71528 47.029 10.1072C46.8678 10.4992 46.626 10.8537 46.3189 11.1482ZM42.7454 10.2536C42.9095 10.427 43.1078 10.5652 43.3281 10.6597C43.5483 10.7542 43.7859 10.8029 44.0259 10.8029C44.266 10.8029 44.5035 10.7542 44.7238 10.6597C44.944 10.5652 45.1423 10.427 45.3064 10.2536C45.4853 10.0706 45.6254 9.85408 45.7184 9.6167C45.8114 9.37932 45.8554 9.12592 45.8479 8.87145C45.8558 8.61612 45.812 8.36179 45.719 8.12349C45.6261 7.88518 45.4857 7.66772 45.3064 7.48395C45.1402 7.31234 44.9405 7.17579 44.7195 7.0825C44.4985 6.98921 44.2608 6.94112 44.0205 6.94112C43.7802 6.94112 43.5425 6.98921 43.3215 7.0825C43.1005 7.17579 42.9009 7.31234 42.7346 7.48395C42.5553 7.66772 42.415 7.88518 42.322 8.12349C42.229 8.36179 42.1852 8.61612 42.1932 8.87145C42.1863 9.1263 42.2312 9.37992 42.3251 9.61732C42.419 9.85471 42.5601 10.0711 42.74 10.2536H42.7454ZM50.9536 14.9197C50.3046 14.9401 49.6682 14.7396 49.1506 14.3518C48.691 14.01 48.3291 13.5558 48.1002 13.0339L49.3347 12.525C49.4691 12.8369 49.6792 13.1111 49.9465 13.3232C50.2326 13.5514 50.5917 13.6711 50.959 13.6607C51.192 13.6748 51.4252 13.6389 51.6429 13.5557C51.8606 13.4725 52.0576 13.3439 52.2206 13.1786C52.5468 12.7893 52.7078 12.2901 52.67 11.7857V11.325H52.6212C52.4149 11.5675 52.1543 11.7591 51.8602 11.8846C51.566 12.0101 51.2464 12.0662 50.9265 12.0482C50.52 12.0495 50.1177 11.9672 49.7449 11.8068C49.3721 11.6464 49.037 11.4112 48.7608 11.1161C48.461 10.8234 48.2244 10.4735 48.0653 10.0877C47.9061 9.70186 47.8278 9.2881 47.8349 8.87145C47.8274 8.45236 47.9056 8.03609 48.0647 7.64761C48.2238 7.25914 48.4606 6.90646 48.7608 6.61073C49.0363 6.31443 49.3712 6.07807 49.744 5.91667C50.1169 5.75528 50.5196 5.67237 50.9265 5.67323C51.2709 5.67264 51.6112 5.74765 51.9228 5.89288C52.1923 6.00934 52.4326 6.1831 52.6266 6.40181H52.6754V5.89288H54.0181V11.5982C54.0535 12.0496 53.9954 12.5033 53.8473 12.9316C53.6993 13.3599 53.4645 13.7539 53.1572 14.0893C52.8646 14.3663 52.5188 14.5825 52.1403 14.7251C51.7619 14.8677 51.3583 14.9339 50.9536 14.9197ZM51.0511 10.8054C51.2823 10.8104 51.5117 10.765 51.7232 10.6724C51.9347 10.5798 52.123 10.4423 52.2747 10.2697C52.6088 9.89088 52.7849 9.40066 52.7674 8.89823C52.7875 8.38733 52.6115 7.88783 52.2747 7.50002C52.1232 7.32706 51.935 7.18935 51.7234 7.09674C51.5119 7.00413 51.2823 6.95891 51.0511 6.96431C50.8135 6.95948 50.5777 7.00476 50.3593 7.09713C50.1408 7.1895 49.9447 7.32684 49.7841 7.50002C49.4259 7.8739 49.2314 8.37251 49.2427 8.88752C49.2372 9.14013 49.2822 9.39134 49.3751 9.62669C49.468 9.86205 49.607 10.0769 49.7841 10.2589C49.944 10.4338 50.1396 10.573 50.3581 10.6672C50.5765 10.7614 50.8128 10.8085 51.0511 10.8054ZM56.4059 2.50181V11.8661H54.9927V2.50181H56.4059ZM60.2826 12.0589C59.8593 12.0697 59.4384 11.9939 59.0462 11.8363C58.654 11.6786 58.2989 11.4426 58.0031 11.1429C57.703 10.8454 57.4671 10.4906 57.3098 10.1001C57.1525 9.70967 57.0771 9.29165 57.0881 8.87145C57.0721 8.45022 57.142 8.03011 57.2936 7.63618C57.4452 7.24225 57.6755 6.88257 57.9706 6.57859C58.2488 6.28848 58.5851 6.05905 58.958 5.90499C59.331 5.75093 59.7323 5.67565 60.1364 5.68395C60.5079 5.68007 60.8764 5.75116 61.2192 5.89288C61.5281 6.01621 61.8095 6.19821 62.0476 6.42859C62.2521 6.62389 62.4337 6.84133 62.5891 7.07681C62.7147 7.27562 62.8217 7.48543 62.9085 7.70359L63.0547 8.06788L58.7232 9.83038C58.8542 10.1282 59.0733 10.3797 59.3517 10.5519C59.6301 10.724 59.9546 10.8087 60.2826 10.7947C60.6016 10.7955 60.9155 10.7145 61.1935 10.5596C61.4716 10.4047 61.7043 10.1811 61.869 9.91073L62.9518 10.6339C62.6755 11.0251 62.3218 11.3568 61.9123 11.6089C61.4252 11.9134 60.8586 12.0699 60.2826 12.0589ZM58.4742 8.77502L61.3546 7.59109C61.2658 7.38234 61.1072 7.21019 60.9052 7.10359C60.6791 6.97724 60.4231 6.91254 60.1634 6.91609C59.7228 6.92738 59.3045 7.11027 58.9993 7.42502C58.8168 7.59791 58.675 7.80856 58.5842 8.04192C58.4934 8.27529 58.4558 8.52562 58.4742 8.77502Z" fill="#939393"/>
<path d="M70.4603 12.0589C69.8593 12.0692 69.2624 11.9592 68.7055 11.7355C68.1485 11.5119 67.643 11.1792 67.2192 10.7574C66.7955 10.3356 66.4622 9.83344 66.2395 9.28105C66.0167 8.72866 65.9091 8.13743 65.9231 7.54286C65.9091 6.9483 66.0167 6.35707 66.2395 5.80468C66.4622 5.25229 66.7955 4.75013 67.2192 4.32835C67.643 3.90656 68.1485 3.57385 68.7055 3.35019C69.2624 3.12653 69.8593 3.01653 70.4603 3.02679C71.0686 3.00798 71.6733 3.1254 72.2293 3.3703C72.7853 3.6152 73.2781 3.98124 73.671 4.44108L72.8914 5.19108C72.6029 4.83209 72.2329 4.54553 71.8114 4.35471C71.3899 4.16388 70.9289 4.07416 70.4657 4.09286C70.0199 4.08293 69.5766 4.16228 69.1626 4.32615C68.7485 4.49001 68.3723 4.73502 68.0563 5.04644C67.7279 5.37323 67.4713 5.76369 67.3026 6.1933C67.134 6.62291 67.0569 7.08239 67.0763 7.54286C67.0569 8.00334 67.134 8.46282 67.3026 8.89243C67.4713 9.32204 67.7279 9.7125 68.0563 10.0393C68.3723 10.3507 68.7485 10.5957 69.1626 10.7596C69.5766 10.9235 70.0199 11.0028 70.4657 10.9929C70.9832 10.9986 71.4953 10.8889 71.9639 10.6719C72.4326 10.4548 72.8459 10.1361 73.1729 9.73929L73.9526 10.5107C73.5444 10.9937 73.0319 11.38 72.4528 11.6411C71.8286 11.9262 71.1477 12.069 70.4603 12.0589Z" fill="#939393"/>
<path d="M76.0426 11.866H74.9219V3.21426H76.0426V11.866Z" fill="#939393"/>
<path d="M77.8756 6.65893C78.4628 6.08186 79.2569 5.758 80.0846 5.758C80.9123 5.758 81.7064 6.08186 82.2937 6.65893C82.5809 6.95895 82.8053 7.31219 82.9539 7.69833C83.1026 8.08448 83.1726 8.49591 83.16 8.90893C83.1726 9.32196 83.1026 9.73339 82.9539 10.1195C82.8053 10.5057 82.5809 10.8589 82.2937 11.1589C81.7064 11.736 80.9123 12.0599 80.0846 12.0599C79.2569 12.0599 78.4628 11.736 77.8756 11.1589C77.5884 10.8589 77.364 10.5057 77.2153 10.1195C77.0666 9.73339 76.9966 9.32196 77.0093 8.90893C76.9966 8.49591 77.0666 8.08448 77.2153 7.69833C77.364 7.31219 77.5884 6.95895 77.8756 6.65893ZM78.7094 10.4625C78.886 10.6472 79.0988 10.7942 79.3348 10.8948C79.5708 10.9953 79.825 11.0471 80.0819 11.0471C80.3389 11.0471 80.5931 10.9953 80.8291 10.8948C81.0651 10.7942 81.2779 10.6472 81.4545 10.4625C81.6504 10.2545 81.8025 10.01 81.9019 9.74333C82.0014 9.47661 82.0462 9.19297 82.0338 8.90893C82.0462 8.6249 82.0014 8.34126 81.9019 8.07454C81.8025 7.80782 81.6504 7.56335 81.4545 7.35536C81.2779 7.17071 81.0651 7.02363 80.8291 6.92311C80.5931 6.82259 80.3389 6.77075 80.0819 6.77075C79.825 6.77075 79.5708 6.82259 79.3348 6.92311C79.0988 7.02363 78.886 7.17071 78.7094 7.35536C78.5135 7.56335 78.3614 7.80782 78.2619 8.07454C78.1624 8.34126 78.1176 8.6249 78.13 8.90893C78.1191 9.19245 78.1651 9.4753 78.2655 9.74107C78.3659 10.0068 78.5186 10.2502 78.7148 10.4571L78.7094 10.4625Z" fill="#939393"/>
<path d="M89.3776 11.8661H88.2947V11.0464H88.2622C88.0695 11.3577 87.7967 11.6128 87.4717 11.7857C87.1345 11.9791 86.7516 12.0807 86.3618 12.0804C86.0453 12.1018 85.7281 12.0522 85.4337 11.9353C85.1393 11.8184 84.8754 11.6373 84.6617 11.4054C84.2515 10.8921 84.0454 10.248 84.0823 9.59464V5.95178H85.2031V9.39107C85.2031 10.4946 85.6958 11.0464 86.6812 11.0464C86.9002 11.0532 87.1176 11.0081 87.3154 10.9149C87.5131 10.8217 87.6855 10.6831 87.8183 10.5107C88.1088 10.1464 88.2636 9.69431 88.2568 9.23035V5.95178H89.3776V11.8661Z" fill="#939393"/>
<path d="M93.1719 12.0589C92.7917 12.0601 92.4157 11.9798 92.0699 11.8235C91.724 11.6673 91.4165 11.4387 91.1686 11.1535C90.6072 10.5401 90.3066 9.73608 90.3293 8.90888C90.3066 8.08167 90.6072 7.27767 91.1686 6.66423C91.4165 6.37909 91.724 6.1505 92.0699 5.99421C92.4157 5.83791 92.7917 5.75763 93.1719 5.75888C93.5978 5.75222 94.0186 5.8517 94.3955 6.04816C94.7267 6.21306 95.0072 6.4628 95.2077 6.77138H95.2564L95.2077 5.95173V3.21423H96.3284V11.866H95.2456V11.0464H95.1968C94.9963 11.3549 94.7159 11.6047 94.3847 11.7696C94.011 11.9643 93.5942 12.0637 93.1719 12.0589ZM93.356 11.0464C93.6093 11.05 93.8605 11.0003 94.0929 10.9006C94.3254 10.8008 94.5337 10.6533 94.7041 10.4678C95.0849 10.0389 95.2794 9.47876 95.2456 8.90888C95.2794 8.33899 95.0849 7.77888 94.7041 7.34995C94.5326 7.16344 94.3236 7.01443 94.0905 6.91247C93.8574 6.81051 93.6054 6.75784 93.3505 6.75784C93.0957 6.75784 92.8436 6.81051 92.6106 6.91247C92.3775 7.01443 92.1685 7.16344 91.9969 7.34995C91.8078 7.56091 91.6626 7.80674 91.5697 8.07334C91.4768 8.33993 91.438 8.62205 91.4555 8.90352C91.438 9.18499 91.4768 9.4671 91.5697 9.7337C91.6626 10.0003 91.8078 10.2461 91.9969 10.4571C92.1676 10.6459 92.3772 10.7962 92.6117 10.8979C92.8462 10.9996 93.1 11.0502 93.356 11.0464Z" fill="#939393"/>
</svg>
