<svg
  width="85"
  height="14"
  viewBox="0 0 85 14"
  fill="none"
  xmlns="http://www.w3.org/2000/svg">
  <g clip-path="url(#clip0_983_2809)">
    <path d="M31.503 13.2252C29.971 13.2252 28.7433 12.7086 27.8199 11.6755C26.8966 10.6424 26.4375 9.3035 26.4375 7.64838C26.4375 5.99326 26.9069 4.45411 27.8457 3.39989C28.7846 2.3404 30.0638 1.81329 31.6836 1.81329C33.3033 1.81329 34.3763 2.32459 35.2893 3.35245C36.2023 4.38031 36.6563 5.71917 36.6563 7.37956C36.6563 9.03995 36.1869 10.6055 35.2532 11.6544C34.3195 12.7034 33.066 13.2252 31.4979 13.2252H31.503ZM31.5959 2.98347C30.461 2.98347 29.5377 3.39989 28.831 4.23799C28.1243 5.07609 27.7684 6.17248 27.7684 7.53242C27.7684 8.89236 28.114 9.98874 28.8052 10.8163C29.4964 11.6439 30.394 12.0603 31.5082 12.0603C32.6224 12.0603 33.6283 11.6649 34.3092 10.8743C34.9901 10.0836 35.3357 8.9767 35.3357 7.5535C35.3357 6.13031 35.0056 4.97067 34.3402 4.17474C33.6747 3.37881 32.7617 2.98347 31.5959 2.98347Z" fill="#0069B3" />
    <path d="M44.4041 13.0407H43.1661V8.54444C43.1661 6.8735 42.5677 6.0354 41.3709 6.0354C40.1742 6.0354 40.2412 6.2726 39.8389 6.747C39.4365 7.2214 39.2302 7.8223 39.2302 8.54444V13.0407H37.9922V5.15513H39.2302V6.46236H39.2612C39.844 5.46612 40.69 4.97064 41.7939 4.97064C42.8978 4.97064 43.2847 5.25001 43.7283 5.80874C44.1771 6.36748 44.3989 7.16868 44.3989 8.2229V13.0459L44.4041 13.0407Z" fill="#0069B3" />
    <path d="M52.3125 9.41417H46.8652C46.8859 10.2944 47.118 10.9691 47.5564 11.4488C48.0001 11.9285 48.6088 12.1657 49.3825 12.1657C50.1563 12.1657 51.0487 11.8705 51.7812 11.2854V12.4714C51.1054 12.9721 50.2079 13.2252 49.0885 13.2252C47.9691 13.2252 47.1438 12.8667 46.5196 12.1499C45.8954 11.433 45.5859 10.4262 45.5859 9.12953C45.5859 7.83284 45.9264 6.90513 46.6073 6.13028C47.2882 5.35543 48.1342 4.97064 49.1452 4.97064C50.1563 4.97064 50.9352 5.30272 51.4871 5.97215C52.0391 6.64158 52.3176 7.56402 52.3176 8.75001V9.41417H52.3125ZM51.0487 8.34414C51.0487 7.61673 50.8733 7.04745 50.5328 6.64158C50.1924 6.2357 49.723 6.0354 49.1194 6.0354C48.5159 6.0354 48.0413 6.24624 47.6338 6.6732C47.2263 7.10016 46.9735 7.6589 46.8807 8.34414H51.0487Z" fill="#0069B3" />
    <path d="M53.7422 13.0407V1.99774H56.7289C60.5358 1.99774 62.4392 3.78991 62.4392 7.37952C62.4392 10.9691 61.9079 10.4526 60.8505 11.4857C59.793 12.5188 58.3796 13.0354 56.6051 13.0354H53.7422V13.0407ZM55.006 3.16792V11.8705H56.6206C58.0391 11.8705 59.1379 11.4804 59.9271 10.7056C60.7163 9.93072 61.1084 8.83434 61.1084 7.41115C61.1084 4.58057 59.6382 3.16792 56.6928 3.16792H55.006Z" fill="#0069B3" />
    <path d="M67.8985 6.43599C67.6819 6.26731 67.3724 6.18298 66.9649 6.18298C66.5574 6.18298 65.9951 6.43599 65.6443 6.94728C65.2884 7.45331 65.113 8.14909 65.113 9.02409V13.0459H63.875V5.15511H65.113V6.77861H65.144C65.3193 6.22515 65.5876 5.79292 65.9487 5.48192C66.3098 5.17093 66.7173 5.01807 67.1609 5.01807C67.6045 5.01807 67.7283 5.05496 67.8985 5.12349V6.43072V6.43599Z" fill="#0069B3" />
    <path d="M69.448 3.15215C69.2262 3.15215 69.0405 3.07308 68.8806 2.92022C68.7258 2.76736 68.6484 2.57233 68.6484 2.33513C68.6484 2.09793 68.7258 1.9029 68.8806 1.74477C69.0353 1.58663 69.2262 1.50757 69.448 1.50757C69.6698 1.50757 69.8658 1.58663 70.0257 1.74477C70.1856 1.9029 70.263 2.09793 70.263 2.33513C70.263 2.57233 70.1856 2.75154 70.0257 2.91495C69.8658 3.07308 69.675 3.15215 69.448 3.15215ZM70.0515 13.0407H68.8135V5.15516H70.0515V13.0407Z" fill="#0069B3" />
    <path d="M78.0942 5.15515L75.0198 13.0407H73.8076L70.8828 5.15515H72.2395L74.1997 10.8848C74.3441 11.3065 74.4369 11.6755 74.4731 11.9865H74.504C74.5556 11.5911 74.633 11.2327 74.7464 10.9164L76.7943 5.15515H78.0994H78.0942Z" fill="#0069B3" />
    <path d="M85 9.41417H79.5527C79.5733 10.2944 79.8055 10.9691 80.2439 11.4488C80.6876 11.9285 81.2963 12.1657 82.07 12.1657C82.8438 12.1657 83.7362 11.8705 84.4687 11.2854V12.4714C83.7929 12.9721 82.8954 13.2252 81.776 13.2252C80.6566 13.2252 79.8313 12.8667 79.2071 12.1499C78.5829 11.433 78.2734 10.4262 78.2734 9.12953C78.2734 7.83284 78.6139 6.90513 79.2948 6.13028C79.9757 5.35543 80.8217 4.97064 81.8327 4.97064C82.8438 4.97064 83.6227 5.30272 84.1746 5.97215C84.7266 6.64158 85.0051 7.56402 85.0051 8.75001V9.41417H85ZM83.7362 8.34414C83.7362 7.61673 83.5608 7.04745 83.2203 6.64158C82.8799 6.2357 82.4105 6.0354 81.8069 6.0354C81.2034 6.0354 80.7288 6.24624 80.3213 6.6732C79.9138 7.10016 79.661 7.6589 79.5682 8.34414H83.7362Z" fill="#0069B3" />
    <path d="M20.9032 8.84494C20.9084 8.76587 20.9135 8.68153 20.9135 8.60247C20.9135 6.72596 19.4228 5.20262 17.5864 5.20262C15.75 5.20262 16.2865 5.40819 15.7655 5.75608C15.131 4.49629 13.8465 3.63184 12.3661 3.63184C10.2563 3.63184 8.54887 5.37656 8.54887 7.53244C8.54887 9.68831 8.54887 7.69057 8.55918 7.76964C8.47665 7.76437 8.39412 7.75909 8.30642 7.75909C6.61963 7.75909 5.25781 9.15593 5.25781 10.8743C5.25781 12.5927 6.61447 13.979 8.29095 13.9895H8.31158H21.4913C21.5583 13.9632 21.6254 13.9315 21.6873 13.8999C22.5436 13.4571 23.1316 12.5505 23.1316 11.4963C23.1316 10.4421 22.167 9.03997 20.9084 8.83967L20.9032 8.84494Z" fill="#0069B3" />
    <path d="M7.88718 7.09488C8.10384 4.77033 10.0279 2.94127 12.3595 2.94127C14.6911 2.94127 15.1605 3.65286 16.0013 4.83886C16.4965 4.62274 17.033 4.50678 17.5798 4.50678C18.1266 4.50678 17.652 4.50678 17.683 4.50678C17.4354 1.97666 15.3411 0 12.7928 0C10.2446 0 9.19741 1.13328 8.3927 2.7884C7.82528 2.39834 7.13922 2.16642 6.40672 2.16642C4.44138 2.16642 2.84743 3.79518 2.84743 5.80346C2.84743 7.81175 2.87838 6.33584 2.92997 6.58886C1.29476 6.70482 0 8.10166 0 9.80422C0 11.5068 1.4134 13.0301 3.15694 13.0301H5.22545C4.81278 12.4187 4.57034 11.6755 4.57034 10.8795C4.57034 8.92395 6.025 7.30572 7.88718 7.09488Z" fill="#0069B3" />
  </g>
  <defs>
    <clipPath id="clip0_983_2809">
      <rect width="85" height="14" fill="white" />
    </clipPath>
  </defs>
</svg>
