<svg
  width="77"
  height="9"
  viewBox="0 0 77 9"
  fill="none"
  xmlns="http://www.w3.org/2000/svg">
  <g clip-path="url(#clip0_983_2821)">
    <path d="M33.1923 5.85599H38.2723L35.589 1.95599L30.6557 8.99999H28.4123L34.4123 0.54899C34.5431 0.380353 34.7169 0.242383 34.9192 0.146637C35.1214 0.0508914 35.3462 0.000159023 35.5747 -0.00130994C35.8032 -0.0027789 36.0288 0.0450583 36.2325 0.138194C36.4362 0.23133 36.6122 0.367052 36.7457 0.53399L42.7623 8.99999H40.519L39.4623 7.42499H34.3223L33.2023 5.85599M56.5123 7.42499V0.0839902H54.6057V8.14799C54.6053 8.26005 54.6303 8.37101 54.679 8.47414C54.7277 8.57728 54.7991 8.67044 54.889 8.74799C54.9792 8.83109 55.0871 8.89701 55.2062 8.94185C55.3253 8.98669 55.4532 9.00952 55.5823 9.00899H64.249L65.379 7.43399H56.5023M24.989 6.11399C25.8775 6.11399 26.7296 5.79634 27.3578 5.23092C27.9861 4.66549 28.339 3.89862 28.339 3.09899C28.339 2.29936 27.9861 1.53249 27.3578 0.967063C26.7296 0.401641 25.8775 0.0839902 24.989 0.0839902H16.6557V8.99999H18.559V1.66199H24.8723C25.2976 1.66199 25.7054 1.81402 26.0061 2.08464C26.3068 2.35525 26.4757 2.72228 26.4757 3.10499C26.4757 3.4877 26.3068 3.85473 26.0061 4.12534C25.7054 4.39596 25.2976 4.54799 24.8723 4.54799H19.5023L25.189 8.99999H27.9523L24.1323 6.11399H24.989ZM4.94901 8.99999H10.7057C11.9967 8.96984 13.2236 8.48709 14.1249 7.65462C15.0261 6.82215 15.5305 5.7058 15.5305 4.54349C15.5305 3.38118 15.0261 2.26483 14.1249 1.43236C13.2236 0.599892 11.9967 0.117139 10.7057 0.0869902H4.94901C4.28793 0.0715522 3.63012 0.175405 3.01435 0.392424C2.39859 0.609443 1.83734 0.935235 1.36371 1.35059C0.890078 1.76594 0.513651 2.26244 0.256627 2.81081C-0.000396252 3.35918 -0.132813 3.94832 -0.132812 4.54349C-0.132813 5.13866 -0.000396252 5.7278 0.256627 6.27617C0.513651 6.82454 0.890078 7.32104 1.36371 7.73639C1.83734 8.15175 2.39859 8.47754 3.01435 8.69456C3.63012 8.91158 4.28793 9.01543 4.94901 8.99999ZM10.5757 7.43099H5.07567C4.24354 7.40683 3.45448 7.09235 2.87533 6.55404C2.29619 6.01573 1.97238 5.29579 1.97238 4.54649C1.97238 3.79718 2.29619 3.07725 2.87533 2.53894C3.45448 2.00063 4.24354 1.68615 5.07567 1.66199H10.5757C11.0053 1.64952 11.4332 1.7149 11.8342 1.85425C12.2351 1.9936 12.6009 2.20407 12.9097 2.47315C13.2184 2.74223 13.464 3.06443 13.6316 3.42061C13.7993 3.77679 13.8857 4.15966 13.8857 4.54649C13.8857 4.93332 13.7993 5.3162 13.6316 5.67237C13.464 6.02855 13.2184 6.35075 12.9097 6.61983C12.6009 6.88891 12.2351 7.09938 11.8342 7.23873C11.4332 7.37808 11.0053 7.44346 10.5757 7.43099ZM46.739 8.99999H52.6157L53.729 7.43099H46.869C46.4394 7.44346 46.0114 7.37808 45.6105 7.23873C45.2095 7.09938 44.8438 6.88891 44.535 6.61983C44.2262 6.35075 43.9807 6.02855 43.813 5.67237C43.6454 5.3162 43.559 4.93332 43.559 4.54649C43.559 4.15966 43.6454 3.77679 43.813 3.42061C43.9807 3.06443 44.2262 2.74223 44.535 2.47315C44.8438 2.20407 45.2095 1.9936 45.6105 1.85425C46.0114 1.7149 46.4394 1.64952 46.869 1.66199H52.4523L53.579 0.0869902H46.739C46.0779 0.0715522 45.4201 0.175405 44.8044 0.392424C44.1886 0.609443 43.6273 0.935235 43.1537 1.35059C42.6801 1.76594 42.3037 2.26244 42.0466 2.81081C41.7896 3.35918 41.6572 3.94832 41.6572 4.54349C41.6572 5.13866 41.7896 5.7278 42.0466 6.27617C42.3037 6.82454 42.6801 7.32104 43.1537 7.73639C43.6273 8.15175 44.1886 8.47754 44.8044 8.69456C45.4201 8.91158 46.0779 9.01543 46.739 8.99999ZM70.029 7.43099C69.3306 7.43123 68.6512 7.22625 68.0941 6.84721C67.537 6.46817 67.1326 5.93579 66.9423 5.33099H75.0823L76.2023 3.75899H66.9423C67.1321 3.15393 67.5363 2.62128 68.0936 2.24216C68.6508 1.86305 69.3305 1.65826 70.029 1.65899H75.6157L76.7323 0.0839902H69.899C68.608 0.114139 67.3811 0.596892 66.4798 1.42936C65.5786 2.26183 65.0742 3.37818 65.0742 4.54049C65.0742 5.7028 65.5786 6.81915 66.4798 7.65162C67.3811 8.48409 68.608 8.96684 69.899 8.99699H75.7757L76.8923 7.42799H70.0257" fill="#C74634" />
  </g>
  <defs>
    <clipPath id="clip0_983_2821">
      <rect width="77" height="9" fill="white" />
    </clipPath>
  </defs>
</svg>
