<svg width="556" height="240" viewBox="0 0 556 240" fill="none" xmlns="http://www.w3.org/2000/svg">
<path d="M494.222 94C514.815 94 535.407 47 556 47V239.5H0V68C20.5926 68 41.1852 2 61.7778 2C82.3704 2 102.963 90 123.556 90C144.148 90 164.741 74 185.333 74C205.926 74 226.518 14 247.111 14C267.704 14 288.296 1 308.889 1C329.481 1 350.074 0 370.667 0C391.259 0 411.852 48 432.444 48C453.037 48 473.63 94 494.222 94Z" fill="url(#paint0_radial_983_2648)"/>
<defs>
<radialGradient id="paint0_radial_983_2648" cx="0" cy="0" r="1" gradientUnits="userSpaceOnUse" gradientTransform="translate(262) rotate(90) scale(135.5 336.64)">
<stop offset="0.0352886" stop-color="#A7C889"/>
<stop offset="0.520767" stop-color="#A7C889" stop-opacity="0.36"/>
<stop offset="0.933703" stop-color="#A7C889" stop-opacity="0"/>
</radialGradient>
</defs>
</svg>
