<svg width="216" height="108" viewBox="0 0 216 108" fill="none" xmlns="http://www.w3.org/2000/svg">
<rect x="1" y="1.16846" width="214" height="83" rx="41.5" stroke="#B0CA98" stroke-width="2"/>
<path d="M2 37.1685C9.85185 37.1685 17.7037 55.1685 25.5556 55.1685C33.4074 55.1685 41.2593 37.5514 49.1111 37.5514C56.963 37.5514 64.8148 19.1685 72.6667 19.1685C80.5185 19.1685 88.3704 19.5514 96.2222 19.5514C104.074 19.5514 111.926 24.5302 119.778 24.5302C127.63 24.5302 135.481 47.5089 143.333 47.5089C151.185 47.5089 159.037 53.6365 166.889 53.6365C174.741 53.6365 182.593 19.9344 190.444 19.9344C198.296 19.9344 206.148 45.211 214 45.211" stroke="#A7C889" stroke-width="2" stroke-linecap="round" stroke-linejoin="round"/>
<path d="M25.4444 54.3146C17.6296 54.3146 9.81481 37.2415 2 37.2415V107.168H213V44.8699C205.185 44.8699 197.37 20.895 189.556 20.895C181.741 20.895 173.926 52.8616 166.111 52.8616C158.296 52.8616 150.481 47.0495 142.667 47.0495C134.852 47.0495 127.037 25.2541 119.222 25.2541C111.407 25.2541 103.593 20.5317 95.7778 20.5317C87.963 20.5317 80.1481 20.1685 72.3333 20.1685C64.5185 20.1685 56.7037 37.6048 48.8889 37.6048C41.0741 37.6048 33.2593 54.3146 25.4444 54.3146Z" fill="url(#paint0_radial_1209_3700)"/>
<defs>
<radialGradient id="paint0_radial_1209_3700" cx="0" cy="0" r="1" gradientUnits="userSpaceOnUse" gradientTransform="translate(113.572 20.1685) rotate(90) scale(49.2213 127.754)">
<stop offset="0.0352886" stop-color="#A7C889"/>
<stop offset="0.520767" stop-color="#A7C889" stop-opacity="0.36"/>
<stop offset="0.933703" stop-color="#A7C889" stop-opacity="0"/>
</radialGradient>
</defs>
</svg>
