<?xml version="1.0" standalone="no"?><!DOCTYPE svg PUBLIC "-//W3C//DTD SVG 1.1//EN" "http://www.w3.org/Graphics/SVG/1.1/DTD/svg11.dtd" ><svg xmlns="http://www.w3.org/2000/svg"><metadata></metadata><defs><font id="SwissTypefaces: Suisse Int'l Mono: 2013" horiz-adv-x="647"><font-face font-family="Suisse Int'l Mono" font-weight="400" font-stretch="normal" units-per-em="1000" panose-1="2 11 5 9 0 0 0 0 0 0" ascent="986" descent="-311" x-height="0" bbox="-13 -221 696 921" underline-thickness="70" underline-position="-75" unicode-range="U+000d-fb02" /><missing-glyph horiz-adv-x="646" d="M73 0 l500 0 l0 725 l-500 0 l0 -725 ZM312 362 l-220 -333 l0 667 l220 -334 ZM333 362 l221 334 l0 -667 l-221 333 ZM323 346 l216 -327 l-433 0 l217 327 ZM106 706 l433 0 l-216 -328 l-217 328 Z" /><glyph glyph-name="" unicode="" d="" /><glyph glyph-name="" unicode=" " d="" /><glyph glyph-name="" unicode="!" d="M351 212 l20 294 l0 219 l-96 0 l0 -219 l18 -294 l58 0 ZM380 0 l0 115 l-115 0 l0 -115 l115 0 Z" /><glyph glyph-name="" unicode="&quot;" d="M195 725 l20 -253 l62 0 l20 253 l-102 0 ZM349 725 l20 -253 l62 0 l20 253 l-102 0 Z" /><glyph glyph-name="" unicode="#" d="M70 527 l-10 -71 l141 0 l-23 -163 l-141 0 l-10 -71 l141 0 l-30 -222 l74 0 l30 222 l124 0 l-30 -222 l74 0 l30 222 l135 0 l9 71 l-134 0 l23 163 l135 0 l10 71 l-135 0 l27 198 l-74 0 l-27 -198 l-124 0 l27 198 l-74 0 l-27 -198 l-141 0 ZM275 456 l124 0 l-23 -163 l-124 0 l23 163 Z" /><glyph glyph-name="" unicode="$" d="M299 822 l0 -85 q-87 -7 -147 -56 q-61 -50 -61 -140 q0 -78 52 -128 q51 -51 123 -69 l33 -9 l0 -268 q-125 19 -135 163 l-94 0 q3 -101 66 -166 q63 -66 163 -75 l0 -86 l55 0 l0 85 q96 7 156 63 q60 56 60 153 q0 52 -18 90 q-19 38 -53 62 q-35 23 -65 36 q-31 13 -75 24 l-5 1 l0 241 q105 -20 115 -123 l94 0 q-9 90 -67 141 q-59 51 -142 60 l0 86 l-55 0 ZM477 195 q0 -51 -33 -87 q-33 -36 -90 -42 l0 255 q123 -32 123 -126 l0 0 ZM185 548 q0 55 34 81 q34 26 80 31 l0 -229 l-12 3 q-46 12 -74 41 q-28 28 -28 73 l0 0 Z" /><glyph glyph-name="" unicode="%" d="M171 378 q69 0 105 49 q35 48 35 131 q0 84 -35 132 q-36 48 -105 48 q-68 0 -103 -48 q-36 -48 -36 -132 q0 -83 36 -131 q35 -49 103 -49 l0 0 ZM171 439 q-68 0 -68 119 q0 119 68 119 q69 0 69 -119 q0 -119 -69 -119 l0 0 ZM113 0 l501 725 l-80 0 l-500 -725 l79 0 ZM472 -13 q68 0 104 49 q35 49 35 132 q0 84 -35 132 q-36 48 -104 48 q-69 0 -104 -48 q-36 -48 -36 -132 q0 -84 36 -132 q35 -49 104 -49 l0 0 ZM472 48 q-69 0 -69 120 q0 118 69 118 q68 0 68 -118 q0 -120 -68 -120 l0 0 Z" /><glyph glyph-name="" unicode="&amp;" d="M252 -13 q122 0 197 91 l63 -78 l121 0 l-134 166 q40 98 37 225 l-85 0 q2 -89 -14 -148 l-117 146 q154 70 154 193 q0 79 -52 118 q-52 38 -123 38 q-71 0 -123 -45 q-53 -45 -53 -117 q0 -78 58 -164 q-68 -29 -109 -83 q-42 -55 -42 -128 q0 -87 59 -150 q58 -64 163 -64 l0 0 ZM258 67 q-55 0 -93 38 q-38 37 -38 98 q0 99 101 150 l168 -209 q-52 -77 -138 -77 l0 0 ZM216 576 q0 40 26 62 q25 21 59 21 q35 0 61 -21 q25 -21 25 -60 q0 -77 -116 -129 q-55 70 -55 127 l0 0 Z" /><glyph glyph-name="" unicode="&#39;" d="M272 725 l20 -253 l62 0 l20 253 l-102 0 Z" /><glyph glyph-name="" unicode="(" d="M216 275 q0 -137 41 -253 q41 -117 96 -197 l76 0 q-120 195 -120 450 q0 255 120 450 l-76 0 q-55 -80 -96 -196 q-41 -117 -41 -254 l0 0 Z" /><glyph glyph-name="" unicode=")" d="M430 275 q0 137 -41 253 q-41 116 -97 197 l-75 0 q119 -196 119 -450 q0 -254 -119 -450 l75 0 q56 81 97 197 q41 116 41 253 l0 0 Z" /><glyph glyph-name="" unicode="*" d="M352 725 l-61 0 l0 -120 l-113 43 l-20 -56 l113 -39 l-70 -98 l53 -35 l68 101 l74 -101 l46 36 l-69 97 l115 39 l-23 56 l-113 -43 l0 120 Z" /><glyph glyph-name="" unicode="+" d="M369 0 l0 226 l226 0 l0 86 l-226 0 l0 226 l-92 0 l0 -226 l-226 0 l0 -86 l226 0 l0 -226 l92 0 Z" /><glyph glyph-name="" unicode="," d="M265 0 l49 0 l-53 -139 l58 0 l61 131 l0 123 l-115 0 l0 -115 Z" /><glyph glyph-name="" unicode="-" d="M482 231 l0 86 l-318 0 l0 -86 l318 0 Z" /><glyph glyph-name="" unicode="." d="M380 0 l0 115 l-115 0 l0 -115 l115 0 Z" /><glyph glyph-name="" unicode="/" d="M226 0 l285 725 l-91 0 l-285 -725 l91 0 Z" /><glyph glyph-name="" unicode="0" d="M322 -13 q132 0 193 101 q61 100 61 278 q0 372 -254 372 q-253 0 -253 -372 q0 -379 253 -379 l0 0 ZM162 366 q0 149 39 222 q39 72 121 72 q130 0 154 -188 l-313 -143 q-1 12 -1 37 l0 0 ZM322 66 q-127 0 -153 187 l313 145 q1 -11 1 -32 q0 -300 -161 -300 l0 0 Z" /><glyph glyph-name="" unicode="1" d="M327 725 q-26 -56 -72 -74 q-47 -19 -145 -21 l0 -63 l185 0 l0 -488 l-185 0 l0 -79 l429 0 l0 79 l-152 0 l0 646 l-60 0 Z" /><glyph glyph-name="" unicode="2" d="M334 738 q-109 0 -176 -69 q-67 -69 -65 -174 l94 0 q1 84 43 125 q41 40 103 40 q60 0 93 -35 q32 -36 32 -94 q0 -91 -91 -195 q-92 -105 -287 -257 l0 -79 l489 0 l0 79 l-360 0 q80 64 134 113 q54 49 107 110 q53 60 80 121 q26 60 26 120 q0 90 -62 143 q-62 52 -160 52 l0 0 Z" /><glyph glyph-name="" unicode="3" d="M320 66 q-70 0 -109 41 q-40 40 -48 109 l-93 0 q7 -96 71 -162 q64 -67 178 -67 q104 0 179 58 q75 57 75 159 q0 138 -131 183 q54 22 84 67 q29 45 29 101 q0 93 -66 138 q-66 45 -163 45 q-105 0 -171 -60 q-67 -61 -75 -158 l94 0 q5 63 44 102 q38 38 105 38 q58 0 96 -30 q38 -31 38 -84 q0 -123 -183 -123 l-11 0 l0 -81 l14 0 q90 0 144 -33 q54 -34 54 -106 q0 -64 -42 -100 q-43 -37 -113 -37 l0 0 Z" /><glyph glyph-name="" unicode="4" d="M385 601 l0 -336 l-246 0 l246 336 ZM598 265 l-121 0 l0 460 l-93 0 l-341 -460 l0 -86 l342 0 l0 -179 l92 0 l0 179 l121 0 l0 86 Z" /><glyph glyph-name="" unicode="5" d="M322 66 q-70 0 -109 41 q-40 40 -48 109 l-93 0 q7 -96 71 -162 q64 -67 178 -67 q103 0 178 68 q74 67 74 184 q0 113 -68 179 q-69 66 -164 66 q-95 0 -150 -54 l26 217 l324 0 l0 78 l-402 0 l-47 -393 l96 -4 q13 30 49 53 q35 23 83 23 q63 0 109 -42 q46 -42 46 -124 q0 -80 -44 -126 q-44 -46 -109 -46 l0 0 Z" /><glyph glyph-name="" unicode="6" d="M176 232 q0 73 42 121 q42 47 109 47 q66 0 108 -47 q42 -48 42 -121 q0 -73 -42 -119 q-43 -47 -109 -47 q-68 0 -109 46 q-41 45 -41 120 l0 0 ZM340 660 q50 0 83 -26 q33 -27 41 -75 l99 0 q-12 75 -67 127 q-56 52 -151 52 q-72 0 -126 -34 q-55 -34 -86 -92 q-31 -58 -46 -128 q-16 -70 -16 -150 q0 -167 65 -257 q64 -90 191 -90 q108 0 178 73 q70 73 70 176 q0 107 -65 177 q-65 69 -162 69 q-127 0 -182 -99 q3 127 48 202 q45 75 126 75 l0 0 Z" /><glyph glyph-name="" unicode="7" d="M82 647 l397 0 q-129 -106 -211 -279 q-83 -174 -95 -368 l105 0 q5 197 89 368 q84 171 224 279 l0 78 l-509 0 l0 -78 Z" /><glyph glyph-name="" unicode="8" d="M323 738 q-105 0 -170 -52 q-66 -53 -66 -133 q0 -48 24 -93 q24 -46 72 -73 q-63 -27 -90 -76 q-27 -50 -27 -107 q0 -99 74 -158 q73 -59 183 -59 q110 0 184 59 q73 59 73 158 q0 56 -27 106 q-28 50 -90 77 q48 27 72 73 q23 45 23 93 q0 80 -65 133 q-65 52 -170 52 l0 0 ZM323 346 q72 0 116 -39 q43 -40 43 -103 q0 -63 -43 -100 q-43 -38 -116 -38 q-73 0 -116 38 q-44 37 -44 100 q0 63 44 103 q44 39 116 39 l0 0 ZM466 544 q0 -55 -39 -91 q-40 -36 -104 -36 q-64 0 -103 36 q-40 36 -40 91 q0 53 39 84 q39 31 104 31 q66 0 105 -30 q38 -30 38 -85 l0 0 Z" /><glyph glyph-name="" unicode="9" d="M469 493 q0 -73 -41 -120 q-42 -47 -110 -47 q-66 0 -107 47 q-42 47 -42 120 q0 74 42 121 q42 46 109 46 q68 0 109 -46 q40 -46 40 -121 l0 0 ZM307 66 q-51 0 -84 26 q-33 26 -41 74 l-100 0 q12 -75 69 -127 q57 -52 151 -52 q72 0 127 34 q54 34 85 93 q31 58 46 128 q15 69 15 149 q0 168 -64 258 q-64 89 -193 89 q-110 0 -178 -73 q-69 -73 -69 -176 q0 -106 65 -175 q65 -70 162 -70 q127 0 182 99 q-3 -127 -48 -202 q-45 -75 -125 -75 l0 0 Z" /><glyph glyph-name="" unicode=":" d="M380 423 l0 115 l-115 0 l0 -115 l115 0 ZM380 0 l0 115 l-115 0 l0 -115 l115 0 Z" /><glyph glyph-name="" unicode=";" d="M380 423 l0 115 l-115 0 l0 -115 l115 0 ZM265 0 l49 0 l-53 -139 l58 0 l61 131 l0 123 l-115 0 l0 -115 Z" /><glyph glyph-name="" unicode="&lt;" d="M56 307 l0 -78 l514 -223 l0 97 l-400 165 l400 168 l0 98 l-514 -227 Z" /><glyph glyph-name="" unicode="=" d="M574 327 l0 87 l-502 0 l0 -87 l502 0 ZM574 124 l0 86 l-502 0 l0 -86 l502 0 Z" /><glyph glyph-name="" unicode="&gt;" d="M590 307 l-514 227 l0 -98 l400 -168 l-400 -165 l0 -97 l514 223 l0 78 Z" /><glyph glyph-name="" unicode="?" d="M179 520 q3 55 40 97 q36 41 112 41 q58 0 94 -26 q36 -27 36 -73 q0 -45 -23 -74 q-24 -29 -70 -58 q-66 -42 -93 -79 q-27 -38 -27 -98 l0 -38 l91 0 l0 35 q0 40 18 63 q17 23 66 53 q136 83 136 199 q0 86 -66 131 q-67 45 -160 45 q-107 0 -176 -60 q-70 -61 -71 -158 l93 0 ZM352 0 l0 115 l-115 0 l0 -115 l115 0 Z" /><glyph glyph-name="" unicode="@" d="M472 156 q58 0 102 70 q43 70 43 186 q0 158 -79 242 q-79 84 -200 84 q-132 0 -221 -110 q-89 -111 -89 -272 q0 -159 77 -264 q77 -105 200 -105 q99 0 177 45 l-24 59 q-59 -39 -153 -39 q-97 0 -155 88 q-59 87 -59 214 q0 134 69 230 q69 95 176 95 q99 0 160 -73 q61 -74 61 -198 q0 -81 -22 -135 q-23 -55 -53 -55 q-45 0 -35 122 l24 220 l-56 0 l-6 -60 q-12 35 -36 56 q-24 21 -56 21 q-71 0 -116 -71 q-45 -72 -45 -164 q0 -89 34 -136 q33 -47 83 -47 q83 0 119 90 q5 -44 27 -68 q22 -25 53 -25 l0 0 ZM318 511 q32 0 51 -31 q18 -32 18 -80 q0 -70 -26 -123 q-27 -54 -70 -54 q-32 0 -50 32 q-18 32 -18 86 q0 65 27 118 q27 52 68 52 l0 0 Z" /><glyph glyph-name="" unicode="A" d="M374 725 l-102 0 l-238 -725 l102 0 l48 155 l277 0 l49 -155 l102 0 l-238 725 ZM323 598 l110 -354 l-221 0 l111 354 Z" /><glyph glyph-name="" unicode="B" d="M100 0 l236 0 q106 0 175 53 q68 53 68 162 q0 126 -99 172 q34 21 53 64 q19 43 19 95 q0 179 -238 179 l-214 0 l0 -725 ZM195 332 l142 0 q75 0 110 -27 q34 -28 34 -91 q0 -124 -137 -124 l-149 0 l0 242 ZM195 635 l139 0 q123 0 123 -103 q0 -115 -123 -115 l-139 0 l0 218 Z" /><glyph glyph-name="" unicode="C" d="M483 225 q-10 -69 -47 -109 q-38 -41 -104 -41 q-82 0 -125 77 q-43 76 -43 212 q0 138 44 212 q43 74 122 74 q65 0 102 -43 q37 -44 47 -112 l97 0 q-18 111 -84 178 q-66 66 -159 66 q-127 0 -197 -101 q-70 -102 -70 -274 q0 -172 66 -274 q66 -103 194 -103 q100 0 167 62 q67 61 85 176 l-95 0 Z" /><glyph glyph-name="" unicode="D" d="M493 363 q0 -71 -16 -122 q-17 -52 -42 -80 q-25 -29 -64 -45 q-40 -17 -74 -21 q-35 -5 -82 -5 l-26 0 l0 545 l26 0 q47 0 82 -4 q34 -5 74 -21 q39 -16 64 -44 q25 -29 42 -80 q16 -52 16 -123 l0 0 ZM94 725 l0 -725 l124 0 q81 0 146 19 q64 18 117 59 q52 40 81 113 q28 72 28 172 q0 362 -372 362 l-124 0 Z" /><glyph glyph-name="" unicode="E" d="M112 0 l432 0 l0 90 l-337 0 l0 239 l317 0 l0 90 l-317 0 l0 216 l337 0 l0 90 l-432 0 l0 -725 Z" /><glyph glyph-name="" unicode="F" d="M130 0 l95 0 l0 329 l332 0 l0 90 l-332 0 l0 216 l351 0 l0 90 l-446 0 l0 -725 Z" /><glyph glyph-name="" unicode="G" d="M325 650 q135 0 156 -149 l98 0 q-17 111 -82 174 q-66 63 -167 63 q-135 0 -206 -100 q-72 -101 -72 -274 q0 -173 67 -275 q67 -102 202 -102 q65 0 109 25 q43 24 75 79 l4 -91 l72 0 l0 376 l-254 0 l0 -90 l167 0 l0 -23 q0 -188 -169 -188 q-88 0 -131 76 q-44 75 -44 213 q0 139 45 213 q44 73 130 73 l0 0 Z" /><glyph glyph-name="" unicode="H" d="M463 726 l0 -307 l-280 0 l0 307 l-95 0 l0 -726 l95 0 l0 329 l280 0 l0 -329 l95 0 l0 726 l-95 0 Z" /><glyph glyph-name="" unicode="I" d="M92 635 l183 0 l0 -545 l-183 0 l0 -90 l461 0 l0 90 l-183 0 l0 545 l183 0 l0 90 l-461 0 l0 -90 Z" /><glyph glyph-name="" unicode="J" d="M146 725 l0 -90 l279 0 l0 -404 q0 -92 -29 -124 q-29 -33 -87 -33 q-121 0 -121 150 l-95 0 q0 -110 59 -173 q59 -64 157 -64 q211 0 211 243 l0 495 l-374 0 Z" /><glyph glyph-name="" unicode="K" d="M203 725 l-95 0 l0 -725 l95 0 l0 246 l90 116 l200 -362 l109 0 l-247 442 l219 283 l-112 0 l-259 -347 l0 347 Z" /><glyph glyph-name="" unicode="L" d="M220 725 l-95 0 l0 -725 l451 0 l0 90 l-356 0 l0 635 Z" /><glyph glyph-name="" unicode="M" d="M371 250 l106 382 l0 -632 l95 0 l0 725 l-149 0 l-100 -371 l-100 371 l-149 0 l0 -725 l95 0 l0 632 l106 -382 l96 0 Z" /><glyph glyph-name="" unicode="N" d="M557 0 l0 725 l-95 0 l0 -617 l-232 617 l-142 0 l0 -725 l95 0 l0 619 l232 -619 l142 0 Z" /><glyph glyph-name="" unicode="O" d="M323 738 q-132 0 -201 -102 q-70 -103 -70 -273 q0 -170 70 -273 q69 -103 201 -103 q132 0 202 103 q69 103 69 273 q0 170 -69 273 q-70 102 -202 102 l0 0 ZM323 650 q173 0 173 -287 q0 -288 -173 -288 q-173 0 -173 288 q0 287 173 287 l0 0 Z" /><glyph glyph-name="" unicode="P" d="M121 725 l0 -725 l95 0 l0 279 l83 0 q64 0 112 10 q47 10 87 34 q40 24 61 69 q21 45 21 110 q0 65 -21 110 q-21 45 -61 69 q-40 24 -87 34 q-48 10 -112 10 l-178 0 ZM311 635 q85 0 128 -26 q43 -26 43 -107 q0 -81 -43 -107 q-43 -26 -128 -26 l-95 0 l0 266 l95 0 Z" /><glyph glyph-name="" unicode="Q" d="M322 739 q-132 0 -201 -103 q-70 -103 -70 -273 q0 -170 70 -273 q69 -103 201 -103 q84 0 146 45 l72 -80 l55 62 l-70 78 q68 101 68 271 q0 170 -69 273 q-70 103 -202 103 l0 0 ZM322 650 q173 0 173 -287 q0 -128 -35 -199 l-65 74 l-56 -63 l68 -76 q-35 -24 -85 -24 q-173 0 -173 288 q0 287 173 287 l0 0 Z" /><glyph glyph-name="" unicode="R" d="M481 0 l108 0 l-154 324 q131 41 131 194 q0 63 -20 105 q-21 42 -61 64 q-41 21 -87 30 q-47 8 -112 8 l-177 0 l0 -725 l95 0 l0 305 l82 0 q36 0 53 1 l142 -306 ZM297 635 q34 0 56 -1 q21 -2 46 -8 q24 -7 38 -19 q13 -13 22 -35 q9 -23 9 -56 q0 -40 -12 -65 q-12 -26 -38 -37 q-27 -12 -53 -15 q-26 -4 -68 -4 l-93 0 l0 240 l93 0 Z" /><glyph glyph-name="" unicode="S" d="M265 342 l79 -19 q136 -31 136 -127 q0 -58 -43 -89 q-44 -32 -103 -32 q-71 0 -117 40 q-47 39 -54 111 l-94 0 q6 -108 79 -173 q72 -66 183 -66 q107 0 176 59 q69 58 69 157 q0 95 -58 144 q-59 48 -161 71 l-72 16 q-105 24 -105 108 q0 53 40 81 q40 27 95 27 q57 0 101 -28 q43 -28 51 -88 l94 0 q-11 101 -80 153 q-69 51 -161 51 q-101 0 -169 -54 q-69 -54 -69 -145 q0 -81 52 -130 q52 -50 131 -67 l0 0 Z" /><glyph glyph-name="" unicode="T" d="M275 0 l95 0 l0 635 l218 0 l0 90 l-531 0 l0 -90 l218 0 l0 -635 Z" /><glyph glyph-name="" unicode="U" d="M79 725 l0 -430 q0 -170 54 -239 q54 -69 189 -69 q137 0 191 76 q54 75 54 240 l0 422 l-95 0 l0 -430 q0 -116 -30 -168 q-31 -52 -120 -52 q-88 0 -118 48 q-30 48 -30 161 l0 441 l-95 0 Z" /><glyph glyph-name="" unicode="V" d="M272 0 l101 0 l228 725 l-102 0 l-177 -598 l-176 598 l-102 0 l228 -725 Z" /><glyph glyph-name="" unicode="W" d="M374 504 l-103 0 l-80 -366 l-53 587 l-95 0 l72 -725 l124 0 l84 378 l84 -378 l123 0 l73 725 l-95 0 l-54 -587 l-80 366 Z" /><glyph glyph-name="" unicode="X" d="M33 0 l105 0 l184 297 l182 -297 l109 0 l-236 386 l210 339 l-104 0 l-158 -254 l-155 254 l-110 0 l210 -343 l-237 -382 Z" /><glyph glyph-name="" unicode="Y" d="M323 370 l-187 355 l-111 0 l250 -453 l0 -272 l95 0 l0 272 l250 453 l-111 0 l-186 -355 Z" /><glyph glyph-name="" unicode="Z" d="M557 725 l-451 0 l0 -90 l343 0 l-373 -545 l0 -90 l485 0 l0 90 l-376 0 l372 545 l0 90 Z" /><glyph glyph-name="" unicode="[" d="M211 725 l0 -900 l224 0 l0 77 l-136 0 l0 746 l136 0 l0 77 l-224 0 Z" /><glyph glyph-name="" unicode="\" d="M226 725 l-91 0 l285 -725 l91 0 l-285 725 Z" /><glyph glyph-name="" unicode="]" d="M211 725 l0 -77 l136 0 l0 -746 l-136 0 l0 -77 l224 0 l0 900 l-224 0 Z" /><glyph glyph-name="" unicode="^" d="M359 725 l-77 0 l-201 -387 l96 0 l143 273 l147 -273 l98 0 l-206 387 Z" /><glyph glyph-name="" unicode="_" d="M519 -86 l0 86 l-393 0 l0 -86 l393 0 Z" /><glyph glyph-name="" unicode="`" d="M349 609 l77 0 l-91 116 l-116 0 l130 -116 Z" /><glyph glyph-name="" unicode="a" d="M269 -13 q135 0 189 92 l1 -79 l88 0 q-8 98 -7 203 l1 131 q2 112 -48 164 q-51 51 -163 51 q-88 0 -152 -48 q-65 -49 -71 -133 l94 0 q10 107 128 107 q121 0 121 -121 l0 -23 q-89 -10 -149 -22 q-61 -13 -110 -34 q-50 -22 -73 -55 q-24 -33 -24 -80 q0 -71 50 -112 q50 -41 125 -41 l0 0 ZM457 243 q0 -99 -45 -140 q-46 -42 -117 -42 q-49 0 -75 22 q-27 21 -27 59 q0 54 64 79 q64 24 200 37 l0 -15 Z" /><glyph glyph-name="" unicode="b" d="M202 725 l-92 0 l0 -725 l91 0 l1 76 q54 -89 160 -89 q95 0 156 75 q60 75 60 205 q0 130 -60 205 q-61 75 -156 75 q-106 0 -160 -90 l0 268 ZM198 267 q0 101 41 152 q41 51 103 51 q69 0 104 -53 q35 -53 35 -150 q0 -98 -35 -151 q-35 -53 -104 -53 q-62 0 -103 52 q-41 51 -41 152 l0 0 Z" /><glyph glyph-name="" unicode="c" d="M333 547 q-113 0 -180 -78 q-67 -79 -67 -202 q0 -125 64 -202 q64 -78 174 -78 q90 0 155 53 q65 52 76 133 l-95 0 q-10 -47 -44 -79 q-35 -32 -87 -32 q-63 0 -104 53 q-42 53 -42 152 q0 97 42 151 q41 53 104 53 q49 0 84 -31 q34 -31 43 -81 l93 0 q-6 76 -66 132 q-60 56 -150 56 l0 0 Z" /><glyph glyph-name="" unicode="d" d="M444 457 q-52 90 -159 90 q-95 0 -156 -75 q-61 -75 -61 -205 q0 -130 61 -205 q60 -75 156 -75 q107 0 159 89 l1 -76 l91 0 l0 725 l-92 0 l0 -268 ZM448 267 q0 -100 -41 -152 q-41 -52 -103 -52 q-68 0 -103 54 q-36 53 -36 150 q0 97 36 150 q35 53 103 53 q62 0 103 -51 q41 -51 41 -152 l0 0 Z" /><glyph glyph-name="" unicode="e" d="M326 -13 q92 0 154 48 q61 48 78 126 l-95 0 q-31 -99 -139 -99 q-64 0 -104 50 q-41 49 -41 129 l387 0 q5 144 -58 226 q-64 81 -182 81 q-108 0 -176 -76 q-68 -77 -68 -205 q0 -125 63 -202 q63 -78 181 -78 l0 0 ZM326 472 q68 0 106 -43 q37 -44 36 -112 l-288 0 q3 77 41 116 q38 39 105 39 l0 0 Z" /><glyph glyph-name="" unicode="f" d="M220 538 l-143 0 l0 -79 l143 0 l0 -459 l92 0 l0 459 l241 0 l0 79 l-241 0 l0 39 q0 43 10 57 q10 13 43 13 l188 0 l0 78 l-190 0 q-85 0 -114 -31 q-29 -31 -29 -117 l0 -39 Z" /><glyph glyph-name="" unicode="g" d="M446 457 q-52 90 -159 90 q-96 0 -156 -70 q-61 -70 -61 -199 q0 -129 60 -199 q60 -70 157 -70 q108 0 159 89 l0 -52 q0 -86 -28 -119 q-34 -40 -110 -40 q-56 0 -82 21 q-27 21 -38 61 l-97 0 q12 -78 70 -120 q57 -42 146 -42 q58 0 109 19 q51 19 79 52 q23 27 33 69 q10 41 10 120 l0 471 l-92 0 l0 -81 ZM450 278 q0 -99 -40 -146 q-41 -47 -104 -47 q-139 0 -139 193 q0 192 139 192 q64 0 104 -46 q40 -46 40 -146 l0 0 Z" /><glyph glyph-name="" unicode="h" d="M365 547 q-108 0 -159 -85 l0 263 l-92 0 l0 -725 l92 0 l0 292 q0 86 34 132 q33 46 95 46 q29 0 50 -9 q20 -9 31 -22 q11 -13 17 -36 q5 -23 7 -42 q1 -20 1 -51 l0 -310 l92 0 l0 342 q0 97 -38 151 q-38 54 -130 54 l0 0 Z" /><glyph glyph-name="" unicode="i" d="M286 725 l0 -109 l92 0 l0 109 l-92 0 ZM134 538 l0 -79 l152 0 l0 -380 l-152 0 l0 -79 l397 0 l0 79 l-153 0 l0 459 l-244 0 Z" /><glyph glyph-name="" unicode="j" d="M183 538 l0 -79 l135 0 l0 -488 q0 -42 -10 -54 q-11 -13 -45 -13 l-125 0 l0 -79 l144 0 q74 0 101 32 q27 31 27 116 l0 565 l-227 0 ZM318 725 l0 -109 l92 0 l0 109 l-92 0 Z" /><glyph glyph-name="" unicode="k" d="M121 725 l0 -725 l92 0 l0 186 l83 82 l189 -268 l105 0 l-232 329 l211 209 l-118 0 l-238 -245 l0 432 l-92 0 Z" /><glyph glyph-name="" unicode="l" d="M128 725 l0 -78 l152 0 l0 -568 l-152 0 l0 -79 l397 0 l0 79 l-153 0 l0 646 l-244 0 Z" /><glyph glyph-name="" unicode="m" d="M350 479 q-23 68 -84 68 q-64 0 -98 -66 l0 57 l-88 0 l0 -538 l92 0 l0 303 q0 87 14 127 q13 40 47 40 q8 0 15 -2 q6 -3 11 -9 q5 -6 8 -11 q3 -6 5 -18 q2 -12 4 -20 q1 -8 2 -24 q0 -16 0 -25 l0 -29 l0 -332 l92 0 l0 305 q0 86 14 126 q13 39 46 39 q11 0 19 -4 q8 -4 13 -15 q5 -11 8 -20 q3 -10 5 -29 q1 -20 1 -32 l0 -38 l0 -332 l92 0 l0 379 q0 97 -30 133 q-31 35 -81 35 q-70 0 -107 -68 l0 0 Z" /><glyph glyph-name="" unicode="n" d="M206 538 l-92 0 l0 -538 l92 0 l0 292 q0 86 33 132 q33 45 95 45 q29 0 50 -8 q20 -9 31 -22 q11 -13 17 -36 q6 -23 8 -42 q1 -20 1 -51 l0 -310 l92 0 l0 342 q0 97 -38 151 q-39 54 -131 54 q-108 0 -158 -85 l0 76 Z" /><glyph glyph-name="" unicode="o" d="M171 267 q0 102 43 153 q43 50 109 50 q66 0 109 -50 q43 -51 43 -153 q0 -102 -43 -152 q-43 -51 -109 -51 q-66 0 -109 51 q-43 50 -43 152 l0 0 ZM74 267 q0 -137 74 -208 q73 -72 175 -72 q102 0 176 72 q73 71 73 208 q0 137 -73 209 q-74 71 -176 71 q-102 0 -175 -71 q-74 -72 -74 -209 l0 0 Z" /><glyph glyph-name="" unicode="p" d="M202 538 l-92 0 l0 -713 l92 0 l0 251 q52 -89 159 -89 q96 0 157 75 q60 75 60 205 q0 130 -61 205 q-61 75 -156 75 q-107 0 -159 -90 l0 81 ZM198 267 q0 101 41 152 q41 51 103 51 q68 0 104 -53 q35 -53 35 -150 q0 -97 -35 -150 q-36 -54 -104 -54 q-62 0 -103 52 q-41 51 -41 152 l0 0 Z" /><glyph glyph-name="" unicode="q" d="M445 457 q-54 90 -160 90 q-95 0 -155 -75 q-61 -75 -61 -205 q0 -130 61 -205 q60 -75 155 -75 q106 0 160 89 l0 -251 l92 0 l0 713 l-92 0 l0 -81 ZM449 267 q0 -101 -41 -152 q-41 -51 -103 -51 q-69 0 -104 53 q-35 53 -35 150 q0 97 35 150 q35 53 104 53 q62 0 103 -51 q41 -51 41 -152 l0 0 Z" /><glyph glyph-name="" unicode="r" d="M86 538 l0 -79 l153 0 l0 -380 l-152 0 l0 -79 l428 0 l0 79 l-184 0 l0 189 q0 186 143 186 l91 0 l0 84 l-92 0 q-49 0 -86 -25 q-38 -26 -58 -71 l0 96 l-243 0 Z" /><glyph glyph-name="" unicode="s" d="M530 391 q-15 73 -71 115 q-56 41 -141 41 q-77 0 -140 -38 q-63 -39 -63 -111 q0 -122 152 -152 l67 -13 q113 -20 113 -87 q0 -43 -35 -63 q-35 -20 -85 -20 q-106 0 -125 98 l-97 0 q8 -71 65 -122 q57 -52 155 -52 q93 0 154 44 q61 44 61 126 q0 31 -11 57 q-12 25 -30 42 q-18 16 -44 29 q-27 13 -52 20 q-25 7 -56 13 l-60 12 q-41 9 -61 26 q-20 16 -20 46 q0 34 32 52 q31 17 76 17 q104 0 120 -80 l96 0 Z" /><glyph glyph-name="" unicode="t" d="M197 538 l-153 0 l0 -79 l153 0 l0 -324 q0 -83 26 -109 q25 -26 100 -26 l186 0 l0 79 l-166 0 q-37 0 -45 13 q-9 12 -9 56 l0 311 l220 0 l0 79 l-220 0 l0 135 l-92 0 l0 -135 Z" /><glyph glyph-name="" unicode="u" d="M439 0 l92 0 l0 538 l-92 0 l0 -296 q0 -86 -33 -131 q-33 -45 -95 -45 q-29 0 -49 9 q-20 8 -31 21 q-11 12 -16 35 q-6 23 -7 43 q-2 19 -2 50 l0 314 l-92 0 l0 -346 q0 -98 38 -151 q37 -54 129 -54 q106 0 158 82 l0 -69 Z" /><glyph glyph-name="" unicode="v" d="M188 538 l-103 0 l194 -538 l88 0 l194 538 l-96 0 l-138 -412 l-139 412 Z" /><glyph glyph-name="" unicode="w" d="M279 430 l-80 -290 l-54 398 l-94 0 l90 -538 l93 0 l88 325 l88 -325 l93 0 l90 538 l-93 0 l-55 -398 l-80 290 l-86 0 Z" /><glyph glyph-name="" unicode="x" d="M551 538 l-102 0 l-126 -185 l-125 185 l-103 0 l176 -262 l-187 -276 l104 0 l135 200 l135 -200 l104 0 l-188 277 l177 261 Z" /><glyph glyph-name="" unicode="y" d="M183 -175 q81 0 116 33 q35 33 66 119 l199 561 l-95 0 l-143 -415 l-146 415 l-101 0 l201 -538 l-4 -12 q-20 -55 -39 -69 q-19 -15 -63 -15 l-97 0 l0 -79 l106 0 Z" /><glyph glyph-name="" unicode="z" d="M104 0 l444 0 l0 79 l-332 0 l327 380 l0 79 l-420 0 l0 -79 l308 0 l-327 -380 l0 -79 Z" /><glyph glyph-name="" unicode="{" d="M410 -175 l48 0 l0 77 l-46 0 q-35 0 -45 14 q-11 13 -11 56 l0 165 q0 66 -20 96 q-21 30 -64 41 l0 2 q43 11 64 41 q20 30 20 96 l0 165 q0 43 11 57 q10 13 45 13 l46 0 l0 77 l-48 0 q-88 0 -116 -31 q-29 -31 -29 -117 l0 -162 q0 -53 -15 -78 q-15 -25 -61 -25 l0 -74 q46 0 61 -25 q15 -25 15 -78 l0 -162 q0 -86 29 -117 q28 -31 116 -31 l0 0 Z" /><glyph glyph-name="" unicode="|" d="M282 725 l0 -815 l82 0 l0 815 l-82 0 Z" /><glyph glyph-name="" unicode="}" d="M188 -175 l47 0 q88 0 117 31 q28 31 28 117 l0 162 q0 53 15 78 q15 25 62 25 l0 74 q-47 0 -62 25 q-15 25 -15 78 l0 162 q0 86 -28 117 q-29 31 -117 31 l-47 0 l0 -77 l45 0 q35 0 46 -13 q10 -14 10 -57 l0 -165 q0 -66 21 -96 q20 -30 63 -41 l0 -2 q-43 -11 -63 -41 q-21 -30 -21 -96 l0 -165 q0 -43 -10 -56 q-11 -14 -46 -14 l-45 0 l0 -77 Z" /><glyph glyph-name="" unicode="~" d="M436 286 q-26 0 -100 35 q-74 34 -126 34 q-67 0 -108 -41 q-42 -41 -46 -107 l85 0 q2 32 21 50 q19 18 48 18 q32 0 108 -34 q75 -34 118 -34 q67 0 108 41 q41 41 46 107 l-85 0 q-3 -32 -22 -50 q-19 -19 -47 -19 l0 0 Z" /><glyph glyph-name="" unicode=" " d="" /><glyph glyph-name="" unicode="¡" d="M294 327 l-19 -294 l0 -208 l96 0 l0 208 l-20 294 l-57 0 ZM380 423 l0 115 l-115 0 l0 -115 l115 0 Z" /><glyph glyph-name="" unicode="¢" d="M300 628 l0 -83 q-99 -12 -156 -88 q-58 -77 -58 -190 q0 -118 57 -194 q57 -76 157 -85 l0 -85 l46 0 l0 85 q82 7 141 58 q58 51 68 127 l-95 0 q-9 -43 -39 -74 q-30 -31 -75 -36 l0 407 q42 -5 72 -35 q30 -31 38 -76 l93 0 q-6 73 -62 129 q-56 55 -141 59 l0 81 l-46 0 ZM183 267 q0 85 33 137 q32 52 84 64 l0 -403 q-52 12 -84 64 q-33 52 -33 138 l0 0 Z" /><glyph glyph-name="" unicode="£" d="M338 659 q68 0 110 -37 q41 -37 42 -121 l94 0 q2 107 -63 172 q-65 65 -179 65 q-61 0 -113 -18 q-53 -18 -90 -61 q-37 -44 -37 -107 q0 -58 48 -152 l-89 0 l0 -65 l120 0 q19 -48 19 -89 q0 -69 -46 -120 q-47 -51 -94 -70 l30 -73 q72 40 146 40 q40 0 106 -20 q65 -20 103 -20 q81 0 139 33 l-27 79 q-65 -27 -120 -27 q-38 0 -94 20 q-57 19 -84 19 q-31 0 -68 -13 l-1 2 q45 26 76 69 q30 42 30 96 q0 34 -15 74 l165 0 l0 65 l-194 0 q-20 38 -27 52 q-7 13 -16 43 q-10 29 -10 53 q0 57 42 84 q42 27 97 27 l0 0 Z" /><glyph glyph-name="" unicode="¤" d="M83 346 q0 -77 44 -138 l-69 -70 l49 -49 l69 69 q64 -48 143 -48 q82 0 147 49 l71 -70 l49 49 l-72 71 q44 61 44 137 q0 77 -44 138 l72 71 l-49 49 l-71 -70 q-64 51 -147 51 q-81 0 -144 -49 l-68 68 l-49 -49 l69 -70 q-44 -61 -44 -139 l0 0 ZM166 346 q0 70 43 118 q43 47 109 47 q70 0 115 -47 q45 -48 45 -118 q0 -68 -45 -114 q-45 -47 -115 -47 q-66 0 -109 47 q-43 46 -43 114 l0 0 Z" /><glyph glyph-name="" unicode="¥" d="M323 370 l-187 355 l-111 0 l226 -410 l-143 0 l0 -64 l167 0 l0 -76 l-167 0 l0 -64 l167 0 l0 -111 l95 0 l0 111 l164 0 l0 64 l-164 0 l0 76 l164 0 l0 64 l-141 0 l227 410 l-111 0 l-186 -355 Z" /><glyph glyph-name="" unicode="¦" d="M282 725 l0 -305 l82 0 l0 305 l-82 0 ZM282 215 l0 -305 l82 0 l0 305 l-82 0 Z" /><glyph glyph-name="" unicode="§" d="M320 -109 q-110 0 -126 108 l-94 0 q8 -84 67 -134 q58 -51 151 -51 q86 0 145 46 q58 45 58 123 q0 69 -62 121 q54 26 86 67 q31 41 31 93 q0 58 -36 96 q-37 38 -111 77 l-137 72 q-46 25 -63 44 q-18 19 -18 46 q0 27 27 45 q27 18 71 18 q47 0 80 -23 q32 -23 40 -68 l94 0 q-11 80 -66 124 q-55 43 -144 43 q-79 0 -137 -38 q-58 -39 -58 -106 q0 -75 70 -127 q-53 -20 -86 -56 q-33 -36 -33 -84 q0 -103 133 -175 l130 -69 q55 -30 76 -56 q20 -26 20 -58 q0 -36 -30 -57 q-30 -21 -78 -21 l0 0 ZM382 363 q55 -29 79 -55 q24 -26 24 -59 q0 -59 -90 -101 q-3 2 -10 6 q-8 4 -10 5 l-137 74 q-42 23 -60 47 q-19 23 -19 53 q0 63 104 92 l119 -62 Z" /><glyph glyph-name="" unicode="¨" d="M163 609 l91 0 l0 99 l-91 0 l0 -99 ZM392 708 l0 -99 l91 0 l0 99 l-91 0 Z" /><glyph glyph-name="" unicode="©" d="M44 457 q0 -122 81 -200 q80 -78 198 -78 q117 0 198 78 q81 78 81 200 q0 122 -81 202 q-81 79 -198 79 q-118 0 -198 -79 q-81 -79 -81 -202 l0 0 ZM93 457 q0 104 66 170 q65 66 164 66 q100 0 164 -66 q64 -66 64 -170 q0 -104 -64 -168 q-64 -65 -164 -65 q-99 0 -164 65 q-66 65 -66 168 l0 0 ZM322 355 q-36 0 -58 29 q-23 28 -23 81 q0 53 23 80 q22 27 58 27 q61 0 76 -63 l55 15 q-11 43 -44 70 q-33 26 -85 26 q-67 0 -106 -41 q-39 -42 -39 -114 q0 -74 38 -116 q37 -42 105 -42 q52 0 86 26 q34 25 49 64 l-57 15 q-16 -57 -78 -57 l0 0 Z" /><glyph glyph-name="" unicode="ª" d="M264 637 q3 48 61 48 q57 0 57 -51 l0 -11 l-55 -6 q-78 -8 -112 -32 q-30 -23 -30 -65 q0 -40 30 -69 q29 -29 79 -29 q66 0 95 42 l3 -34 l67 0 q-6 52 -6 103 q0 36 2 90 q1 60 -30 88 q-31 27 -97 27 q-60 0 -94 -27 q-35 -27 -39 -72 l69 -2 ZM384 553 q0 -37 -21 -56 q-21 -19 -53 -19 q-23 0 -37 12 q-14 12 -14 30 q0 38 70 45 l55 7 l0 -19 Z" /><glyph glyph-name="" unicode="«" d="M231 44 l98 0 l-150 229 l150 228 l-98 0 l-159 -228 l159 -229 ZM453 44 l98 0 l-150 229 l150 228 l-98 0 l-159 -228 l159 -229 Z" /><glyph glyph-name="" unicode="¬" d="M477 344 l0 -246 l92 0 l0 332 l-522 0 l0 -86 l430 0 Z" /><glyph glyph-name="" unicode="­" d="M482 231 l0 86 l-318 0 l0 -86 l318 0 Z" /><glyph glyph-name="" unicode="®" d="M44 457 q0 -122 81 -200 q80 -78 198 -78 q117 0 198 78 q81 78 81 200 q0 122 -81 202 q-81 79 -198 79 q-118 0 -198 -79 q-81 -79 -81 -202 l0 0 ZM93 457 q0 104 66 170 q65 66 164 66 q100 0 164 -66 q64 -66 64 -170 q0 -104 -64 -168 q-64 -65 -164 -65 q-99 0 -164 65 q-66 65 -66 168 l0 0 ZM391 317 l69 0 l-69 128 q54 25 54 80 q0 56 -34 75 q-35 19 -109 19 l-93 0 l0 -302 l63 0 l0 115 l44 0 l14 0 l61 -115 ZM382 524 q0 -44 -66 -44 l-44 0 l0 89 l41 0 q69 0 69 -45 l0 0 Z" /><glyph glyph-name="" unicode="¯" d="M473 623 l0 76 l-300 0 l0 -76 l300 0 Z" /><glyph glyph-name="" unicode="°" d="M176 591 q0 -61 43 -103 q42 -43 103 -43 q61 0 104 43 q43 42 43 103 q0 61 -42 104 q-43 43 -105 43 q-61 0 -103 -43 q-43 -43 -43 -104 l0 0 ZM249 591 q0 34 21 57 q20 23 52 23 q33 0 54 -23 q21 -23 21 -57 q0 -33 -21 -56 q-22 -23 -54 -23 q-32 0 -52 23 q-21 23 -21 56 l0 0 Z" /><glyph glyph-name="" unicode="±" d="M277 379 l-215 0 l0 -86 l215 0 l0 -158 l92 0 l0 158 l215 0 l0 86 l-215 0 l0 159 l-92 0 l0 -159 ZM584 0 l0 86 l-522 0 l0 -86 l522 0 Z" /><glyph glyph-name="" unicode="²" d="M329 853 q-67 0 -107 -38 q-41 -39 -40 -101 l73 0 q-1 43 20 64 q20 21 51 21 q28 0 45 -15 q17 -16 17 -44 q0 -46 -49 -98 q-50 -53 -165 -145 l0 -59 l299 0 l0 63 l-211 0 q100 68 151 127 q51 59 51 117 q0 50 -38 79 q-38 29 -97 29 l0 0 Z" /><glyph glyph-name="" unicode="³" d="M323 486 q-37 0 -57 23 q-21 22 -27 58 l-70 0 q4 -58 45 -97 q40 -39 108 -39 q66 0 111 32 q44 32 44 92 q0 32 -17 59 q-18 27 -50 40 q26 13 42 37 q15 24 15 53 q0 54 -40 82 q-41 27 -97 27 q-69 0 -110 -35 q-41 -35 -46 -96 l70 0 q11 77 81 77 q29 0 49 -15 q19 -15 19 -43 q0 -61 -90 -61 l-20 0 l0 -59 l24 0 q95 0 95 -68 q0 -31 -22 -49 q-22 -18 -57 -18 l0 0 Z" /><glyph glyph-name="" unicode="´" d="M426 725 l-117 0 l-90 -116 l76 0 l131 116 Z" /><glyph glyph-name="" unicode="µ&#x3bc;" d="M101 -175 l90 0 q12 52 12 156 l0 66 q43 -60 120 -60 q38 0 72 24 q34 24 57 63 l0 -74 l91 0 l0 538 l-91 0 l0 -299 q0 -83 -35 -127 q-35 -45 -98 -45 q-60 0 -88 35 q-28 35 -28 120 l0 316 l-91 0 l0 -566 q0 -99 -11 -147 l0 0 Z" /><glyph glyph-name="" unicode="¶" d="M99 537 q0 -79 52 -123 q51 -45 124 -53 l0 -451 l75 0 l0 746 l122 0 l0 -746 l75 0 l0 815 l-207 0 q-119 0 -180 -49 q-61 -50 -61 -139 l0 0 Z" /><glyph glyph-name="" unicode="·" d="M380 212 l0 115 l-115 0 l0 -115 l115 0 Z" /><glyph glyph-name="" unicode="¸" d="M222 -176 q39 -19 93 -19 q42 0 75 23 q33 22 33 59 q0 31 -20 50 q-20 18 -56 18 q-15 0 -30 -3 l32 51 l-53 0 l-51 -83 l30 -17 q13 9 38 9 q44 0 44 -30 q0 -32 -61 -32 q-28 0 -58 14 l-16 -40 Z" /><glyph glyph-name="" unicode="¹" d="M489 438 l0 55 l-84 0 l0 353 l-55 0 q-14 -31 -36 -40 q-23 -9 -72 -10 l0 -50 l89 0 l0 -253 l-99 0 l0 -55 l257 0 Z" /><glyph glyph-name="" unicode="º" d="M248 580 q0 49 20 75 q20 25 54 25 q35 0 55 -26 q20 -26 20 -74 q0 -47 -20 -73 q-21 -27 -55 -27 q-34 0 -54 27 q-20 26 -20 73 l0 0 ZM174 580 q0 -76 43 -116 q42 -41 105 -41 q63 0 106 41 q43 40 43 116 q0 77 -43 118 q-43 40 -106 40 q-63 0 -105 -40 q-43 -41 -43 -118 l0 0 Z" /><glyph glyph-name="" unicode="»" d="M352 273 l-159 228 l-98 0 l151 -228 l-151 -229 l98 0 l159 229 ZM574 273 l-159 228 l-98 0 l151 -228 l-151 -229 l98 0 l159 229 Z" /><glyph glyph-name="" unicode="¼" d="M84 317 l62 0 l0 408 l-50 0 q-7 -38 -19 -45 q-13 -7 -67 -8 l0 -41 l74 0 l0 -314 ZM166 0 l48 0 l243 725 l-49 0 l-242 -725 ZM515 0 l58 0 l0 103 l49 0 l0 50 l-49 0 l0 255 l-60 0 l-157 -260 l0 -45 l159 0 l0 -103 ZM404 153 l111 175 l0 -175 l-111 0 Z" /><glyph glyph-name="" unicode="½" d="M84 317 l62 0 l0 408 l-50 0 q-7 -38 -19 -45 q-13 -7 -67 -8 l0 -41 l74 0 l0 -314 ZM134 0 l48 0 l243 725 l-49 0 l-242 -725 ZM387 0 l232 0 l0 48 l-159 0 l37 48 q44 56 65 85 q20 29 38 67 q18 37 18 68 q0 49 -29 74 q-30 25 -83 25 q-117 0 -117 -124 l0 -4 l61 0 l0 4 q0 81 52 81 q53 0 53 -59 q0 -29 -19 -65 q-19 -36 -104 -144 l-45 -57 l0 -47 Z" /><glyph glyph-name="" unicode="¾" d="M547 0 l58 0 l0 103 l49 0 l0 50 l-49 0 l0 255 l-60 0 l-157 -260 l0 -45 l159 0 l0 -103 ZM436 153 l111 175 l0 -175 l-111 0 ZM217 0 l48 0 l243 725 l-49 0 l-242 -725 ZM136 309 q129 0 129 121 q0 84 -76 103 q62 19 62 94 q0 105 -114 105 q-112 0 -112 -111 l0 -2 l59 0 l0 2 q0 36 12 52 q11 16 38 16 q54 0 54 -68 q0 -71 -66 -71 l-21 0 l0 -44 l22 0 q78 0 78 -77 q0 -77 -64 -77 q-56 0 -56 71 l0 2 l-59 0 l0 -2 q0 -56 30 -85 q30 -29 84 -29 l0 0 Z" /><glyph glyph-name="" unicode="¿" d="M466 31 q-3 -55 -39 -96 q-37 -41 -113 -41 q-58 0 -94 26 q-36 26 -36 72 q0 45 23 73 q23 27 70 57 q68 44 94 77 q26 32 26 91 l0 36 l-91 0 l0 -33 q0 -38 -16 -56 q-16 -19 -68 -51 q-136 -83 -136 -197 q0 -86 67 -130 q66 -45 159 -45 q107 0 177 60 q69 60 70 157 l-93 0 ZM408 423 l0 115 l-115 0 l0 -115 l115 0 Z" /><glyph glyph-name="" unicode="À" d="M374 725 l-102 0 l-238 -725 l102 0 l48 155 l277 0 l49 -155 l102 0 l-238 725 ZM323 598 l110 -354 l-221 0 l111 354 ZM285 761 l90 0 l-109 113 l-129 0 l148 -113 Z" /><glyph glyph-name="" unicode="Á" d="M374 725 l-102 0 l-238 -725 l102 0 l48 155 l277 0 l49 -155 l102 0 l-238 725 ZM323 598 l110 -354 l-221 0 l111 354 ZM510 874 l-129 0 l-109 -113 l90 0 l148 113 Z" /><glyph glyph-name="" unicode="Â" d="M374 725 l-102 0 l-238 -725 l102 0 l48 155 l277 0 l49 -155 l102 0 l-238 725 ZM323 598 l110 -354 l-221 0 l111 354 ZM366 874 l-84 0 l-134 -113 l106 0 l69 56 l69 -56 l106 0 l-132 113 Z" /><glyph glyph-name="" unicode="Ã" d="M374 725 l-102 0 l-238 -725 l102 0 l48 155 l277 0 l49 -155 l102 0 l-238 725 ZM323 598 l110 -354 l-221 0 l111 354 ZM389 828 q-21 0 -62 24 q-41 23 -73 23 q-45 0 -75 -28 q-31 -28 -40 -84 l71 0 q5 44 45 44 q19 0 62 -23 q42 -24 74 -24 q44 0 76 28 q31 27 40 85 l-71 0 q-6 -45 -47 -45 l0 0 Z" /><glyph glyph-name="" unicode="Ä" d="M374 725 l-102 0 l-238 -725 l102 0 l48 155 l277 0 l49 -155 l102 0 l-238 725 ZM323 598 l110 -354 l-221 0 l111 354 ZM163 868 l0 -99 l91 0 l0 99 l-91 0 ZM392 868 l0 -99 l91 0 l0 99 l-91 0 Z" /><glyph glyph-name="" unicode="Å" d="M374 725 l-102 0 l-238 -725 l102 0 l48 155 l277 0 l49 -155 l102 0 l-238 725 ZM323 598 l110 -354 l-221 0 l111 354 ZM323 921 q-38 0 -64 -24 q-27 -24 -27 -61 q0 -36 27 -60 q26 -25 64 -25 q39 0 65 24 q26 24 26 61 q0 37 -26 61 q-27 24 -65 24 l0 0 ZM323 879 q18 0 31 -12 q12 -13 12 -31 q0 -18 -12 -30 q-13 -12 -31 -12 q-17 0 -30 12 q-14 12 -14 30 q0 18 14 31 q13 12 30 12 l0 0 Z" /><glyph glyph-name="" unicode="Æ" d="M300 725 l-290 -725 l102 0 l57 155 l131 0 l0 -155 l302 0 l0 90 l-207 0 l0 239 l187 0 l0 90 l-187 0 l0 216 l207 0 l0 90 l-302 0 ZM300 505 l0 -261 l-98 0 l98 261 Z" /><glyph glyph-name="" unicode="Ç" d="M227 -176 q39 -19 93 -19 q42 0 75 23 q33 22 33 59 q0 31 -20 50 q-20 18 -56 18 q-15 0 -30 -3 l22 36 q93 5 155 67 q61 61 79 170 l-95 0 q-10 -69 -47 -109 q-38 -41 -104 -41 q-82 0 -125 77 q-43 76 -43 212 q0 138 44 212 q43 74 122 74 q65 0 102 -43 q37 -44 47 -112 l97 0 q-18 111 -84 178 q-66 66 -159 66 q-127 0 -197 -101 q-70 -102 -70 -274 q0 -160 57 -260 q57 -101 169 -115 l-42 -69 l30 -17 q13 9 38 9 q44 0 44 -30 q0 -32 -61 -32 q-28 0 -58 14 l-16 -40 Z" /><glyph glyph-name="" unicode="È" d="M112 0 l432 0 l0 90 l-337 0 l0 239 l317 0 l0 90 l-317 0 l0 216 l337 0 l0 90 l-432 0 l0 -725 ZM322 761 l90 0 l-109 113 l-129 0 l148 -113 Z" /><glyph glyph-name="" unicode="É" d="M112 0 l432 0 l0 90 l-337 0 l0 239 l317 0 l0 90 l-317 0 l0 216 l337 0 l0 90 l-432 0 l0 -725 ZM506 874 l-129 0 l-109 -113 l90 0 l148 113 Z" /><glyph glyph-name="" unicode="Ê" d="M112 0 l432 0 l0 90 l-337 0 l0 239 l317 0 l0 90 l-317 0 l0 216 l337 0 l0 90 l-432 0 l0 -725 ZM374 874 l-84 0 l-134 -113 l106 0 l69 56 l69 -56 l106 0 l-132 113 Z" /><glyph glyph-name="" unicode="Ë" d="M112 0 l432 0 l0 90 l-337 0 l0 239 l317 0 l0 90 l-317 0 l0 216 l337 0 l0 90 l-432 0 l0 -725 ZM174 868 l0 -99 l91 0 l0 99 l-91 0 ZM403 868 l0 -99 l91 0 l0 99 l-91 0 Z" /><glyph glyph-name="" unicode="Ì" d="M92 635 l183 0 l0 -545 l-183 0 l0 -90 l461 0 l0 90 l-183 0 l0 545 l183 0 l0 90 l-461 0 l0 -90 ZM280 761 l90 0 l-109 113 l-129 0 l148 -113 Z" /><glyph glyph-name="" unicode="Í" d="M92 635 l183 0 l0 -545 l-183 0 l0 -90 l461 0 l0 90 l-183 0 l0 545 l183 0 l0 90 l-461 0 l0 -90 ZM514 874 l-129 0 l-109 -113 l90 0 l148 113 Z" /><glyph glyph-name="" unicode="Î" d="M92 635 l183 0 l0 -545 l-183 0 l0 -90 l461 0 l0 90 l-183 0 l0 545 l183 0 l0 90 l-461 0 l0 -90 ZM366 874 l-84 0 l-134 -113 l106 0 l69 56 l69 -56 l106 0 l-132 113 Z" /><glyph glyph-name="" unicode="Ï" d="M92 635 l183 0 l0 -545 l-183 0 l0 -90 l461 0 l0 90 l-183 0 l0 545 l183 0 l0 90 l-461 0 l0 -90 ZM163 868 l0 -99 l91 0 l0 99 l-91 0 ZM392 868 l0 -99 l91 0 l0 99 l-91 0 Z" /><glyph glyph-name="" unicode="Ð" d="M105 725 l0 -312 l-62 0 l0 -90 l62 0 l0 -323 l124 0 q81 0 146 19 q64 18 117 59 q52 40 81 113 q28 72 28 172 q0 362 -372 362 l-124 0 ZM504 363 q0 -71 -16 -122 q-17 -52 -42 -80 q-25 -29 -64 -45 q-40 -17 -74 -21 q-35 -5 -82 -5 l-26 0 l0 233 l168 0 l0 90 l-168 0 l0 222 l26 0 q47 0 82 -4 q34 -5 74 -21 q39 -16 64 -44 q25 -29 42 -80 q16 -52 16 -123 l0 0 Z" /><glyph glyph-name="" unicode="Ñ" d="M557 0 l0 725 l-95 0 l0 -617 l-232 617 l-142 0 l0 -725 l95 0 l0 619 l232 -619 l142 0 ZM386 828 q-20 0 -61 24 q-41 23 -74 23 q-45 0 -75 -28 q-31 -28 -40 -84 l71 0 q5 44 45 44 q19 0 62 -23 q42 -24 74 -24 q44 0 76 28 q31 27 40 85 l-71 0 q-6 -45 -47 -45 l0 0 Z" /><glyph glyph-name="" unicode="Ò" d="M323 738 q-132 0 -201 -102 q-70 -103 -70 -273 q0 -170 70 -273 q69 -103 201 -103 q132 0 202 103 q69 103 69 273 q0 170 -69 273 q-70 102 -202 102 l0 0 ZM323 650 q173 0 173 -287 q0 -288 -173 -288 q-173 0 -173 288 q0 287 173 287 l0 0 ZM303 761 l90 0 l-109 113 l-129 0 l148 -113 Z" /><glyph glyph-name="" unicode="Ó" d="M323 738 q-132 0 -201 -102 q-70 -103 -70 -273 q0 -170 70 -273 q69 -103 201 -103 q132 0 202 103 q69 103 69 273 q0 170 -69 273 q-70 102 -202 102 l0 0 ZM323 650 q173 0 173 -287 q0 -288 -173 -288 q-173 0 -173 288 q0 287 173 287 l0 0 ZM505 874 l-129 0 l-109 -113 l90 0 l148 113 Z" /><glyph glyph-name="" unicode="Ô" d="M323 738 q-132 0 -201 -102 q-70 -103 -70 -273 q0 -170 70 -273 q69 -103 201 -103 q132 0 202 103 q69 103 69 273 q0 170 -69 273 q-70 102 -202 102 l0 0 ZM323 650 q173 0 173 -287 q0 -288 -173 -288 q-173 0 -173 288 q0 287 173 287 l0 0 ZM366 874 l-84 0 l-134 -113 l106 0 l69 56 l69 -56 l106 0 l-132 113 Z" /><glyph glyph-name="" unicode="Õ" d="M323 738 q-132 0 -201 -102 q-70 -103 -70 -273 q0 -170 70 -273 q69 -103 201 -103 q132 0 202 103 q69 103 69 273 q0 170 -69 273 q-70 102 -202 102 l0 0 ZM323 650 q173 0 173 -287 q0 -288 -173 -288 q-173 0 -173 288 q0 287 173 287 l0 0 ZM389 828 q-21 0 -62 24 q-41 23 -73 23 q-45 0 -75 -28 q-31 -28 -40 -84 l71 0 q5 44 45 44 q19 0 62 -23 q42 -24 74 -24 q44 0 76 28 q31 27 40 85 l-71 0 q-6 -45 -47 -45 l0 0 Z" /><glyph glyph-name="" unicode="Ö" d="M323 738 q-132 0 -201 -102 q-70 -103 -70 -273 q0 -170 70 -273 q69 -103 201 -103 q132 0 202 103 q69 103 69 273 q0 170 -69 273 q-70 102 -202 102 l0 0 ZM323 650 q173 0 173 -287 q0 -288 -173 -288 q-173 0 -173 288 q0 287 173 287 l0 0 ZM163 868 l0 -99 l91 0 l0 99 l-91 0 ZM392 868 l0 -99 l91 0 l0 99 l-91 0 Z" /><glyph glyph-name="" unicode="×" d="M558 95 l-174 173 l168 168 l-64 64 l-168 -166 l-168 166 l-64 -64 l167 -168 l-167 -168 l64 -64 l168 167 l173 -173 l65 65 Z" /><glyph glyph-name="" unicode="Ø" d="M323 738 q-132 0 -201 -102 q-70 -103 -70 -273 q0 -164 63 -263 l-56 -83 l44 -30 l47 69 q67 -69 173 -69 q132 0 202 103 q69 103 69 273 q0 158 -60 257 l60 87 l-44 31 l-50 -73 q-70 73 -177 73 l0 0 ZM323 650 q81 0 124 -64 l-272 -399 q-25 68 -25 176 q0 287 173 287 l0 0 ZM496 363 q0 -288 -173 -288 q-77 0 -120 58 l271 398 q22 -66 22 -168 l0 0 Z" /><glyph glyph-name="" unicode="Ù" d="M79 725 l0 -430 q0 -170 54 -239 q54 -69 189 -69 q137 0 191 76 q54 75 54 240 l0 422 l-95 0 l0 -430 q0 -116 -30 -168 q-31 -52 -120 -52 q-88 0 -118 48 q-30 48 -30 161 l0 441 l-95 0 ZM290 761 l90 0 l-109 113 l-129 0 l148 -113 Z" /><glyph glyph-name="" unicode="Ú" d="M79 725 l0 -430 q0 -170 54 -239 q54 -69 189 -69 q137 0 191 76 q54 75 54 240 l0 422 l-95 0 l0 -430 q0 -116 -30 -168 q-31 -52 -120 -52 q-88 0 -118 48 q-30 48 -30 161 l0 441 l-95 0 ZM497 874 l-129 0 l-109 -113 l90 0 l148 113 Z" /><glyph glyph-name="" unicode="Û" d="M79 725 l0 -430 q0 -170 54 -239 q54 -69 189 -69 q137 0 191 76 q54 75 54 240 l0 422 l-95 0 l0 -430 q0 -116 -30 -168 q-31 -52 -120 -52 q-88 0 -118 48 q-30 48 -30 161 l0 441 l-95 0 ZM366 874 l-84 0 l-134 -113 l106 0 l69 56 l69 -56 l106 0 l-132 113 Z" /><glyph glyph-name="" unicode="Ü" d="M79 725 l0 -430 q0 -170 54 -239 q54 -69 189 -69 q137 0 191 76 q54 75 54 240 l0 422 l-95 0 l0 -430 q0 -116 -30 -168 q-31 -52 -120 -52 q-88 0 -118 48 q-30 48 -30 161 l0 441 l-95 0 ZM163 868 l0 -99 l91 0 l0 99 l-91 0 ZM392 868 l0 -99 l91 0 l0 99 l-91 0 Z" /><glyph glyph-name="" unicode="Ý" d="M323 370 l-187 355 l-111 0 l250 -453 l0 -272 l95 0 l0 272 l250 453 l-111 0 l-186 -355 ZM509 874 l-129 0 l-109 -113 l90 0 l148 113 Z" /><glyph glyph-name="" unicode="Þ" d="M122 725 l0 -725 l94 0 l0 147 l83 0 q132 0 207 51 q74 50 74 176 q0 126 -74 177 q-75 50 -207 50 l-83 0 l0 124 l-94 0 ZM311 511 q84 0 128 -28 q43 -28 43 -109 q0 -81 -43 -108 q-44 -28 -128 -28 l-95 0 l0 273 l95 0 Z" /><glyph glyph-name="" unicode="ß" d="M171 0 l0 488 q0 89 33 130 q33 41 109 41 q57 0 87 -28 q30 -29 30 -78 q0 -53 -43 -81 q-44 -29 -125 -29 l-2 0 l0 -82 l3 0 q95 0 150 -36 q54 -37 54 -113 q0 -140 -147 -140 q-55 0 -94 13 l-19 -87 q52 -11 109 -11 q110 0 179 54 q69 54 69 172 q0 80 -41 130 q-41 49 -109 66 q108 47 108 157 q0 79 -56 126 q-57 46 -151 46 q-235 0 -235 -245 l0 -493 l91 0 Z" /><glyph glyph-name="" unicode="à" d="M269 -13 q135 0 189 92 l1 -79 l88 0 q-8 98 -7 203 l1 131 q2 112 -48 164 q-51 51 -163 51 q-88 0 -152 -48 q-65 -49 -71 -133 l94 0 q10 107 128 107 q121 0 121 -121 l0 -23 q-89 -10 -149 -22 q-61 -13 -110 -34 q-50 -22 -73 -55 q-24 -33 -24 -80 q0 -71 50 -112 q50 -41 125 -41 l0 0 ZM457 243 q0 -99 -45 -140 q-46 -42 -117 -42 q-49 0 -75 22 q-27 21 -27 59 q0 54 64 79 q64 24 200 37 l0 -15 ZM303 609 l77 0 l-91 116 l-116 0 l130 -116 Z" /><glyph glyph-name="" unicode="á" d="M269 -13 q135 0 189 92 l1 -79 l88 0 q-8 98 -7 203 l1 131 q2 112 -48 164 q-51 51 -163 51 q-88 0 -152 -48 q-65 -49 -71 -133 l94 0 q10 107 128 107 q121 0 121 -121 l0 -23 q-89 -10 -149 -22 q-61 -13 -110 -34 q-50 -22 -73 -55 q-24 -33 -24 -80 q0 -71 50 -112 q50 -41 125 -41 l0 0 ZM457 243 q0 -99 -45 -140 q-46 -42 -117 -42 q-49 0 -75 22 q-27 21 -27 59 q0 54 64 79 q64 24 200 37 l0 -15 ZM488 725 l-117 0 l-90 -116 l76 0 l131 116 Z" /><glyph glyph-name="" unicode="â" d="M269 -13 q135 0 189 92 l1 -79 l88 0 q-8 98 -7 203 l1 131 q2 112 -48 164 q-51 51 -163 51 q-88 0 -152 -48 q-65 -49 -71 -133 l94 0 q10 107 128 107 q121 0 121 -121 l0 -23 q-89 -10 -149 -22 q-61 -13 -110 -34 q-50 -22 -73 -55 q-24 -33 -24 -80 q0 -71 50 -112 q50 -41 125 -41 l0 0 ZM457 243 q0 -99 -45 -140 q-46 -42 -117 -42 q-49 0 -75 22 q-27 21 -27 59 q0 54 64 79 q64 24 200 37 l0 -15 ZM371 725 l-88 0 l-132 -116 l95 0 l80 54 l78 -54 l96 0 l-129 116 Z" /><glyph glyph-name="" unicode="ã" d="M269 -13 q135 0 189 92 l1 -79 l88 0 q-8 98 -7 203 l1 131 q2 112 -48 164 q-51 51 -163 51 q-88 0 -152 -48 q-65 -49 -71 -133 l94 0 q10 107 128 107 q121 0 121 -121 l0 -23 q-89 -10 -149 -22 q-61 -13 -110 -34 q-50 -22 -73 -55 q-24 -33 -24 -80 q0 -71 50 -112 q50 -41 125 -41 l0 0 ZM457 243 q0 -99 -45 -140 q-46 -42 -117 -42 q-49 0 -75 22 q-27 21 -27 59 q0 54 64 79 q64 24 200 37 l0 -15 ZM392 673 q-20 0 -61 24 q-41 23 -73 23 q-45 0 -75 -28 q-31 -28 -40 -84 l71 0 q5 44 45 44 q19 0 61 -23 q42 -24 74 -24 q44 0 76 28 q32 27 41 85 l-71 0 q-6 -45 -48 -45 l0 0 Z" /><glyph glyph-name="" unicode="ä" d="M269 -13 q135 0 189 92 l1 -79 l88 0 q-8 98 -7 203 l1 131 q2 112 -48 164 q-51 51 -163 51 q-88 0 -152 -48 q-65 -49 -71 -133 l94 0 q10 107 128 107 q121 0 121 -121 l0 -23 q-89 -10 -149 -22 q-61 -13 -110 -34 q-50 -22 -73 -55 q-24 -33 -24 -80 q0 -71 50 -112 q50 -41 125 -41 l0 0 ZM457 243 q0 -99 -45 -140 q-46 -42 -117 -42 q-49 0 -75 22 q-27 21 -27 59 q0 54 64 79 q64 24 200 37 l0 -15 ZM166 609 l91 0 l0 99 l-91 0 l0 -99 ZM395 708 l0 -99 l91 0 l0 99 l-91 0 Z" /><glyph glyph-name="" unicode="å" d="M269 -13 q135 0 189 92 l1 -79 l88 0 q-8 98 -7 203 l1 131 q2 112 -48 164 q-51 51 -163 51 q-88 0 -152 -48 q-65 -49 -71 -133 l94 0 q10 107 128 107 q121 0 121 -121 l0 -23 q-89 -10 -149 -22 q-61 -13 -110 -34 q-50 -22 -73 -55 q-24 -33 -24 -80 q0 -71 50 -112 q50 -41 125 -41 l0 0 ZM457 243 q0 -99 -45 -140 q-46 -42 -117 -42 q-49 0 -75 22 q-27 21 -27 59 q0 54 64 79 q64 24 200 37 l0 -15 ZM326 760 q-37 0 -63 -24 q-27 -25 -27 -61 q0 -37 26 -61 q26 -24 64 -24 q39 0 65 24 q26 24 26 61 q0 36 -26 61 q-27 24 -65 24 l0 0 ZM326 718 q17 0 30 -12 q13 -13 13 -31 q0 -18 -12 -30 q-13 -12 -31 -12 q-17 0 -30 12 q-13 12 -13 30 q0 18 13 31 q13 12 30 12 l0 0 Z" /><glyph glyph-name="" unicode="æ" d="M445 -13 q70 0 115 45 q45 45 56 124 l-86 0 q-8 -53 -28 -75 q-20 -22 -59 -22 q-43 0 -68 49 q-26 49 -25 127 l273 0 q5 143 -41 227 q-47 84 -137 84 q-76 0 -125 -69 q-32 70 -126 70 q-67 0 -114 -45 q-47 -46 -51 -124 l85 0 q3 47 20 71 q16 24 54 24 q37 0 53 -23 q16 -23 16 -86 l0 -35 l-53 -8 q-186 -30 -186 -178 q0 -63 35 -109 q35 -47 97 -47 q102 0 146 96 q47 -96 149 -96 l0 0 ZM350 310 q2 76 26 118 q24 42 69 42 q46 0 69 -45 q22 -45 21 -115 l-185 0 ZM262 228 q0 -86 -26 -127 q-26 -41 -67 -41 q-32 0 -48 26 q-16 25 -16 64 q0 86 98 100 l59 8 l0 -9 l0 -21 Z" /><glyph glyph-name="" unicode="ç" d="M237 -176 q39 -19 93 -19 q42 0 75 23 q33 22 33 59 q0 31 -20 50 q-20 18 -56 18 q-15 0 -30 -3 l23 37 q79 9 135 60 q55 51 65 124 l-95 0 q-10 -47 -44 -79 q-35 -32 -87 -32 q-63 0 -104 53 q-42 53 -42 152 q0 97 42 151 q41 53 104 53 q49 0 84 -31 q34 -31 43 -81 l93 0 q-6 76 -66 132 q-60 56 -150 56 q-113 0 -180 -78 q-67 -79 -67 -202 q0 -119 58 -195 q57 -76 158 -84 l-42 -68 l30 -17 q13 9 38 9 q44 0 44 -30 q0 -32 -61 -32 q-28 0 -58 14 l-16 -40 Z" /><glyph glyph-name="" unicode="è" d="M326 -13 q92 0 154 48 q61 48 78 126 l-95 0 q-31 -99 -139 -99 q-64 0 -104 50 q-41 49 -41 129 l387 0 q5 144 -58 226 q-64 81 -182 81 q-108 0 -176 -76 q-68 -77 -68 -205 q0 -125 63 -202 q63 -78 181 -78 l0 0 ZM326 472 q68 0 106 -43 q37 -44 36 -112 l-288 0 q3 77 41 116 q38 39 105 39 l0 0 ZM294 609 l77 0 l-91 116 l-116 0 l130 -116 Z" /><glyph glyph-name="" unicode="é" d="M326 -13 q92 0 154 48 q61 48 78 126 l-95 0 q-31 -99 -139 -99 q-64 0 -104 50 q-41 49 -41 129 l387 0 q5 144 -58 226 q-64 81 -182 81 q-108 0 -176 -76 q-68 -77 -68 -205 q0 -125 63 -202 q63 -78 181 -78 l0 0 ZM326 472 q68 0 106 -43 q37 -44 36 -112 l-288 0 q3 77 41 116 q38 39 105 39 l0 0 ZM488 725 l-117 0 l-90 -116 l76 0 l131 116 Z" /><glyph glyph-name="" unicode="ê" d="M326 -13 q92 0 154 48 q61 48 78 126 l-95 0 q-31 -99 -139 -99 q-64 0 -104 50 q-41 49 -41 129 l387 0 q5 144 -58 226 q-64 81 -182 81 q-108 0 -176 -76 q-68 -77 -68 -205 q0 -125 63 -202 q63 -78 181 -78 l0 0 ZM326 472 q68 0 106 -43 q37 -44 36 -112 l-288 0 q3 77 41 116 q38 39 105 39 l0 0 ZM368 725 l-88 0 l-132 -116 l95 0 l80 54 l78 -54 l96 0 l-129 116 Z" /><glyph glyph-name="" unicode="ë" d="M326 -13 q92 0 154 48 q61 48 78 126 l-95 0 q-31 -99 -139 -99 q-64 0 -104 50 q-41 49 -41 129 l387 0 q5 144 -58 226 q-64 81 -182 81 q-108 0 -176 -76 q-68 -77 -68 -205 q0 -125 63 -202 q63 -78 181 -78 l0 0 ZM326 472 q68 0 106 -43 q37 -44 36 -112 l-288 0 q3 77 41 116 q38 39 105 39 l0 0 ZM166 609 l91 0 l0 99 l-91 0 l0 -99 ZM395 708 l0 -99 l91 0 l0 99 l-91 0 Z" /><glyph glyph-name="" unicode="ì" d="M134 538 l0 -79 l152 0 l0 -380 l-152 0 l0 -79 l397 0 l0 79 l-153 0 l0 459 l-244 0 ZM302 609 l77 0 l-91 116 l-116 0 l130 -116 Z" /><glyph glyph-name="" unicode="í" d="M134 538 l0 -79 l152 0 l0 -380 l-152 0 l0 -79 l397 0 l0 79 l-153 0 l0 459 l-244 0 ZM492 725 l-117 0 l-90 -116 l76 0 l131 116 Z" /><glyph glyph-name="" unicode="î" d="M134 538 l0 -79 l152 0 l0 -380 l-152 0 l0 -79 l397 0 l0 79 l-153 0 l0 459 l-244 0 ZM376 725 l-88 0 l-132 -116 l95 0 l80 54 l78 -54 l96 0 l-129 116 Z" /><glyph glyph-name="" unicode="ï" d="M134 538 l0 -79 l152 0 l0 -380 l-152 0 l0 -79 l397 0 l0 79 l-153 0 l0 459 l-244 0 ZM171 609 l91 0 l0 99 l-91 0 l0 -99 ZM400 708 l0 -99 l91 0 l0 99 l-91 0 Z" /><glyph glyph-name="" unicode="ð" d="M361 687 q-41 27 -91 51 l-66 -59 q54 -26 80 -40 l-79 -49 l45 -24 l76 47 q96 -65 135 -154 l-1 -1 q-55 78 -154 78 q-102 0 -166 -73 q-64 -74 -64 -200 q0 -130 65 -203 q64 -73 177 -73 q116 0 184 82 q68 82 68 242 q0 216 -169 348 l75 46 l-46 25 l-69 -43 ZM319 67 q-72 0 -109 51 q-37 51 -37 145 q0 92 38 143 q37 51 108 51 q67 0 110 -48 q42 -49 42 -146 q0 -98 -42 -147 q-42 -49 -110 -49 l0 0 Z" /><glyph glyph-name="" unicode="ñ" d="M206 538 l-92 0 l0 -538 l92 0 l0 292 q0 86 33 132 q33 45 95 45 q29 0 50 -8 q20 -9 31 -22 q11 -13 17 -36 q6 -23 8 -42 q1 -20 1 -51 l0 -310 l92 0 l0 342 q0 97 -38 151 q-39 54 -131 54 q-108 0 -158 -85 l0 76 ZM390 673 q-20 0 -61 24 q-41 23 -73 23 q-45 0 -75 -28 q-31 -28 -40 -84 l71 0 q5 44 45 44 q19 0 61 -23 q42 -24 74 -24 q44 0 76 28 q32 27 41 85 l-71 0 q-6 -45 -48 -45 l0 0 Z" /><glyph glyph-name="" unicode="ò" d="M171 267 q0 102 43 153 q43 50 109 50 q66 0 109 -50 q43 -51 43 -153 q0 -102 -43 -152 q-43 -51 -109 -51 q-66 0 -109 51 q-43 50 -43 152 l0 0 ZM74 267 q0 -137 74 -208 q73 -72 175 -72 q102 0 176 72 q73 71 73 208 q0 137 -73 209 q-74 71 -176 71 q-102 0 -175 -71 q-74 -72 -74 -209 l0 0 ZM295 609 l77 0 l-91 116 l-116 0 l130 -116 Z" /><glyph glyph-name="" unicode="ó" d="M171 267 q0 102 43 153 q43 50 109 50 q66 0 109 -50 q43 -51 43 -153 q0 -102 -43 -152 q-43 -51 -109 -51 q-66 0 -109 51 q-43 50 -43 152 l0 0 ZM74 267 q0 -137 74 -208 q73 -72 175 -72 q102 0 176 72 q73 71 73 208 q0 137 -73 209 q-74 71 -176 71 q-102 0 -175 -71 q-74 -72 -74 -209 l0 0 ZM486 725 l-117 0 l-90 -116 l76 0 l131 116 Z" /><glyph glyph-name="" unicode="ô" d="M171 267 q0 102 43 153 q43 50 109 50 q66 0 109 -50 q43 -51 43 -153 q0 -102 -43 -152 q-43 -51 -109 -51 q-66 0 -109 51 q-43 50 -43 152 l0 0 ZM74 267 q0 -137 74 -208 q73 -72 175 -72 q102 0 176 72 q73 71 73 208 q0 137 -73 209 q-74 71 -176 71 q-102 0 -175 -71 q-74 -72 -74 -209 l0 0 ZM367 725 l-88 0 l-132 -116 l95 0 l80 54 l78 -54 l96 0 l-129 116 Z" /><glyph glyph-name="" unicode="õ" d="M171 267 q0 102 43 153 q43 50 109 50 q66 0 109 -50 q43 -51 43 -153 q0 -102 -43 -152 q-43 -51 -109 -51 q-66 0 -109 51 q-43 50 -43 152 l0 0 ZM74 267 q0 -137 74 -208 q73 -72 175 -72 q102 0 176 72 q73 71 73 208 q0 137 -73 209 q-74 71 -176 71 q-102 0 -175 -71 q-74 -72 -74 -209 l0 0 ZM388 673 q-20 0 -61 24 q-41 23 -73 23 q-45 0 -75 -28 q-31 -28 -40 -84 l71 0 q5 44 45 44 q19 0 61 -23 q42 -24 74 -24 q44 0 76 28 q32 27 41 85 l-71 0 q-6 -45 -48 -45 l0 0 Z" /><glyph glyph-name="" unicode="ö" d="M171 267 q0 102 43 153 q43 50 109 50 q66 0 109 -50 q43 -51 43 -153 q0 -102 -43 -152 q-43 -51 -109 -51 q-66 0 -109 51 q-43 50 -43 152 l0 0 ZM74 267 q0 -137 74 -208 q73 -72 175 -72 q102 0 176 72 q73 71 73 208 q0 137 -73 209 q-74 71 -176 71 q-102 0 -175 -71 q-74 -72 -74 -209 l0 0 ZM163 609 l91 0 l0 99 l-91 0 l0 -99 ZM392 708 l0 -99 l91 0 l0 99 l-91 0 Z" /><glyph glyph-name="" unicode="÷" d="M267 43 l115 0 l0 115 l-115 0 l0 -115 ZM267 380 l115 0 l0 115 l-115 0 l0 -115 ZM584 226 l0 86 l-522 0 l0 -86 l522 0 Z" /><glyph glyph-name="" unicode="ø" d="M74 267 q0 -114 55 -187 l-50 -57 l40 -36 l47 54 q66 -54 157 -54 q102 0 176 72 q73 71 73 208 q0 108 -51 182 l46 53 l-40 35 l-43 -49 q-66 59 -161 59 q-102 0 -175 -71 q-74 -72 -74 -209 l0 0 ZM171 267 q0 102 43 153 q43 50 109 50 q65 0 105 -46 l-237 -272 q-20 46 -20 115 l0 0 ZM475 267 q0 -102 -43 -152 q-43 -51 -109 -51 q-61 0 -101 41 l235 270 q18 -47 18 -108 l0 0 Z" /><glyph glyph-name="" unicode="ù" d="M439 0 l92 0 l0 538 l-92 0 l0 -296 q0 -86 -33 -131 q-33 -45 -95 -45 q-29 0 -49 9 q-20 8 -31 21 q-11 12 -16 35 q-6 23 -7 43 q-2 19 -2 50 l0 314 l-92 0 l0 -346 q0 -98 38 -151 q37 -54 129 -54 q106 0 158 82 l0 -69 ZM297 609 l77 0 l-91 116 l-116 0 l130 -116 Z" /><glyph glyph-name="" unicode="ú" d="M439 0 l92 0 l0 538 l-92 0 l0 -296 q0 -86 -33 -131 q-33 -45 -95 -45 q-29 0 -49 9 q-20 8 -31 21 q-11 12 -16 35 q-6 23 -7 43 q-2 19 -2 50 l0 314 l-92 0 l0 -346 q0 -98 38 -151 q37 -54 129 -54 q106 0 158 82 l0 -69 ZM482 725 l-117 0 l-90 -116 l76 0 l131 116 Z" /><glyph glyph-name="" unicode="û" d="M439 0 l92 0 l0 538 l-92 0 l0 -296 q0 -86 -33 -131 q-33 -45 -95 -45 q-29 0 -49 9 q-20 8 -31 21 q-11 12 -16 35 q-6 23 -7 43 q-2 19 -2 50 l0 314 l-92 0 l0 -346 q0 -98 38 -151 q37 -54 129 -54 q106 0 158 82 l0 -69 ZM368 725 l-88 0 l-132 -116 l95 0 l80 54 l78 -54 l96 0 l-129 116 Z" /><glyph glyph-name="" unicode="ü" d="M439 0 l92 0 l0 538 l-92 0 l0 -296 q0 -86 -33 -131 q-33 -45 -95 -45 q-29 0 -49 9 q-20 8 -31 21 q-11 12 -16 35 q-6 23 -7 43 q-2 19 -2 50 l0 314 l-92 0 l0 -346 q0 -98 38 -151 q37 -54 129 -54 q106 0 158 82 l0 -69 ZM163 609 l91 0 l0 99 l-91 0 l0 -99 ZM392 708 l0 -99 l91 0 l0 99 l-91 0 Z" /><glyph glyph-name="" unicode="ý" d="M183 -175 q81 0 116 33 q35 33 66 119 l199 561 l-95 0 l-143 -415 l-146 415 l-101 0 l201 -538 l-4 -12 q-20 -55 -39 -69 q-19 -15 -63 -15 l-97 0 l0 -79 l106 0 ZM487 725 l-117 0 l-90 -116 l76 0 l131 116 Z" /><glyph glyph-name="" unicode="þ" d="M201 725 l-91 0 l0 -900 l91 0 l0 251 q52 -89 159 -89 q96 0 157 75 q61 75 61 205 q0 130 -61 205 q-61 75 -157 75 q-107 0 -159 -90 l0 268 ZM197 267 q0 101 41 152 q41 51 103 51 q68 0 104 -53 q35 -53 35 -150 q0 -97 -35 -150 q-36 -54 -104 -54 q-62 0 -103 52 q-41 51 -41 152 l0 0 Z" /><glyph glyph-name="" unicode="ÿ" d="M183 -175 q81 0 116 33 q35 33 66 119 l199 561 l-95 0 l-143 -415 l-146 415 l-101 0 l201 -538 l-4 -12 q-20 -55 -39 -69 q-19 -15 -63 -15 l-97 0 l0 -79 l106 0 ZM163 609 l91 0 l0 99 l-91 0 l0 -99 ZM392 708 l0 -99 l91 0 l0 99 l-91 0 Z" /><glyph glyph-name="" unicode="&#x100;" d="M374 725 l-102 0 l-238 -725 l102 0 l48 155 l277 0 l49 -155 l102 0 l-238 725 ZM323 598 l110 -354 l-221 0 l111 354 ZM473 779 l0 76 l-300 0 l0 -76 l300 0 Z" /><glyph glyph-name="" unicode="&#x101;" d="M269 -13 q135 0 189 92 l1 -79 l88 0 q-8 98 -7 203 l1 131 q2 112 -48 164 q-51 51 -163 51 q-88 0 -152 -48 q-65 -49 -71 -133 l94 0 q10 107 128 107 q121 0 121 -121 l0 -23 q-89 -10 -149 -22 q-61 -13 -110 -34 q-50 -22 -73 -55 q-24 -33 -24 -80 q0 -71 50 -112 q50 -41 125 -41 l0 0 ZM457 243 q0 -99 -45 -140 q-46 -42 -117 -42 q-49 0 -75 22 q-27 21 -27 59 q0 54 64 79 q64 24 200 37 l0 -15 ZM477 623 l0 76 l-300 0 l0 -76 l300 0 Z" /><glyph glyph-name="" unicode="&#x102;" d="M374 725 l-102 0 l-238 -725 l102 0 l48 155 l277 0 l49 -155 l102 0 l-238 725 ZM323 598 l110 -354 l-221 0 l111 354 ZM403 874 q-9 -58 -80 -58 q-73 0 -81 58 l-77 0 q6 -54 46 -86 q39 -32 111 -32 q73 0 113 32 q39 31 46 86 l-78 0 Z" /><glyph glyph-name="" unicode="&#x103;" d="M269 -13 q135 0 189 92 l1 -79 l88 0 q-8 98 -7 203 l1 131 q2 112 -48 164 q-51 51 -163 51 q-88 0 -152 -48 q-65 -49 -71 -133 l94 0 q10 107 128 107 q121 0 121 -121 l0 -23 q-89 -10 -149 -22 q-61 -13 -110 -34 q-50 -22 -73 -55 q-24 -33 -24 -80 q0 -71 50 -112 q50 -41 125 -41 l0 0 ZM457 243 q0 -99 -45 -140 q-46 -42 -117 -42 q-49 0 -75 22 q-27 21 -27 59 q0 54 64 79 q64 24 200 37 l0 -15 ZM485 725 l-71 0 q-7 -72 -87 -72 q-82 0 -89 72 l-71 0 q5 -59 43 -95 q38 -37 116 -37 q146 0 159 132 l0 0 Z" /><glyph glyph-name="" unicode="&#x104;" d="M374 725 l-102 0 l-238 -725 l102 0 l48 155 l277 0 l49 -155 l-1 0 q-72 -38 -72 -95 q0 -46 40 -68 q40 -23 92 -23 q40 0 69 12 l0 61 q-20 -9 -49 -9 q-66 0 -66 40 q0 38 88 82 l1 0 l-238 725 ZM323 598 l110 -354 l-221 0 l111 354 Z" /><glyph glyph-name="" unicode="&#x105;" d="M269 -13 q135 0 189 92 l1 -79 l-1 0 q-91 -40 -91 -95 q0 -46 39 -68 q39 -23 90 -23 q40 0 69 12 l0 61 q-19 -9 -49 -9 q-66 0 -66 40 q0 38 88 82 l9 0 q-8 98 -7 203 l1 131 q2 112 -48 164 q-51 51 -163 51 q-88 0 -152 -48 q-65 -49 -71 -133 l94 0 q10 107 128 107 q121 0 121 -121 l0 -23 q-89 -10 -149 -22 q-61 -13 -110 -34 q-50 -22 -73 -55 q-24 -33 -24 -80 q0 -71 50 -112 q50 -41 125 -41 l0 0 ZM457 243 q0 -99 -45 -140 q-46 -42 -117 -42 q-49 0 -75 22 q-27 21 -27 59 q0 54 64 79 q64 24 200 37 l0 -15 Z" /><glyph glyph-name="" unicode="&#x106;" d="M483 225 q-10 -69 -47 -109 q-38 -41 -104 -41 q-82 0 -125 77 q-43 76 -43 212 q0 138 44 212 q43 74 122 74 q65 0 102 -43 q37 -44 47 -112 l97 0 q-18 111 -84 178 q-66 66 -159 66 q-127 0 -197 -101 q-70 -102 -70 -274 q0 -172 66 -274 q66 -103 194 -103 q100 0 167 62 q67 61 85 176 l-95 0 ZM505 874 l-129 0 l-109 -113 l90 0 l148 113 Z" /><glyph glyph-name="" unicode="&#x107;" d="M333 547 q-113 0 -180 -78 q-67 -79 -67 -202 q0 -125 64 -202 q64 -78 174 -78 q90 0 155 53 q65 52 76 133 l-95 0 q-10 -47 -44 -79 q-35 -32 -87 -32 q-63 0 -104 53 q-42 53 -42 152 q0 97 42 151 q41 53 104 53 q49 0 84 -31 q34 -31 43 -81 l93 0 q-6 76 -66 132 q-60 56 -150 56 l0 0 ZM484 725 l-117 0 l-90 -116 l76 0 l131 116 Z" /><glyph glyph-name="" unicode="&#x108;" d="M483 225 q-10 -69 -47 -109 q-38 -41 -104 -41 q-82 0 -125 77 q-43 76 -43 212 q0 138 44 212 q43 74 122 74 q65 0 102 -43 q37 -44 47 -112 l97 0 q-18 111 -84 178 q-66 66 -159 66 q-127 0 -197 -101 q-70 -102 -70 -274 q0 -172 66 -274 q66 -103 194 -103 q100 0 167 62 q67 61 85 176 l-95 0 ZM366 874 l-84 0 l-134 -113 l106 0 l69 56 l69 -56 l106 0 l-132 113 Z" /><glyph glyph-name="" unicode="&#x109;" d="M333 547 q-113 0 -180 -78 q-67 -79 -67 -202 q0 -125 64 -202 q64 -78 174 -78 q90 0 155 53 q65 52 76 133 l-95 0 q-10 -47 -44 -79 q-35 -32 -87 -32 q-63 0 -104 53 q-42 53 -42 152 q0 97 42 151 q41 53 104 53 q49 0 84 -31 q34 -31 43 -81 l93 0 q-6 76 -66 132 q-60 56 -150 56 l0 0 ZM378 725 l-88 0 l-132 -116 l95 0 l80 54 l78 -54 l96 0 l-129 116 Z" /><glyph glyph-name="" unicode="&#x10a;" d="M483 225 q-10 -69 -47 -109 q-38 -41 -104 -41 q-82 0 -125 77 q-43 76 -43 212 q0 138 44 212 q43 74 122 74 q65 0 102 -43 q37 -44 47 -112 l97 0 q-18 111 -84 178 q-66 66 -159 66 q-127 0 -197 -101 q-70 -102 -70 -274 q0 -172 66 -274 q66 -103 194 -103 q100 0 167 62 q67 61 85 176 l-95 0 ZM277 869 l0 -99 l91 0 l0 99 l-91 0 Z" /><glyph glyph-name="" unicode="&#x10b;" d="M333 547 q-113 0 -180 -78 q-67 -79 -67 -202 q0 -125 64 -202 q64 -78 174 -78 q90 0 155 53 q65 52 76 133 l-95 0 q-10 -47 -44 -79 q-35 -32 -87 -32 q-63 0 -104 53 q-42 53 -42 152 q0 97 42 151 q41 53 104 53 q49 0 84 -31 q34 -31 43 -81 l93 0 q-6 76 -66 132 q-60 56 -150 56 l0 0 ZM287 710 l0 -99 l91 0 l0 99 l-91 0 Z" /><glyph glyph-name="" unicode="&#x10c;" d="M483 225 q-10 -69 -47 -109 q-38 -41 -104 -41 q-82 0 -125 77 q-43 76 -43 212 q0 138 44 212 q43 74 122 74 q65 0 102 -43 q37 -44 47 -112 l97 0 q-18 111 -84 178 q-66 66 -159 66 q-127 0 -197 -101 q-70 -102 -70 -274 q0 -172 66 -274 q66 -103 194 -103 q100 0 167 62 q67 61 85 176 l-95 0 ZM280 761 l84 0 l134 113 l-106 0 l-69 -56 l-69 56 l-106 0 l132 -113 Z" /><glyph glyph-name="" unicode="&#x10d;" d="M333 547 q-113 0 -180 -78 q-67 -79 -67 -202 q0 -125 64 -202 q64 -78 174 -78 q90 0 155 53 q65 52 76 133 l-95 0 q-10 -47 -44 -79 q-35 -32 -87 -32 q-63 0 -104 53 q-42 53 -42 152 q0 97 42 151 q41 53 104 53 q49 0 84 -31 q34 -31 43 -81 l93 0 q-6 76 -66 132 q-60 56 -150 56 l0 0 ZM287 609 l88 0 l132 116 l-96 0 l-79 -53 l-79 53 l-95 0 l129 -116 Z" /><glyph glyph-name="" unicode="&#x10e;" d="M493 363 q0 -71 -16 -122 q-17 -52 -42 -80 q-25 -29 -64 -45 q-40 -17 -74 -21 q-35 -5 -82 -5 l-26 0 l0 545 l26 0 q47 0 82 -4 q34 -5 74 -21 q39 -16 64 -44 q25 -29 42 -80 q16 -52 16 -123 l0 0 ZM94 725 l0 -725 l124 0 q81 0 146 19 q64 18 117 59 q52 40 81 113 q28 72 28 172 q0 362 -372 362 l-124 0 ZM277 761 l84 0 l134 113 l-106 0 l-69 -56 l-69 56 l-106 0 l132 -113 Z" /><glyph glyph-name="" unicode="&#x10f;" d="M696 725 l-98 0 l-30 -170 l58 0 l70 170 ZM444 457 q-52 90 -159 90 q-95 0 -156 -75 q-61 -75 -61 -205 q0 -130 61 -205 q60 -75 156 -75 q107 0 159 89 l1 -76 l91 0 l0 725 l-92 0 l0 -268 ZM448 267 q0 -100 -41 -152 q-41 -52 -103 -52 q-68 0 -103 54 q-36 53 -36 150 q0 97 36 150 q35 53 103 53 q62 0 103 -51 q41 -51 41 -152 l0 0 Z" /><glyph glyph-name="" unicode="&#x110;" d="M105 725 l0 -312 l-62 0 l0 -90 l62 0 l0 -323 l124 0 q81 0 146 19 q64 18 117 59 q52 40 81 113 q28 72 28 172 q0 362 -372 362 l-124 0 ZM504 363 q0 -71 -16 -122 q-17 -52 -42 -80 q-25 -29 -64 -45 q-40 -17 -74 -21 q-35 -5 -82 -5 l-26 0 l0 233 l168 0 l0 90 l-168 0 l0 222 l26 0 q47 0 82 -4 q34 -5 74 -21 q39 -16 64 -44 q25 -29 42 -80 q16 -52 16 -123 l0 0 Z" /><glyph glyph-name="" unicode="&#x111;" d="M444 643 l-127 0 l0 -75 l127 0 l0 -111 q-52 90 -159 90 q-95 0 -156 -75 q-61 -75 -61 -205 q0 -130 61 -205 q60 -75 156 -75 q107 0 159 89 l1 -76 l91 0 l0 568 l81 0 l0 75 l-81 0 l0 82 l-92 0 l0 -82 ZM448 267 q0 -100 -41 -152 q-41 -52 -103 -52 q-68 0 -103 54 q-36 53 -36 150 q0 97 36 150 q35 53 103 53 q62 0 103 -51 q41 -51 41 -152 l0 0 Z" /><glyph glyph-name="" unicode="&#x112;" d="M112 0 l432 0 l0 90 l-337 0 l0 239 l317 0 l0 90 l-317 0 l0 216 l337 0 l0 90 l-432 0 l0 -725 ZM485 779 l0 76 l-300 0 l0 -76 l300 0 Z" /><glyph glyph-name="" unicode="&#x113;" d="M326 -13 q92 0 154 48 q61 48 78 126 l-95 0 q-31 -99 -139 -99 q-64 0 -104 50 q-41 49 -41 129 l387 0 q5 144 -58 226 q-64 81 -182 81 q-108 0 -176 -76 q-68 -77 -68 -205 q0 -125 63 -202 q63 -78 181 -78 l0 0 ZM326 472 q68 0 106 -43 q37 -44 36 -112 l-288 0 q3 77 41 116 q38 39 105 39 l0 0 ZM476 623 l0 76 l-300 0 l0 -76 l300 0 Z" /><glyph glyph-name="" unicode="&#x114;" d="M112 0 l432 0 l0 90 l-337 0 l0 239 l317 0 l0 90 l-317 0 l0 216 l337 0 l0 90 l-432 0 l0 -725 ZM406 874 q-9 -58 -80 -58 q-73 0 -81 58 l-77 0 q6 -54 46 -86 q39 -32 111 -32 q73 0 113 32 q39 31 46 86 l-78 0 Z" /><glyph glyph-name="" unicode="&#x115;" d="M326 -13 q92 0 154 48 q61 48 78 126 l-95 0 q-31 -99 -139 -99 q-64 0 -104 50 q-41 49 -41 129 l387 0 q5 144 -58 226 q-64 81 -182 81 q-108 0 -176 -76 q-68 -77 -68 -205 q0 -125 63 -202 q63 -78 181 -78 l0 0 ZM326 472 q68 0 106 -43 q37 -44 36 -112 l-288 0 q3 77 41 116 q38 39 105 39 l0 0 ZM485 725 l-71 0 q-7 -72 -87 -72 q-82 0 -89 72 l-71 0 q5 -59 43 -95 q38 -37 116 -37 q146 0 159 132 l0 0 Z" /><glyph glyph-name="" unicode="&#x116;" d="M112 0 l432 0 l0 90 l-337 0 l0 239 l317 0 l0 90 l-317 0 l0 216 l337 0 l0 90 l-432 0 l0 -725 ZM299 869 l0 -99 l91 0 l0 99 l-91 0 Z" /><glyph glyph-name="" unicode="&#x117;" d="M326 -13 q92 0 154 48 q61 48 78 126 l-95 0 q-31 -99 -139 -99 q-64 0 -104 50 q-41 49 -41 129 l387 0 q5 144 -58 226 q-64 81 -182 81 q-108 0 -176 -76 q-68 -77 -68 -205 q0 -125 63 -202 q63 -78 181 -78 l0 0 ZM326 472 q68 0 106 -43 q37 -44 36 -112 l-288 0 q3 77 41 116 q38 39 105 39 l0 0 ZM280 710 l0 -99 l91 0 l0 99 l-91 0 Z" /><glyph glyph-name="" unicode="&#x118;" d="M112 0 l341 0 q-80 -40 -80 -95 q0 -46 39 -68 q39 -23 90 -23 q40 0 69 12 l0 61 q-19 -9 -50 -9 q-65 0 -65 40 q0 38 88 82 l0 90 l-337 0 l0 239 l317 0 l0 90 l-317 0 l0 216 l337 0 l0 90 l-432 0 l0 -725 Z" /><glyph glyph-name="" unicode="&#x119;" d="M558 161 l-95 0 q-31 -99 -139 -99 q-64 0 -104 50 q-41 49 -41 129 l387 0 q5 144 -58 226 q-64 81 -182 81 q-108 0 -176 -76 q-68 -77 -68 -205 q0 -117 56 -193 q56 -77 161 -86 q-58 -34 -58 -83 q0 -46 39 -68 q39 -23 90 -23 q40 0 69 12 l0 61 q-19 -9 -50 -9 q-65 0 -65 40 q0 38 87 82 q58 18 96 61 q38 42 51 100 l0 0 ZM326 472 q68 0 106 -43 q37 -44 36 -112 l-288 0 q3 77 41 116 q38 39 105 39 l0 0 Z" /><glyph glyph-name="" unicode="&#x11a;" d="M112 0 l432 0 l0 90 l-337 0 l0 239 l317 0 l0 90 l-317 0 l0 216 l337 0 l0 90 l-432 0 l0 -725 ZM293 761 l84 0 l134 113 l-106 0 l-69 -56 l-69 56 l-106 0 l132 -113 Z" /><glyph glyph-name="" unicode="&#x11b;" d="M326 -13 q92 0 154 48 q61 48 78 126 l-95 0 q-31 -99 -139 -99 q-64 0 -104 50 q-41 49 -41 129 l387 0 q5 144 -58 226 q-64 81 -182 81 q-108 0 -176 -76 q-68 -77 -68 -205 q0 -125 63 -202 q63 -78 181 -78 l0 0 ZM326 472 q68 0 106 -43 q37 -44 36 -112 l-288 0 q3 77 41 116 q38 39 105 39 l0 0 ZM280 609 l88 0 l132 116 l-96 0 l-79 -53 l-79 53 l-95 0 l129 -116 Z" /><glyph glyph-name="" unicode="&#x11c;" d="M325 650 q135 0 156 -149 l98 0 q-17 111 -82 174 q-66 63 -167 63 q-135 0 -206 -100 q-72 -101 -72 -274 q0 -173 67 -275 q67 -102 202 -102 q65 0 109 25 q43 24 75 79 l4 -91 l72 0 l0 376 l-254 0 l0 -90 l167 0 l0 -23 q0 -188 -169 -188 q-88 0 -131 76 q-44 75 -44 213 q0 139 45 213 q44 73 130 73 l0 0 ZM372 874 l-84 0 l-134 -113 l106 0 l69 56 l69 -56 l106 0 l-132 113 Z" /><glyph glyph-name="" unicode="&#x11d;" d="M446 457 q-52 90 -159 90 q-96 0 -156 -70 q-61 -70 -61 -199 q0 -129 60 -199 q60 -70 157 -70 q108 0 159 89 l0 -52 q0 -86 -28 -119 q-34 -40 -110 -40 q-56 0 -82 21 q-27 21 -38 61 l-97 0 q12 -78 70 -120 q57 -42 146 -42 q58 0 109 19 q51 19 79 52 q23 27 33 69 q10 41 10 120 l0 471 l-92 0 l0 -81 ZM450 278 q0 -99 -40 -146 q-41 -47 -104 -47 q-139 0 -139 193 q0 192 139 192 q64 0 104 -46 q40 -46 40 -146 l0 0 ZM371 725 l-88 0 l-132 -116 l95 0 l80 54 l78 -54 l96 0 l-129 116 Z" /><glyph glyph-name="" unicode="&#x11e;" d="M325 650 q135 0 156 -149 l98 0 q-17 111 -82 174 q-66 63 -167 63 q-135 0 -206 -100 q-72 -101 -72 -274 q0 -173 67 -275 q67 -102 202 -102 q65 0 109 25 q43 24 75 79 l4 -91 l72 0 l0 376 l-254 0 l0 -90 l167 0 l0 -23 q0 -188 -169 -188 q-88 0 -131 76 q-44 75 -44 213 q0 139 45 213 q44 73 130 73 l0 0 ZM409 874 q-9 -58 -80 -58 q-73 0 -81 58 l-77 0 q6 -54 46 -86 q39 -32 111 -32 q73 0 113 32 q39 31 46 86 l-78 0 Z" /><glyph glyph-name="" unicode="&#x11f;" d="M446 457 q-52 90 -159 90 q-96 0 -156 -70 q-61 -70 -61 -199 q0 -129 60 -199 q60 -70 157 -70 q108 0 159 89 l0 -52 q0 -86 -28 -119 q-34 -40 -110 -40 q-56 0 -82 21 q-27 21 -38 61 l-97 0 q12 -78 70 -120 q57 -42 146 -42 q58 0 109 19 q51 19 79 52 q23 27 33 69 q10 41 10 120 l0 471 l-92 0 l0 -81 ZM450 278 q0 -99 -40 -146 q-41 -47 -104 -47 q-139 0 -139 193 q0 192 139 192 q64 0 104 -46 q40 -46 40 -146 l0 0 ZM485 725 l-71 0 q-7 -72 -87 -72 q-82 0 -89 72 l-71 0 q5 -59 43 -95 q38 -37 116 -37 q146 0 159 132 l0 0 Z" /><glyph glyph-name="" unicode="&#x120;" d="M325 650 q135 0 156 -149 l98 0 q-17 111 -82 174 q-66 63 -167 63 q-135 0 -206 -100 q-72 -101 -72 -274 q0 -173 67 -275 q67 -102 202 -102 q65 0 109 25 q43 24 75 79 l4 -91 l72 0 l0 376 l-254 0 l0 -90 l167 0 l0 -23 q0 -188 -169 -188 q-88 0 -131 76 q-44 75 -44 213 q0 139 45 213 q44 73 130 73 l0 0 ZM292 869 l0 -99 l91 0 l0 99 l-91 0 Z" /><glyph glyph-name="" unicode="&#x121;" d="M446 457 q-52 90 -159 90 q-96 0 -156 -70 q-61 -70 -61 -199 q0 -129 60 -199 q60 -70 157 -70 q108 0 159 89 l0 -52 q0 -86 -28 -119 q-34 -40 -110 -40 q-56 0 -82 21 q-27 21 -38 61 l-97 0 q12 -78 70 -120 q57 -42 146 -42 q58 0 109 19 q51 19 79 52 q23 27 33 69 q10 41 10 120 l0 471 l-92 0 l0 -81 ZM450 278 q0 -99 -40 -146 q-41 -47 -104 -47 q-139 0 -139 193 q0 192 139 192 q64 0 104 -46 q40 -46 40 -146 l0 0 ZM280 710 l0 -99 l91 0 l0 99 l-91 0 Z" /><glyph glyph-name="" unicode="&#x122;" d="M325 650 q135 0 156 -149 l98 0 q-17 111 -82 174 q-66 63 -167 63 q-135 0 -206 -100 q-72 -101 -72 -274 q0 -173 67 -275 q67 -102 202 -102 q65 0 109 25 q43 24 75 79 l4 -91 l72 0 l0 376 l-254 0 l0 -90 l167 0 l0 -23 q0 -188 -169 -188 q-88 0 -131 76 q-44 75 -44 213 q0 139 45 213 q44 73 130 73 l0 0 ZM291 -125 l36 0 l-39 -96 l54 0 l44 90 l0 95 l-95 0 l0 -89 Z" /><glyph glyph-name="" unicode="&#x123;" d="M350 686 l-36 0 l39 96 l-54 0 l-44 -89 l0 -96 l95 0 l0 89 ZM446 457 q-52 90 -159 90 q-96 0 -156 -70 q-61 -70 -61 -199 q0 -129 60 -199 q60 -70 157 -70 q108 0 159 89 l0 -52 q0 -86 -28 -119 q-34 -40 -110 -40 q-56 0 -82 21 q-27 21 -38 61 l-97 0 q12 -78 70 -120 q57 -42 146 -42 q58 0 109 19 q51 19 79 52 q23 27 33 69 q10 41 10 120 l0 471 l-92 0 l0 -81 ZM450 278 q0 -99 -40 -146 q-41 -47 -104 -47 q-139 0 -139 193 q0 192 139 192 q64 0 104 -46 q40 -46 40 -146 l0 0 Z" /><glyph glyph-name="" unicode="&#x124;" d="M463 726 l0 -307 l-280 0 l0 307 l-95 0 l0 -726 l95 0 l0 329 l280 0 l0 -329 l95 0 l0 726 l-95 0 ZM366 874 l-84 0 l-134 -113 l106 0 l69 56 l69 -56 l106 0 l-132 113 Z" /><glyph glyph-name="" unicode="&#x125;" d="M365 547 q-108 0 -159 -85 l0 263 l-92 0 l0 -725 l92 0 l0 292 q0 86 34 132 q33 46 95 46 q29 0 50 -9 q20 -9 31 -22 q11 -13 17 -36 q5 -23 7 -42 q1 -20 1 -51 l0 -310 l92 0 l0 342 q0 97 -38 151 q-38 54 -130 54 l0 0 ZM205 884 l-84 0 l-134 -113 l106 0 l69 56 l69 -56 l106 0 l-132 113 Z" /><glyph glyph-name="" unicode="&#x126;" d="M462 726 l0 -109 l-280 0 l0 109 l-95 0 l0 -109 l-52 0 l0 -76 l52 0 l0 -541 l95 0 l0 329 l280 0 l0 -329 l95 0 l0 541 l54 0 l0 76 l-54 0 l0 109 l-95 0 ZM182 419 l0 122 l280 0 l0 -122 l-280 0 Z" /><glyph glyph-name="" unicode="&#x127;" d="M365 547 q-108 0 -159 -85 l0 106 l128 0 l0 75 l-128 0 l0 82 l-92 0 l0 -82 l-80 0 l0 -75 l80 0 l0 -568 l92 0 l0 292 q0 86 34 132 q33 46 95 46 q29 0 50 -9 q20 -9 31 -22 q11 -13 17 -36 q5 -23 7 -42 q1 -20 1 -51 l0 -310 l92 0 l0 342 q0 97 -38 151 q-38 54 -130 54 l0 0 Z" /><glyph glyph-name="" unicode="&#x128;" d="M92 635 l183 0 l0 -545 l-183 0 l0 -90 l461 0 l0 90 l-183 0 l0 545 l183 0 l0 90 l-461 0 l0 -90 ZM389 828 q-21 0 -62 24 q-41 23 -73 23 q-45 0 -75 -28 q-31 -28 -40 -84 l71 0 q5 44 45 44 q19 0 62 -23 q42 -24 74 -24 q44 0 76 28 q31 27 40 85 l-71 0 q-6 -45 -47 -45 l0 0 Z" /><glyph glyph-name="" unicode="&#x129;" d="M134 538 l0 -79 l152 0 l0 -380 l-152 0 l0 -79 l397 0 l0 79 l-153 0 l0 459 l-244 0 ZM396 673 q-20 0 -61 24 q-41 23 -73 23 q-45 0 -75 -28 q-31 -28 -40 -84 l71 0 q5 44 45 44 q19 0 61 -23 q42 -24 74 -24 q44 0 76 28 q32 27 41 85 l-71 0 q-6 -45 -48 -45 l0 0 Z" /><glyph glyph-name="" unicode="&#x12a;" d="M92 635 l183 0 l0 -545 l-183 0 l0 -90 l461 0 l0 90 l-183 0 l0 545 l183 0 l0 90 l-461 0 l0 -90 ZM473 779 l0 76 l-300 0 l0 -76 l300 0 Z" /><glyph glyph-name="" unicode="&#x12b;" d="M134 538 l0 -79 l152 0 l0 -380 l-152 0 l0 -79 l397 0 l0 79 l-153 0 l0 459 l-244 0 ZM481 623 l0 76 l-300 0 l0 -76 l300 0 Z" /><glyph glyph-name="" unicode="&#x12c;" d="M92 635 l183 0 l0 -545 l-183 0 l0 -90 l461 0 l0 90 l-183 0 l0 545 l183 0 l0 90 l-461 0 l0 -90 ZM403 874 q-9 -58 -80 -58 q-73 0 -81 58 l-77 0 q6 -54 46 -86 q39 -32 111 -32 q73 0 113 32 q39 31 46 86 l-78 0 Z" /><glyph glyph-name="" unicode="&#x12d;" d="M134 538 l0 -79 l152 0 l0 -380 l-152 0 l0 -79 l397 0 l0 79 l-153 0 l0 459 l-244 0 ZM490 725 l-71 0 q-7 -72 -87 -72 q-82 0 -89 72 l-71 0 q5 -59 43 -95 q38 -37 116 -37 q146 0 159 132 l0 0 Z" /><glyph glyph-name="" unicode="&#x12e;" d="M279 0 q-80 -40 -80 -95 q0 -46 39 -68 q39 -23 90 -23 q40 0 69 12 l0 61 q-19 -9 -50 -9 q-65 0 -65 40 q0 38 88 82 l183 0 l0 90 l-183 0 l0 545 l183 0 l0 90 l-461 0 l0 -90 l183 0 l0 -545 l-183 0 l0 -90 l187 0 Z" /><glyph glyph-name="" unicode="&#x12f;" d="M134 538 l0 -79 l152 0 l0 -380 l-152 0 l0 -79 l155 0 q-80 -40 -80 -95 q0 -46 39 -68 q39 -23 90 -23 q40 0 69 12 l0 61 q-19 -9 -50 -9 q-65 0 -65 40 q0 38 88 82 l151 0 l0 79 l-153 0 l0 459 l-244 0 ZM286 725 l0 -109 l92 0 l0 109 l-92 0 Z" /><glyph glyph-name="" unicode="&#x130;" d="M92 635 l183 0 l0 -545 l-183 0 l0 -90 l461 0 l0 90 l-183 0 l0 545 l183 0 l0 90 l-461 0 l0 -90 ZM277 869 l0 -99 l91 0 l0 99 l-91 0 Z" /><glyph glyph-name="" unicode="&#x131;" d="M134 538 l0 -79 l152 0 l0 -380 l-152 0 l0 -79 l397 0 l0 79 l-153 0 l0 459 l-244 0 Z" /><glyph glyph-name="" unicode="&#x134;" d="M146 725 l0 -90 l279 0 l0 -404 q0 -92 -29 -124 q-29 -33 -87 -33 q-121 0 -121 150 l-95 0 q0 -110 59 -173 q59 -64 157 -64 q211 0 211 243 l0 495 l-374 0 ZM377 874 l-84 0 l-134 -113 l106 0 l69 56 l69 -56 l106 0 l-132 113 Z" /><glyph glyph-name="" unicode="&#x135;" d="M183 538 l0 -79 l135 0 l0 -488 q0 -42 -10 -54 q-11 -13 -45 -13 l-125 0 l0 -79 l144 0 q74 0 101 32 q27 31 27 116 l0 565 l-227 0 ZM407 725 l-88 0 l-132 -116 l95 0 l80 54 l78 -54 l96 0 l-129 116 Z" /><glyph glyph-name="" unicode="&#x136;" d="M203 725 l-95 0 l0 -725 l95 0 l0 246 l90 116 l200 -362 l109 0 l-247 442 l219 283 l-112 0 l-259 -347 l0 347 ZM295 -125 l36 0 l-39 -96 l54 0 l44 90 l0 95 l-95 0 l0 -89 Z" /><glyph glyph-name="" unicode="&#x137;" d="M121 725 l0 -725 l92 0 l0 186 l83 82 l189 -268 l105 0 l-232 329 l211 209 l-118 0 l-238 -245 l0 432 l-92 0 ZM285 -125 l36 0 l-39 -96 l54 0 l44 90 l0 95 l-95 0 l0 -89 Z" /><glyph glyph-name="" unicode="&#x139;" d="M220 725 l-95 0 l0 -725 l451 0 l0 90 l-356 0 l0 635 ZM363 874 l-129 0 l-109 -113 l90 0 l148 113 Z" /><glyph glyph-name="" unicode="&#x13a;" d="M128 725 l0 -78 l152 0 l0 -568 l-152 0 l0 -79 l397 0 l0 79 l-153 0 l0 646 l-244 0 ZM520 874 l-129 0 l-109 -113 l90 0 l148 113 Z" /><glyph glyph-name="" unicode="&#x13b;" d="M220 725 l-95 0 l0 -725 l451 0 l0 90 l-356 0 l0 635 ZM318 -125 l36 0 l-39 -96 l54 0 l44 90 l0 95 l-95 0 l0 -89 Z" /><glyph glyph-name="" unicode="&#x13c;" d="M128 725 l0 -78 l152 0 l0 -568 l-152 0 l0 -79 l397 0 l0 79 l-153 0 l0 646 l-244 0 ZM277 -125 l36 0 l-39 -96 l54 0 l44 90 l0 95 l-95 0 l0 -89 Z" /><glyph glyph-name="" unicode="&#x13d;" d="M220 725 l-95 0 l0 -725 l451 0 l0 90 l-356 0 l0 635 ZM477 725 l-98 0 l-30 -170 l58 0 l70 170 Z" /><glyph glyph-name="" unicode="&#x13e;" d="M555 725 l-98 0 l-30 -170 l58 0 l70 170 ZM128 725 l0 -78 l152 0 l0 -568 l-152 0 l0 -79 l397 0 l0 79 l-153 0 l0 646 l-244 0 Z" /><glyph glyph-name="" unicode="&#x13f;" d="M376 437 l0 -99 l91 0 l0 99 l-91 0 ZM220 725 l-95 0 l0 -725 l451 0 l0 90 l-356 0 l0 635 Z" /><glyph glyph-name="" unicode="&#x140;" d="M543 437 l0 -99 l91 0 l0 99 l-91 0 ZM128 725 l0 -78 l152 0 l0 -568 l-152 0 l0 -79 l397 0 l0 79 l-153 0 l0 646 l-244 0 Z" /><glyph glyph-name="" unicode="&#x141;" d="M264 725 l-95 0 l0 -350 l-134 -91 l0 -91 l134 91 l0 -284 l451 0 l0 90 l-356 0 l0 259 l148 102 l0 91 l-148 -102 l0 285 Z" /><glyph glyph-name="" unicode="&#x142;" d="M128 725 l0 -78 l152 0 l0 -238 l-162 -66 l0 -76 l162 65 l0 -253 l-152 0 l0 -79 l397 0 l0 79 l-153 0 l0 290 l145 59 l0 77 l-145 -59 l0 279 l-244 0 Z" /><glyph glyph-name="" unicode="&#x143;" d="M557 0 l0 725 l-95 0 l0 -617 l-232 617 l-142 0 l0 -725 l95 0 l0 619 l232 -619 l142 0 ZM530 874 l-129 0 l-109 -113 l90 0 l148 113 Z" /><glyph glyph-name="" unicode="&#x144;" d="M206 538 l-92 0 l0 -538 l92 0 l0 292 q0 86 33 132 q33 45 95 45 q29 0 50 -8 q20 -9 31 -22 q11 -13 17 -36 q6 -23 8 -42 q1 -20 1 -51 l0 -310 l92 0 l0 342 q0 97 -38 151 q-39 54 -131 54 q-108 0 -158 -85 l0 76 ZM507 725 l-117 0 l-90 -116 l76 0 l131 116 Z" /><glyph glyph-name="" unicode="&#x145;" d="M557 0 l0 725 l-95 0 l0 -617 l-232 617 l-142 0 l0 -725 l95 0 l0 619 l232 -619 l142 0 ZM265 -125 l36 0 l-39 -96 l54 0 l44 90 l0 95 l-95 0 l0 -89 Z" /><glyph glyph-name="" unicode="&#x146;" d="M206 538 l-92 0 l0 -538 l92 0 l0 292 q0 86 33 132 q33 45 95 45 q29 0 50 -8 q20 -9 31 -22 q11 -13 17 -36 q6 -23 8 -42 q1 -20 1 -51 l0 -310 l92 0 l0 342 q0 97 -38 151 q-39 54 -131 54 q-108 0 -158 -85 l0 76 ZM277 -125 l36 0 l-39 -96 l54 0 l44 90 l0 95 l-95 0 l0 -89 Z" /><glyph glyph-name="" unicode="&#x147;" d="M557 0 l0 725 l-95 0 l0 -617 l-232 617 l-142 0 l0 -725 l95 0 l0 619 l232 -619 l142 0 ZM305 761 l84 0 l134 113 l-106 0 l-69 -56 l-69 56 l-106 0 l132 -113 Z" /><glyph glyph-name="" unicode="&#x148;" d="M206 538 l-92 0 l0 -538 l92 0 l0 292 q0 86 33 132 q33 45 95 45 q29 0 50 -8 q20 -9 31 -22 q11 -13 17 -36 q6 -23 8 -42 q1 -20 1 -51 l0 -310 l92 0 l0 342 q0 97 -38 151 q-39 54 -131 54 q-108 0 -158 -85 l0 76 ZM277 609 l88 0 l132 116 l-96 0 l-79 -53 l-79 53 l-95 0 l129 -116 Z" /><glyph glyph-name="" unicode="&#x14a;" d="M462 0 l0 -40 q0 -42 -10 -56 q-11 -14 -44 -14 l-125 0 l0 -76 l144 0 q74 0 102 32 q28 32 28 116 l0 763 l-95 0 l0 -527 l-232 527 l-142 0 l0 -725 l95 0 l0 619 l279 -619 Z" /><glyph glyph-name="" unicode="&#x14b;" d="M533 342 q0 97 -38 151 q-39 54 -131 54 q-109 0 -158 -83 l0 74 l-92 0 l0 -538 l92 0 l0 292 q0 86 33 131 q33 45 95 45 q36 0 59 -11 q22 -12 32 -36 q10 -25 13 -48 q3 -24 3 -63 l0 -339 q0 -42 -10 -56 q-11 -14 -45 -14 l-125 0 l0 -76 l144 0 q74 0 101 32 q27 31 27 116 l0 369 Z" /><glyph glyph-name="" unicode="&#x14c;" d="M323 738 q-132 0 -201 -102 q-70 -103 -70 -273 q0 -170 70 -273 q69 -103 201 -103 q132 0 202 103 q69 103 69 273 q0 170 -69 273 q-70 102 -202 102 l0 0 ZM323 650 q173 0 173 -287 q0 -288 -173 -288 q-173 0 -173 288 q0 287 173 287 l0 0 ZM473 779 l0 76 l-300 0 l0 -76 l300 0 Z" /><glyph glyph-name="" unicode="&#x14d;" d="M171 267 q0 102 43 153 q43 50 109 50 q66 0 109 -50 q43 -51 43 -153 q0 -102 -43 -152 q-43 -51 -109 -51 q-66 0 -109 51 q-43 50 -43 152 l0 0 ZM74 267 q0 -137 74 -208 q73 -72 175 -72 q102 0 176 72 q73 71 73 208 q0 137 -73 209 q-74 71 -176 71 q-102 0 -175 -71 q-74 -72 -74 -209 l0 0 ZM473 623 l0 76 l-300 0 l0 -76 l300 0 Z" /><glyph glyph-name="" unicode="&#x14e;" d="M323 738 q-132 0 -201 -102 q-70 -103 -70 -273 q0 -170 70 -273 q69 -103 201 -103 q132 0 202 103 q69 103 69 273 q0 170 -69 273 q-70 102 -202 102 l0 0 ZM323 650 q173 0 173 -287 q0 -288 -173 -288 q-173 0 -173 288 q0 287 173 287 l0 0 ZM403 874 q-9 -58 -80 -58 q-73 0 -81 58 l-77 0 q6 -54 46 -86 q39 -32 111 -32 q73 0 113 32 q39 31 46 86 l-78 0 Z" /><glyph glyph-name="" unicode="&#x14f;" d="M171 267 q0 102 43 153 q43 50 109 50 q66 0 109 -50 q43 -51 43 -153 q0 -102 -43 -152 q-43 -51 -109 -51 q-66 0 -109 51 q-43 50 -43 152 l0 0 ZM74 267 q0 -137 74 -208 q73 -72 175 -72 q102 0 176 72 q73 71 73 208 q0 137 -73 209 q-74 71 -176 71 q-102 0 -175 -71 q-74 -72 -74 -209 l0 0 ZM482 725 l-71 0 q-7 -72 -87 -72 q-82 0 -89 72 l-71 0 q5 -59 43 -95 q38 -37 116 -37 q146 0 159 132 l0 0 Z" /><glyph glyph-name="" unicode="&#x150;" d="M323 738 q-132 0 -201 -102 q-70 -103 -70 -273 q0 -170 70 -273 q69 -103 201 -103 q132 0 202 103 q69 103 69 273 q0 170 -69 273 q-70 102 -202 102 l0 0 ZM323 650 q173 0 173 -287 q0 -288 -173 -288 q-173 0 -173 288 q0 287 173 287 l0 0 ZM405 874 l-129 0 l-109 -113 l90 0 l148 113 ZM572 874 l-129 0 l-110 -113 l91 0 l148 113 Z" /><glyph glyph-name="" unicode="&#x151;" d="M171 267 q0 102 43 153 q43 50 109 50 q66 0 109 -50 q43 -51 43 -153 q0 -102 -43 -152 q-43 -51 -109 -51 q-66 0 -109 51 q-43 50 -43 152 l0 0 ZM74 267 q0 -137 74 -208 q73 -72 175 -72 q102 0 176 72 q73 71 73 208 q0 137 -73 209 q-74 71 -176 71 q-102 0 -175 -71 q-74 -72 -74 -209 l0 0 ZM394 725 l-117 0 l-90 -116 l76 0 l131 116 ZM552 725 l-116 0 l-91 -116 l77 0 l130 116 Z" /><glyph glyph-name="" unicode="&#x152;" d="M223 738 q-99 0 -142 -96 q-43 -97 -43 -279 q0 -182 43 -279 q43 -97 142 -97 q48 0 81 33 l0 -20 l302 0 l0 90 l-208 0 l0 239 l188 0 l0 90 l-188 0 l0 216 l208 0 l0 90 l-302 0 l0 -20 q-33 33 -81 33 l0 0 ZM223 650 q48 0 68 -71 q19 -72 19 -216 q0 -144 -19 -216 q-20 -72 -68 -72 q-48 0 -67 72 q-20 72 -20 216 q0 144 20 216 q19 71 67 71 l0 0 Z" /><glyph glyph-name="" unicode="&#x153;" d="M195 547 q-91 0 -132 -78 q-42 -78 -42 -204 q0 -126 42 -202 q41 -76 132 -76 q85 0 125 70 q40 -70 128 -70 q70 0 115 46 q44 45 51 123 l-86 0 q-5 -49 -24 -72 q-20 -24 -58 -24 q-43 0 -66 48 q-24 48 -23 127 l265 0 q5 144 -39 228 q-45 83 -135 83 q-82 0 -126 -75 q-40 76 -127 76 l0 0 ZM195 473 q82 0 82 -212 q0 -101 -18 -151 q-19 -50 -64 -50 q-86 0 -86 205 q0 208 86 208 l0 0 ZM357 310 q3 165 91 165 q46 0 67 -46 q20 -47 19 -119 l-177 0 Z" /><glyph glyph-name="" unicode="&#x154;" d="M481 0 l108 0 l-154 324 q131 41 131 194 q0 63 -20 105 q-21 42 -61 64 q-41 21 -87 30 q-47 8 -112 8 l-177 0 l0 -725 l95 0 l0 305 l82 0 q36 0 53 1 l142 -306 ZM297 635 q34 0 56 -1 q21 -2 46 -8 q24 -7 38 -19 q13 -13 22 -35 q9 -23 9 -56 q0 -40 -12 -65 q-12 -26 -38 -37 q-27 -12 -53 -15 q-26 -4 -68 -4 l-93 0 l0 240 l93 0 ZM481 874 l-129 0 l-109 -113 l90 0 l148 113 Z" /><glyph glyph-name="" unicode="&#x155;" d="M86 538 l0 -79 l153 0 l0 -380 l-152 0 l0 -79 l428 0 l0 79 l-184 0 l0 189 q0 186 143 186 l91 0 l0 84 l-92 0 q-49 0 -86 -25 q-38 -26 -58 -71 l0 96 l-243 0 ZM516 725 l-117 0 l-90 -116 l76 0 l131 116 Z" /><glyph glyph-name="" unicode="&#x156;" d="M481 0 l108 0 l-154 324 q131 41 131 194 q0 63 -20 105 q-21 42 -61 64 q-41 21 -87 30 q-47 8 -112 8 l-177 0 l0 -725 l95 0 l0 305 l82 0 q36 0 53 1 l142 -306 ZM297 635 q34 0 56 -1 q21 -2 46 -8 q24 -7 38 -19 q13 -13 22 -35 q9 -23 9 -56 q0 -40 -12 -65 q-12 -26 -38 -37 q-27 -12 -53 -15 q-26 -4 -68 -4 l-93 0 l0 240 l93 0 ZM284 -125 l36 0 l-39 -96 l54 0 l44 90 l0 95 l-95 0 l0 -89 Z" /><glyph glyph-name="" unicode="&#x157;" d="M86 538 l0 -79 l153 0 l0 -380 l-152 0 l0 -79 l428 0 l0 79 l-184 0 l0 189 q0 186 143 186 l91 0 l0 84 l-92 0 q-49 0 -86 -25 q-38 -26 -58 -71 l0 96 l-243 0 ZM235 -125 l36 0 l-39 -96 l54 0 l44 90 l0 95 l-95 0 l0 -89 Z" /><glyph glyph-name="" unicode="&#x158;" d="M481 0 l108 0 l-154 324 q131 41 131 194 q0 63 -20 105 q-21 42 -61 64 q-41 21 -87 30 q-47 8 -112 8 l-177 0 l0 -725 l95 0 l0 305 l82 0 q36 0 53 1 l142 -306 ZM297 635 q34 0 56 -1 q21 -2 46 -8 q24 -7 38 -19 q13 -13 22 -35 q9 -23 9 -56 q0 -40 -12 -65 q-12 -26 -38 -37 q-27 -12 -53 -15 q-26 -4 -68 -4 l-93 0 l0 240 l93 0 ZM276 761 l84 0 l134 113 l-106 0 l-69 -56 l-69 56 l-106 0 l132 -113 Z" /><glyph glyph-name="" unicode="&#x159;" d="M86 538 l0 -79 l153 0 l0 -380 l-152 0 l0 -79 l428 0 l0 79 l-184 0 l0 189 q0 186 143 186 l91 0 l0 84 l-92 0 q-49 0 -86 -25 q-38 -26 -58 -71 l0 96 l-243 0 ZM301 609 l88 0 l132 116 l-96 0 l-79 -53 l-79 53 l-95 0 l129 -116 Z" /><glyph glyph-name="" unicode="&#x15a;" d="M265 342 l79 -19 q136 -31 136 -127 q0 -58 -43 -89 q-44 -32 -103 -32 q-71 0 -117 40 q-47 39 -54 111 l-94 0 q6 -108 79 -173 q72 -66 183 -66 q107 0 176 59 q69 58 69 157 q0 95 -58 144 q-59 48 -161 71 l-72 16 q-105 24 -105 108 q0 53 40 81 q40 27 95 27 q57 0 101 -28 q43 -28 51 -88 l94 0 q-11 101 -80 153 q-69 51 -161 51 q-101 0 -169 -54 q-69 -54 -69 -145 q0 -81 52 -130 q52 -50 131 -67 l0 0 ZM494 874 l-129 0 l-109 -113 l90 0 l148 113 Z" /><glyph glyph-name="" unicode="&#x15b;" d="M530 391 q-15 73 -71 115 q-56 41 -141 41 q-77 0 -140 -38 q-63 -39 -63 -111 q0 -122 152 -152 l67 -13 q113 -20 113 -87 q0 -43 -35 -63 q-35 -20 -85 -20 q-106 0 -125 98 l-97 0 q8 -71 65 -122 q57 -52 155 -52 q93 0 154 44 q61 44 61 126 q0 31 -11 57 q-12 25 -30 42 q-18 16 -44 29 q-27 13 -52 20 q-25 7 -56 13 l-60 12 q-41 9 -61 26 q-20 16 -20 46 q0 34 32 52 q31 17 76 17 q104 0 120 -80 l96 0 ZM471 725 l-117 0 l-90 -116 l76 0 l131 116 Z" /><glyph glyph-name="" unicode="&#x15c;" d="M265 342 l79 -19 q136 -31 136 -127 q0 -58 -43 -89 q-44 -32 -103 -32 q-71 0 -117 40 q-47 39 -54 111 l-94 0 q6 -108 79 -173 q72 -66 183 -66 q107 0 176 59 q69 58 69 157 q0 95 -58 144 q-59 48 -161 71 l-72 16 q-105 24 -105 108 q0 53 40 81 q40 27 95 27 q57 0 101 -28 q43 -28 51 -88 l94 0 q-11 101 -80 153 q-69 51 -161 51 q-101 0 -169 -54 q-69 -54 -69 -145 q0 -81 52 -130 q52 -50 131 -67 l0 0 ZM361 874 l-84 0 l-134 -113 l106 0 l69 56 l69 -56 l106 0 l-132 113 Z" /><glyph glyph-name="" unicode="&#x15d;" d="M530 391 q-15 73 -71 115 q-56 41 -141 41 q-77 0 -140 -38 q-63 -39 -63 -111 q0 -122 152 -152 l67 -13 q113 -20 113 -87 q0 -43 -35 -63 q-35 -20 -85 -20 q-106 0 -125 98 l-97 0 q8 -71 65 -122 q57 -52 155 -52 q93 0 154 44 q61 44 61 126 q0 31 -11 57 q-12 25 -30 42 q-18 16 -44 29 q-27 13 -52 20 q-25 7 -56 13 l-60 12 q-41 9 -61 26 q-20 16 -20 46 q0 34 32 52 q31 17 76 17 q104 0 120 -80 l96 0 ZM364 725 l-88 0 l-132 -116 l95 0 l80 54 l78 -54 l96 0 l-129 116 Z" /><glyph glyph-name="" unicode="&#x15e;" d="M247 -176 q39 -19 93 -19 q42 0 75 23 q33 22 33 59 q0 31 -20 50 q-20 18 -56 18 q-15 0 -30 -3 l23 37 q94 9 153 66 q58 57 58 148 q0 95 -58 144 q-59 48 -161 71 l-72 16 q-105 24 -105 108 q0 53 40 81 q40 27 95 27 q57 0 101 -28 q43 -28 51 -88 l94 0 q-11 101 -80 153 q-69 51 -161 51 q-101 0 -169 -54 q-69 -54 -69 -145 q0 -81 52 -130 q52 -50 131 -67 l79 -19 q136 -31 136 -127 q0 -58 -43 -89 q-44 -32 -103 -32 q-71 0 -117 40 q-47 39 -54 111 l-94 0 q5 -103 72 -167 q66 -65 170 -71 l-41 -68 l30 -17 q13 9 38 9 q44 0 44 -30 q0 -32 -61 -32 q-28 0 -58 14 l-16 -40 Z" /><glyph glyph-name="" unicode="&#x15f;" d="M530 391 q-15 73 -71 115 q-56 41 -141 41 q-77 0 -140 -38 q-63 -39 -63 -111 q0 -122 152 -152 l67 -13 q113 -20 113 -87 q0 -43 -35 -63 q-35 -20 -85 -20 q-106 0 -125 98 l-97 0 q7 -67 59 -117 q51 -50 139 -56 l-42 -68 l31 -17 q13 9 38 9 q43 0 43 -30 q0 -32 -60 -32 q-28 0 -58 14 l-16 -40 q39 -19 92 -19 q42 0 76 23 q33 22 33 59 q0 31 -20 50 q-20 18 -56 18 q-15 0 -30 -3 l23 37 q81 7 132 50 q51 43 51 118 q0 31 -11 57 q-12 25 -30 42 q-18 16 -44 29 q-27 13 -52 20 q-25 7 -56 13 l-60 12 q-41 9 -61 26 q-20 16 -20 46 q0 34 32 52 q31 17 76 17 q104 0 120 -80 l96 0 Z" /><glyph glyph-name="" unicode="&#x160;" d="M265 342 l79 -19 q136 -31 136 -127 q0 -58 -43 -89 q-44 -32 -103 -32 q-71 0 -117 40 q-47 39 -54 111 l-94 0 q6 -108 79 -173 q72 -66 183 -66 q107 0 176 59 q69 58 69 157 q0 95 -58 144 q-59 48 -161 71 l-72 16 q-105 24 -105 108 q0 53 40 81 q40 27 95 27 q57 0 101 -28 q43 -28 51 -88 l94 0 q-11 101 -80 153 q-69 51 -161 51 q-101 0 -169 -54 q-69 -54 -69 -145 q0 -81 52 -130 q52 -50 131 -67 l0 0 ZM273 761 l84 0 l134 113 l-106 0 l-69 -56 l-69 56 l-106 0 l132 -113 Z" /><glyph glyph-name="" unicode="&#x161;" d="M530 391 q-15 73 -71 115 q-56 41 -141 41 q-77 0 -140 -38 q-63 -39 -63 -111 q0 -122 152 -152 l67 -13 q113 -20 113 -87 q0 -43 -35 -63 q-35 -20 -85 -20 q-106 0 -125 98 l-97 0 q8 -71 65 -122 q57 -52 155 -52 q93 0 154 44 q61 44 61 126 q0 31 -11 57 q-12 25 -30 42 q-18 16 -44 29 q-27 13 -52 20 q-25 7 -56 13 l-60 12 q-41 9 -61 26 q-20 16 -20 46 q0 34 32 52 q31 17 76 17 q104 0 120 -80 l96 0 ZM273 609 l88 0 l132 116 l-96 0 l-79 -53 l-79 53 l-95 0 l129 -116 Z" /><glyph glyph-name="" unicode="&#x162;" d="M275 0 l95 0 l0 635 l218 0 l0 90 l-531 0 l0 -90 l218 0 l0 -635 ZM275 -125 l36 0 l-39 -96 l54 0 l44 90 l0 95 l-95 0 l0 -89 Z" /><glyph glyph-name="" unicode="&#x163;" d="M197 538 l-153 0 l0 -79 l153 0 l0 -324 q0 -83 26 -109 q25 -26 100 -26 l186 0 l0 79 l-166 0 q-37 0 -45 13 q-9 12 -9 56 l0 311 l220 0 l0 79 l-220 0 l0 135 l-92 0 l0 -135 ZM204 -125 l36 0 l-39 -96 l54 0 l44 90 l0 95 l-95 0 l0 -89 Z" /><glyph glyph-name="" unicode="&#x164;" d="M275 0 l95 0 l0 635 l218 0 l0 90 l-531 0 l0 -90 l218 0 l0 -635 ZM280 761 l84 0 l134 113 l-106 0 l-69 -56 l-69 56 l-106 0 l132 -113 Z" /><glyph glyph-name="" unicode="&#x165;" d="M590 725 l-98 0 l-30 -170 l58 0 l70 170 ZM197 538 l-153 0 l0 -79 l153 0 l0 -324 q0 -83 26 -109 q25 -26 100 -26 l186 0 l0 79 l-166 0 q-37 0 -45 13 q-9 12 -9 56 l0 311 l220 0 l0 79 l-220 0 l0 135 l-92 0 l0 -135 Z" /><glyph glyph-name="" unicode="&#x166;" d="M275 0 l95 0 l0 327 l151 0 l0 76 l-151 0 l0 232 l218 0 l0 90 l-531 0 l0 -90 l218 0 l0 -232 l-151 0 l0 -76 l151 0 l0 -327 Z" /><glyph glyph-name="" unicode="&#x167;" d="M197 538 l-153 0 l0 -79 l153 0 l0 -83 l-153 0 l0 -76 l153 0 l0 -165 q0 -83 26 -109 q25 -26 100 -26 l186 0 l0 79 l-166 0 q-37 0 -45 13 q-9 12 -9 56 l0 152 l220 0 l0 76 l-220 0 l0 83 l220 0 l0 79 l-220 0 l0 135 l-92 0 l0 -135 Z" /><glyph glyph-name="" unicode="&#x168;" d="M79 725 l0 -430 q0 -170 54 -239 q54 -69 189 -69 q137 0 191 76 q54 75 54 240 l0 422 l-95 0 l0 -430 q0 -116 -30 -168 q-31 -52 -120 -52 q-88 0 -118 48 q-30 48 -30 161 l0 441 l-95 0 ZM389 828 q-21 0 -62 24 q-41 23 -73 23 q-45 0 -75 -28 q-31 -28 -40 -84 l71 0 q5 44 45 44 q19 0 62 -23 q42 -24 74 -24 q44 0 76 28 q31 27 40 85 l-71 0 q-6 -45 -47 -45 l0 0 Z" /><glyph glyph-name="" unicode="&#x169;" d="M439 0 l92 0 l0 538 l-92 0 l0 -296 q0 -86 -33 -131 q-33 -45 -95 -45 q-29 0 -49 9 q-20 8 -31 21 q-11 12 -16 35 q-6 23 -7 43 q-2 19 -2 50 l0 314 l-92 0 l0 -346 q0 -98 38 -151 q37 -54 129 -54 q106 0 158 82 l0 -69 ZM388 673 q-20 0 -61 24 q-41 23 -73 23 q-45 0 -75 -28 q-31 -28 -40 -84 l71 0 q5 44 45 44 q19 0 61 -23 q42 -24 74 -24 q44 0 76 28 q32 27 41 85 l-71 0 q-6 -45 -48 -45 l0 0 Z" /><glyph glyph-name="" unicode="&#x16a;" d="M79 725 l0 -430 q0 -170 54 -239 q54 -69 189 -69 q137 0 191 76 q54 75 54 240 l0 422 l-95 0 l0 -430 q0 -116 -30 -168 q-31 -52 -120 -52 q-88 0 -118 48 q-30 48 -30 161 l0 441 l-95 0 ZM473 779 l0 76 l-300 0 l0 -76 l300 0 Z" /><glyph glyph-name="" unicode="&#x16b;" d="M439 0 l92 0 l0 538 l-92 0 l0 -296 q0 -86 -33 -131 q-33 -45 -95 -45 q-29 0 -49 9 q-20 8 -31 21 q-11 12 -16 35 q-6 23 -7 43 q-2 19 -2 50 l0 314 l-92 0 l0 -346 q0 -98 38 -151 q37 -54 129 -54 q106 0 158 82 l0 -69 ZM477 623 l0 76 l-300 0 l0 -76 l300 0 Z" /><glyph glyph-name="" unicode="&#x16c;" d="M79 725 l0 -430 q0 -170 54 -239 q54 -69 189 -69 q137 0 191 76 q54 75 54 240 l0 422 l-95 0 l0 -430 q0 -116 -30 -168 q-31 -52 -120 -52 q-88 0 -118 48 q-30 48 -30 161 l0 441 l-95 0 ZM409 874 q-9 -58 -80 -58 q-73 0 -81 58 l-77 0 q6 -54 46 -86 q39 -32 111 -32 q73 0 113 32 q39 31 46 86 l-78 0 Z" /><glyph glyph-name="" unicode="&#x16d;" d="M439 0 l92 0 l0 538 l-92 0 l0 -296 q0 -86 -33 -131 q-33 -45 -95 -45 q-29 0 -49 9 q-20 8 -31 21 q-11 12 -16 35 q-6 23 -7 43 q-2 19 -2 50 l0 314 l-92 0 l0 -346 q0 -98 38 -151 q37 -54 129 -54 q106 0 158 82 l0 -69 ZM482 725 l-71 0 q-7 -72 -87 -72 q-82 0 -89 72 l-71 0 q5 -59 43 -95 q38 -37 116 -37 q146 0 159 132 l0 0 Z" /><glyph glyph-name="" unicode="&#x16e;" d="M79 725 l0 -430 q0 -170 54 -239 q54 -69 189 -69 q137 0 191 76 q54 75 54 240 l0 422 l-95 0 l0 -430 q0 -116 -30 -168 q-31 -52 -120 -52 q-88 0 -118 48 q-30 48 -30 161 l0 441 l-95 0 ZM323 921 q-38 0 -64 -24 q-27 -24 -27 -61 q0 -36 27 -60 q26 -25 64 -25 q39 0 65 24 q26 24 26 61 q0 37 -26 61 q-27 24 -65 24 l0 0 ZM323 879 q18 0 31 -12 q12 -13 12 -31 q0 -18 -12 -30 q-13 -12 -31 -12 q-17 0 -30 12 q-14 12 -14 30 q0 18 14 31 q13 12 30 12 l0 0 Z" /><glyph glyph-name="" unicode="&#x16f;" d="M439 0 l92 0 l0 538 l-92 0 l0 -296 q0 -86 -33 -131 q-33 -45 -95 -45 q-29 0 -49 9 q-20 8 -31 21 q-11 12 -16 35 q-6 23 -7 43 q-2 19 -2 50 l0 314 l-92 0 l0 -346 q0 -98 38 -151 q37 -54 129 -54 q106 0 158 82 l0 -69 ZM322 760 q-37 0 -63 -24 q-27 -25 -27 -61 q0 -37 26 -61 q26 -24 64 -24 q39 0 65 24 q26 24 26 61 q0 36 -26 61 q-27 24 -65 24 l0 0 ZM322 718 q17 0 30 -12 q13 -13 13 -31 q0 -18 -12 -30 q-13 -12 -31 -12 q-17 0 -30 12 q-13 12 -13 30 q0 18 13 31 q13 12 30 12 l0 0 Z" /><glyph glyph-name="" unicode="&#x170;" d="M79 725 l0 -430 q0 -170 54 -239 q54 -69 189 -69 q137 0 191 76 q54 75 54 240 l0 422 l-95 0 l0 -430 q0 -116 -30 -168 q-31 -52 -120 -52 q-88 0 -118 48 q-30 48 -30 161 l0 441 l-95 0 ZM423 874 l-129 0 l-109 -113 l90 0 l148 113 ZM590 874 l-129 0 l-110 -113 l91 0 l148 113 Z" /><glyph glyph-name="" unicode="&#x171;" d="M439 0 l92 0 l0 538 l-92 0 l0 -296 q0 -86 -33 -131 q-33 -45 -95 -45 q-29 0 -49 9 q-20 8 -31 21 q-11 12 -16 35 q-6 23 -7 43 q-2 19 -2 50 l0 314 l-92 0 l0 -346 q0 -98 38 -151 q37 -54 129 -54 q106 0 158 82 l0 -69 ZM396 725 l-117 0 l-90 -116 l76 0 l131 116 ZM554 725 l-116 0 l-91 -116 l77 0 l130 116 Z" /><glyph glyph-name="" unicode="&#x172;" d="M79 725 l0 -430 q0 -165 50 -234 q50 -70 175 -74 q-56 -34 -56 -82 q0 -46 39 -68 q39 -23 90 -23 q40 0 69 12 l0 61 q-20 -9 -50 -9 q-65 0 -65 40 q0 38 84 80 q83 23 118 97 q34 74 34 208 l0 422 l-95 0 l0 -430 q0 -116 -30 -168 q-31 -52 -120 -52 q-88 0 -118 48 q-30 48 -30 161 l0 441 l-95 0 Z" /><glyph glyph-name="" unicode="&#x173;" d="M439 0 q-80 -40 -80 -95 q0 -46 39 -68 q39 -23 90 -23 q40 0 69 12 l0 61 q-19 -9 -50 -9 q-65 0 -65 40 q0 38 88 82 l1 0 l0 538 l-92 0 l0 -296 q0 -86 -33 -131 q-33 -45 -95 -45 q-29 0 -49 9 q-20 8 -31 21 q-11 12 -16 35 q-6 23 -7 43 q-2 19 -2 50 l0 314 l-92 0 l0 -346 q0 -98 38 -151 q37 -54 129 -54 q106 0 158 82 l0 -69 Z" /><glyph glyph-name="" unicode="&#x174;" d="M374 504 l-103 0 l-80 -366 l-53 587 l-95 0 l72 -725 l124 0 l84 378 l84 -378 l123 0 l73 725 l-95 0 l-54 -587 l-80 366 ZM366 874 l-84 0 l-134 -113 l106 0 l69 56 l69 -56 l106 0 l-132 113 Z" /><glyph glyph-name="" unicode="&#x175;" d="M279 430 l-80 -290 l-54 398 l-94 0 l90 -538 l93 0 l88 325 l88 -325 l93 0 l90 538 l-93 0 l-55 -398 l-80 290 l-86 0 ZM376 725 l-88 0 l-132 -116 l95 0 l80 54 l78 -54 l96 0 l-129 116 Z" /><glyph glyph-name="" unicode="&#x176;" d="M323 370 l-187 355 l-111 0 l250 -453 l0 -272 l95 0 l0 272 l250 453 l-111 0 l-186 -355 ZM366 874 l-84 0 l-134 -113 l106 0 l69 56 l69 -56 l106 0 l-132 113 Z" /><glyph glyph-name="" unicode="&#x177;" d="M183 -175 q81 0 116 33 q35 33 66 119 l199 561 l-95 0 l-143 -415 l-146 415 l-101 0 l201 -538 l-4 -12 q-20 -55 -39 -69 q-19 -15 -63 -15 l-97 0 l0 -79 l106 0 ZM368 725 l-88 0 l-132 -116 l95 0 l80 54 l78 -54 l96 0 l-129 116 Z" /><glyph glyph-name="" unicode="&#x178;" d="M323 370 l-187 355 l-111 0 l250 -453 l0 -272 l95 0 l0 272 l250 453 l-111 0 l-186 -355 ZM163 868 l0 -99 l91 0 l0 99 l-91 0 ZM392 868 l0 -99 l91 0 l0 99 l-91 0 Z" /><glyph glyph-name="" unicode="&#x179;" d="M557 725 l-451 0 l0 -90 l343 0 l-373 -545 l0 -90 l485 0 l0 90 l-376 0 l372 545 l0 90 ZM497 874 l-129 0 l-109 -113 l90 0 l148 113 Z" /><glyph glyph-name="" unicode="&#x17a;" d="M104 0 l444 0 l0 79 l-332 0 l327 380 l0 79 l-420 0 l0 -79 l308 0 l-327 -380 l0 -79 ZM486 725 l-117 0 l-90 -116 l76 0 l131 116 Z" /><glyph glyph-name="" unicode="&#x17b;" d="M557 725 l-451 0 l0 -90 l343 0 l-373 -545 l0 -90 l485 0 l0 90 l-376 0 l372 545 l0 90 ZM277 869 l0 -99 l91 0 l0 99 l-91 0 Z" /><glyph glyph-name="" unicode="&#x17c;" d="M104 0 l444 0 l0 79 l-332 0 l327 380 l0 79 l-420 0 l0 -79 l308 0 l-327 -380 l0 -79 ZM299 710 l0 -99 l91 0 l0 99 l-91 0 Z" /><glyph glyph-name="" unicode="&#x17d;" d="M557 725 l-451 0 l0 -90 l343 0 l-373 -545 l0 -90 l485 0 l0 90 l-376 0 l372 545 l0 90 ZM282 761 l84 0 l134 113 l-106 0 l-69 -56 l-69 56 l-106 0 l132 -113 Z" /><glyph glyph-name="" unicode="&#x17e;" d="M104 0 l444 0 l0 79 l-332 0 l327 380 l0 79 l-420 0 l0 -79 l308 0 l-327 -380 l0 -79 ZM301 609 l88 0 l132 116 l-96 0 l-79 -53 l-79 53 l-95 0 l129 -116 Z" /><glyph glyph-name="" unicode="&#x18f;" d="M323 738 q-56 0 -103 -21 q-47 -21 -77 -56 q-31 -35 -50 -74 q-19 -39 -28 -82 l98 0 q13 62 55 105 q41 42 105 42 q77 0 124 -67 q46 -67 50 -187 l-446 0 q-5 -192 66 -301 q71 -110 206 -110 q132 0 202 103 q69 102 69 273 q0 170 -69 273 q-70 102 -202 102 l0 0 ZM323 75 q-83 0 -125 64 q-42 63 -44 157 l340 0 q-23 -221 -171 -221 l0 0 Z" /><glyph glyph-name="" unicode="&#x218;" d="M265 342 l79 -19 q136 -31 136 -127 q0 -58 -43 -89 q-44 -32 -103 -32 q-71 0 -117 40 q-47 39 -54 111 l-94 0 q6 -108 79 -173 q72 -66 183 -66 q107 0 176 59 q69 58 69 157 q0 95 -58 144 q-59 48 -161 71 l-72 16 q-105 24 -105 108 q0 53 40 81 q40 27 95 27 q57 0 101 -28 q43 -28 51 -88 l94 0 q-11 101 -80 153 q-69 51 -161 51 q-101 0 -169 -54 q-69 -54 -69 -145 q0 -81 52 -130 q52 -50 131 -67 l0 0 ZM300 -125 l36 0 l-39 -96 l54 0 l44 90 l0 95 l-95 0 l0 -89 Z" /><glyph glyph-name="" unicode="&#x219;" d="M530 391 q-15 73 -71 115 q-56 41 -141 41 q-77 0 -140 -38 q-63 -39 -63 -111 q0 -122 152 -152 l67 -13 q113 -20 113 -87 q0 -43 -35 -63 q-35 -20 -85 -20 q-106 0 -125 98 l-97 0 q8 -71 65 -122 q57 -52 155 -52 q93 0 154 44 q61 44 61 126 q0 31 -11 57 q-12 25 -30 42 q-18 16 -44 29 q-27 13 -52 20 q-25 7 -56 13 l-60 12 q-41 9 -61 26 q-20 16 -20 46 q0 34 32 52 q31 17 76 17 q104 0 120 -80 l96 0 ZM288 -125 l36 0 l-39 -96 l54 0 l44 90 l0 95 l-95 0 l0 -89 Z" /><glyph glyph-name="" unicode="&#x21a;" d="M275 0 l95 0 l0 635 l218 0 l0 90 l-531 0 l0 -90 l218 0 l0 -635 ZM275 -125 l36 0 l-39 -96 l54 0 l44 90 l0 95 l-95 0 l0 -89 Z" /><glyph glyph-name="" unicode="&#x21b;" d="M197 538 l-153 0 l0 -79 l153 0 l0 -324 q0 -83 26 -109 q25 -26 100 -26 l186 0 l0 79 l-166 0 q-37 0 -45 13 q-9 12 -9 56 l0 311 l220 0 l0 79 l-220 0 l0 135 l-92 0 l0 -135 ZM204 -125 l36 0 l-39 -96 l54 0 l44 90 l0 95 l-95 0 l0 -89 Z" /><glyph glyph-name="" unicode="&#x232;" d="M323 370 l-187 355 l-111 0 l250 -453 l0 -272 l95 0 l0 272 l250 453 l-111 0 l-186 -355 ZM473 779 l0 76 l-300 0 l0 -76 l300 0 Z" /><glyph glyph-name="" unicode="&#x233;" d="M183 -175 q81 0 116 33 q35 33 66 119 l199 561 l-95 0 l-143 -415 l-146 415 l-101 0 l201 -538 l-4 -12 q-20 -55 -39 -69 q-19 -15 -63 -15 l-97 0 l0 -79 l106 0 ZM473 623 l0 76 l-300 0 l0 -76 l300 0 Z" /><glyph glyph-name="" unicode="&#x237;" d="M183 538 l0 -79 l135 0 l0 -488 q0 -42 -10 -54 q-11 -13 -45 -13 l-125 0 l0 -79 l144 0 q74 0 101 32 q27 31 27 116 l0 565 l-227 0 Z" /><glyph glyph-name="" unicode="&#x259;" d="M321 548 q-92 0 -153 -48 q-62 -48 -79 -126 l95 0 q31 99 139 99 q64 0 105 -49 q40 -50 40 -130 l-387 0 q-5 -144 59 -225 q63 -82 181 -82 q108 0 176 77 q68 76 68 204 q0 125 -63 203 q-63 77 -181 77 l0 0 ZM321 63 q-68 0 -105 44 q-38 43 -37 111 l288 0 q-3 -77 -41 -116 q-39 -39 -105 -39 l0 0 Z" /><glyph glyph-name="" unicode="&#x2c6;" d="M368 725 l-88 0 l-132 -116 l95 0 l80 54 l78 -54 l96 0 l-129 116 Z" /><glyph glyph-name="" unicode="&#x2c7;" d="M277 609 l88 0 l132 116 l-96 0 l-79 -53 l-79 53 l-95 0 l129 -116 Z" /><glyph glyph-name="" unicode="&#x2d8;" d="M482 725 l-71 0 q-7 -72 -87 -72 q-82 0 -89 72 l-71 0 q5 -59 43 -95 q38 -37 116 -37 q146 0 159 132 l0 0 Z" /><glyph glyph-name="" unicode="&#x2d9;" d="M277 710 l0 -99 l91 0 l0 99 l-91 0 Z" /><glyph glyph-name="" unicode="&#x2da;" d="M322 760 q-37 0 -63 -24 q-27 -25 -27 -61 q0 -37 26 -61 q26 -24 64 -24 q39 0 65 24 q26 24 26 61 q0 36 -26 61 q-27 24 -65 24 l0 0 ZM322 718 q17 0 30 -12 q13 -13 13 -31 q0 -18 -12 -30 q-13 -12 -31 -12 q-17 0 -30 12 q-13 12 -13 30 q0 18 13 31 q13 12 30 12 l0 0 Z" /><glyph glyph-name="" unicode="&#x2db;" d="M304 0 q-80 -40 -80 -95 q0 -46 39 -68 q39 -23 90 -23 q40 0 69 12 l0 61 q-20 -9 -50 -9 q-65 0 -65 40 q0 38 88 82 l-91 0 Z" /><glyph glyph-name="" unicode="&#x2dc;" d="M388 673 q-20 0 -61 24 q-41 23 -73 23 q-45 0 -75 -28 q-31 -28 -40 -84 l71 0 q5 44 45 44 q19 0 61 -23 q42 -24 74 -24 q44 0 76 28 q32 27 41 85 l-71 0 q-6 -45 -48 -45 l0 0 Z" /><glyph glyph-name="" unicode="&#x2dd;" d="M347 725 l-117 0 l-90 -116 l76 0 l131 116 ZM505 725 l-116 0 l-91 -116 l77 0 l130 116 Z" /><glyph glyph-name="" unicode="&#x394;&#x2206;" d="M9 0 l628 0 l-314 646 l-314 -646 ZM513 76 l-379 0 l189 395 l190 -395 Z" /><glyph glyph-name="" unicode="&#x3a9;&#x2126;" d="M322 727 q-115 0 -198 -85 q-84 -86 -84 -233 q0 -94 45 -172 q45 -79 115 -107 l0 -55 l-156 0 l0 -75 l229 0 l0 185 q-69 13 -107 77 q-39 64 -39 153 q0 110 53 172 q53 61 142 61 q90 0 144 -62 q53 -62 53 -171 q0 -89 -38 -153 q-39 -64 -108 -77 l0 -185 l229 0 l0 75 l-156 0 l0 55 q70 28 115 107 q45 78 45 172 q0 147 -84 233 q-84 85 -200 85 l0 0 Z" /><glyph glyph-name="" unicode="&#x3c0;" d="M219 0 l0 452 l179 0 l0 -317 q0 -83 26 -109 q25 -26 103 -26 l44 0 l0 77 l-24 0 q-38 0 -48 13 q-10 13 -10 56 l0 306 l76 0 l0 86 l-511 0 l0 -86 l74 0 l0 -452 l91 0 Z" /><glyph glyph-name="" unicode="&#x1e80;" d="M374 504 l-103 0 l-80 -366 l-53 587 l-95 0 l72 -725 l124 0 l84 378 l84 -378 l123 0 l73 725 l-95 0 l-54 -587 l-80 366 ZM284 761 l90 0 l-109 113 l-129 0 l148 -113 Z" /><glyph glyph-name="" unicode="&#x1e81;" d="M279 430 l-80 -290 l-54 398 l-94 0 l90 -538 l93 0 l88 325 l88 -325 l93 0 l90 538 l-93 0 l-55 -398 l-80 290 l-86 0 ZM288 609 l77 0 l-91 116 l-116 0 l130 -116 Z" /><glyph glyph-name="" unicode="&#x1e82;" d="M374 504 l-103 0 l-80 -366 l-53 587 l-95 0 l72 -725 l124 0 l84 378 l84 -378 l123 0 l73 725 l-95 0 l-54 -587 l-80 366 ZM520 874 l-129 0 l-109 -113 l90 0 l148 113 Z" /><glyph glyph-name="" unicode="&#x1e83;" d="M279 430 l-80 -290 l-54 398 l-94 0 l90 -538 l93 0 l88 325 l88 -325 l93 0 l90 538 l-93 0 l-55 -398 l-80 290 l-86 0 ZM493 725 l-117 0 l-90 -116 l76 0 l131 116 Z" /><glyph glyph-name="" unicode="&#x1e84;" d="M374 504 l-103 0 l-80 -366 l-53 587 l-95 0 l72 -725 l124 0 l84 378 l84 -378 l123 0 l73 725 l-95 0 l-54 -587 l-80 366 ZM163 868 l0 -99 l91 0 l0 99 l-91 0 ZM392 868 l0 -99 l91 0 l0 99 l-91 0 Z" /><glyph glyph-name="" unicode="&#x1e85;" d="M279 430 l-80 -290 l-54 398 l-94 0 l90 -538 l93 0 l88 325 l88 -325 l93 0 l90 538 l-93 0 l-55 -398 l-80 290 l-86 0 ZM163 609 l91 0 l0 99 l-91 0 l0 -99 ZM392 708 l0 -99 l91 0 l0 99 l-91 0 Z" /><glyph glyph-name="" unicode="&#x1eca;" d="M92 635 l183 0 l0 -545 l-183 0 l0 -90 l461 0 l0 90 l-183 0 l0 545 l183 0 l0 90 l-461 0 l0 -90 ZM277 -76 l0 -99 l91 0 l0 99 l-91 0 Z" /><glyph glyph-name="" unicode="&#x1ecb;" d="M286 725 l0 -109 l92 0 l0 109 l-92 0 ZM134 538 l0 -79 l152 0 l0 -380 l-152 0 l0 -79 l397 0 l0 79 l-153 0 l0 459 l-244 0 ZM286 -76 l0 -99 l91 0 l0 99 l-91 0 Z" /><glyph glyph-name="" unicode="&#x1ecc;" d="M323 738 q-132 0 -201 -102 q-70 -103 -70 -273 q0 -170 70 -273 q69 -103 201 -103 q132 0 202 103 q69 103 69 273 q0 170 -69 273 q-70 102 -202 102 l0 0 ZM323 650 q173 0 173 -287 q0 -288 -173 -288 q-173 0 -173 288 q0 287 173 287 l0 0 ZM277 -76 l0 -99 l91 0 l0 99 l-91 0 Z" /><glyph glyph-name="" unicode="&#x1ecd;" d="M171 267 q0 102 43 153 q43 50 109 50 q66 0 109 -50 q43 -51 43 -153 q0 -102 -43 -152 q-43 -51 -109 -51 q-66 0 -109 51 q-43 50 -43 152 l0 0 ZM74 267 q0 -137 74 -208 q73 -72 175 -72 q102 0 176 72 q73 71 73 208 q0 137 -73 209 q-74 71 -176 71 q-102 0 -175 -71 q-74 -72 -74 -209 l0 0 ZM277 -76 l0 -99 l91 0 l0 99 l-91 0 Z" /><glyph glyph-name="" unicode="&#x1ee4;" d="M79 725 l0 -430 q0 -170 54 -239 q54 -69 189 -69 q137 0 191 76 q54 75 54 240 l0 422 l-95 0 l0 -430 q0 -116 -30 -168 q-31 -52 -120 -52 q-88 0 -118 48 q-30 48 -30 161 l0 441 l-95 0 ZM277 -76 l0 -99 l91 0 l0 99 l-91 0 Z" /><glyph glyph-name="" unicode="&#x1ee5;" d="M439 0 l92 0 l0 538 l-92 0 l0 -296 q0 -86 -33 -131 q-33 -45 -95 -45 q-29 0 -49 9 q-20 8 -31 21 q-11 12 -16 35 q-6 23 -7 43 q-2 19 -2 50 l0 314 l-92 0 l0 -346 q0 -98 38 -151 q37 -54 129 -54 q106 0 158 82 l0 -69 ZM273 -76 l0 -99 l91 0 l0 99 l-91 0 Z" /><glyph glyph-name="" unicode="&#x1ef2;" d="M323 370 l-187 355 l-111 0 l250 -453 l0 -272 l95 0 l0 272 l250 453 l-111 0 l-186 -355 ZM279 761 l90 0 l-109 113 l-129 0 l148 -113 Z" /><glyph glyph-name="" unicode="&#x1ef3;" d="M183 -175 q81 0 116 33 q35 33 66 119 l199 561 l-95 0 l-143 -415 l-146 415 l-101 0 l201 -538 l-4 -12 q-20 -55 -39 -69 q-19 -15 -63 -15 l-97 0 l0 -79 l106 0 ZM290 609 l77 0 l-91 116 l-116 0 l130 -116 Z" /><glyph glyph-name="" unicode="&#x2013;" d="M541 231 l0 86 l-436 0 l0 -86 l436 0 Z" /><glyph glyph-name="" unicode="&#x2014;" d="M599 231 l0 86 l-552 0 l0 -86 l552 0 Z" /><glyph glyph-name="" unicode="&#x2018;" d="M381 587 l-48 0 l52 138 l-58 0 l-61 -131 l0 -122 l115 0 l0 115 Z" /><glyph glyph-name="" unicode="&#x2019;" d="M265 610 l49 0 l-53 -139 l58 0 l61 131 l0 123 l-115 0 l0 -115 Z" /><glyph glyph-name="" unicode="&#x201a;" d="M265 0 l49 0 l-53 -139 l58 0 l61 131 l0 123 l-115 0 l0 -115 Z" /><glyph glyph-name="" unicode="&#x201c;" d="M297 587 l-48 0 l52 138 l-58 0 l-61 -131 l0 -122 l115 0 l0 115 ZM465 587 l-48 0 l52 138 l-58 0 l-61 -131 l0 -122 l115 0 l0 115 Z" /><glyph glyph-name="" unicode="&#x201d;" d="M349 610 l49 0 l-53 -139 l58 0 l61 131 l0 123 l-115 0 l0 -115 ZM181 610 l49 0 l-53 -139 l58 0 l61 131 l0 123 l-115 0 l0 -115 Z" /><glyph glyph-name="" unicode="&#x201e;" d="M181 0 l49 0 l-53 -139 l58 0 l61 131 l0 123 l-115 0 l0 -115 ZM349 0 l49 0 l-53 -139 l58 0 l61 131 l0 123 l-115 0 l0 -115 Z" /><glyph glyph-name="" unicode="&#x2020;" d="M368 0 l0 409 l205 0 l0 86 l-205 0 l0 230 l-90 0 l0 -230 l-205 0 l0 -86 l205 0 l0 -409 l90 0 Z" /><glyph glyph-name="" unicode="&#x2021;" d="M368 280 l0 150 l205 0 l0 86 l-205 0 l0 209 l-90 0 l0 -209 l-205 0 l0 -86 l205 0 l0 -150 l-205 0 l0 -86 l205 0 l0 -194 l90 0 l0 194 l205 0 l0 86 l-205 0 Z" /><glyph glyph-name="" unicode="&#x2022;" d="M143 279 q0 -77 52 -130 q51 -53 124 -53 q79 0 132 53 q52 52 52 130 q0 74 -53 126 q-53 51 -131 51 q-72 0 -124 -52 q-52 -52 -52 -125 l0 0 Z" /><glyph glyph-name="" unicode="&#x2026;" d="M165 0 l0 115 l-115 0 l0 -115 l115 0 ZM595 0 l0 115 l-115 0 l0 -115 l115 0 ZM380 0 l0 115 l-115 0 l0 -115 l115 0 Z" /><glyph glyph-name="" unicode="&#x2039;" d="M342 44 l98 0 l-150 229 l150 228 l-98 0 l-159 -228 l159 -229 Z" /><glyph glyph-name="" unicode="&#x203a;" d="M463 273 l-159 228 l-98 0 l151 -228 l-151 -229 l98 0 l159 229 Z" /><glyph glyph-name="" unicode="&#x2044;" d="M112 0 l501 725 l-79 0 l-501 -725 l79 0 Z" /><glyph glyph-name="" unicode="&#x20ac;" d="M495 228 q-25 -153 -144 -153 q-127 0 -151 187 l130 0 l43 64 l-178 0 q-1 12 -1 38 q0 33 1 49 l216 0 l43 65 l-252 0 q28 172 147 172 q120 0 142 -153 l96 0 q-17 111 -79 176 q-63 65 -156 65 q-104 0 -167 -68 q-63 -69 -81 -192 l-53 0 l-43 -65 l89 0 q-1 -16 -1 -49 l0 -38 l-45 0 l-43 -64 l94 0 q16 -129 76 -202 q60 -73 167 -73 q99 0 163 63 q63 62 82 178 l-95 0 Z" /><glyph glyph-name="" unicode="&#x2122;" d="M117 354 l60 0 l0 324 l114 0 l0 47 l-287 0 l0 -47 l113 0 l0 -324 ZM485 483 l60 194 l0 -323 l60 0 l0 371 l-88 0 l-58 -190 l-57 190 l-87 0 l0 -371 l59 0 l0 323 l61 -194 l50 0 Z" /><glyph glyph-name="" unicode="&#x2202;" d="M471 263 q0 -98 -42 -147 q-42 -49 -110 -49 q-72 0 -109 51 q-37 51 -37 145 q0 92 38 143 q37 50 108 50 q67 0 110 -48 q42 -48 42 -145 l0 0 ZM318 -13 q116 0 184 82 q68 82 68 242 q0 177 -106 298 q-106 121 -271 129 l0 -81 q90 -3 164 -58 q74 -56 104 -140 l-1 -1 q-55 78 -154 78 q-102 0 -166 -73 q-64 -74 -64 -200 q0 -130 65 -203 q64 -73 177 -73 l0 0 Z" /><glyph glyph-name="" unicode="&#x220f;" d="M197 -175 l0 814 l251 0 l0 -814 l92 0 l0 900 l-435 0 l0 -900 l92 0 Z" /><glyph glyph-name="" unicode="&#x2211;" d="M56 -100 l0 -75 l522 0 l0 86 l-413 0 l266 364 l-266 364 l413 0 l0 86 l-522 0 l0 -75 l270 -375 l-270 -375 Z" /><glyph glyph-name="" unicode="&#x2212;" d="M51 312 l0 -86 l544 0 l0 86 l-544 0 Z" /><glyph glyph-name="" unicode="&#x221a;" d="M64 227 l38 -81 l65 29 l161 -361 l88 0 l158 911 l-90 0 l-126 -777 l-146 347 l-148 -68 Z" /><glyph glyph-name="" unicode="&#x221e;" d="M470 394 q-78 0 -146 -75 q-70 75 -147 75 q-67 0 -108 -38 q-42 -38 -42 -98 q0 -60 41 -98 q40 -39 105 -39 q76 0 151 79 q74 -81 148 -81 q66 0 107 39 q40 38 40 100 q0 60 -41 98 q-42 38 -108 38 l0 0 ZM175 196 q-28 0 -47 18 q-20 18 -20 44 q0 27 20 44 q19 16 50 16 q45 0 98 -59 q-54 -63 -101 -63 l0 0 ZM468 318 q32 0 51 -16 q19 -17 19 -44 q0 -26 -19 -44 q-19 -18 -48 -18 q-47 0 -100 62 q54 60 97 60 l0 0 Z" /><glyph glyph-name="" unicode="&#x222b;" d="M276 139 q0 -42 1 -96 q1 -55 1 -66 q0 -30 -1 -47 q-1 -18 -5 -39 q-5 -21 -15 -31 q-11 -10 -29 -10 q4 12 4 26 q0 20 -13 34 q-14 13 -36 13 q-23 0 -37 -15 q-14 -15 -14 -38 q0 -32 26 -48 q25 -16 63 -16 q74 0 111 58 q36 57 36 194 l0 346 q0 42 -1 96 q-2 54 -2 65 q0 60 10 94 q10 33 43 33 q-4 -10 -4 -26 q0 -20 14 -33 q13 -13 35 -13 q23 0 37 15 q14 15 14 38 q0 32 -26 49 q-26 16 -63 16 q-73 0 -111 -60 q-38 -61 -38 -206 l0 -333 Z" /><glyph glyph-name="" unicode="&#x2248;" d="M436 379 q-26 0 -100 35 q-74 34 -126 34 q-67 0 -108 -41 q-42 -42 -46 -108 l85 0 q2 32 22 51 q19 18 47 18 q32 0 108 -34 q75 -35 118 -35 q67 0 108 41 q41 41 46 108 l-85 0 q-3 -32 -22 -50 q-19 -19 -47 -19 l0 0 ZM436 192 q-26 0 -100 34 q-74 34 -126 34 q-67 0 -108 -41 q-42 -41 -46 -107 l85 0 q2 32 22 51 q19 18 47 18 q32 0 108 -34 q75 -35 118 -35 q67 0 108 41 q41 41 46 107 l-85 0 q-3 -32 -22 -50 q-19 -18 -47 -18 l0 0 Z" /><glyph glyph-name="" unicode="&#x2260;" d="M574 124 l0 86 l-242 0 l63 117 l179 0 l0 87 l-132 0 l64 119 l-74 36 l-84 -155 l-276 0 l0 -87 l229 0 l-63 -117 l-166 0 l0 -86 l120 0 l-67 -124 l75 -37 l86 161 l288 0 Z" /><glyph glyph-name="" unicode="&#x2264;" d="M190 326 l389 125 l0 98 l-514 -184 l0 -78 l514 -179 l0 96 l-389 122 ZM62 0 l522 0 l0 86 l-522 0 l0 -86 Z" /><glyph glyph-name="" unicode="&#x2265;" d="M456 326 l-389 -122 l0 -96 l514 179 l0 78 l-514 184 l0 -98 l389 -125 ZM584 0 l0 86 l-522 0 l0 -86 l522 0 Z" /><glyph glyph-name="" unicode="&#x25ca;" d="M326 596 l145 -255 l-145 -255 l-146 255 l146 255 ZM80 341 l246 -421 l240 421 l-240 421 l-246 -421 Z" /><glyph glyph-name="" unicode="&#xfb01;" d="M132 538 l-100 0 l0 -75 l100 0 l0 -463 l91 0 l0 463 l244 0 l0 -463 l92 0 l0 538 l-336 0 l0 41 q0 43 11 57 q10 13 43 13 l122 0 l0 76 l-124 0 q-86 0 -114 -31 q-29 -31 -29 -117 l0 -39 ZM467 725 l0 -109 l92 0 l0 109 l-92 0 Z" /><glyph glyph-name="" unicode="&#xfb02;" d="M132 538 l-100 0 l0 -75 l100 0 l0 -463 l91 0 l0 463 l152 0 l0 75 l-152 0 l0 41 q0 43 11 57 q10 13 43 13 l190 0 l0 -649 l92 0 l0 725 l-284 0 q-86 0 -114 -31 q-29 -31 -29 -117 l0 -39 Z" /></font>
</defs>
</svg>
