<?xml version="1.0" standalone="no"?>
<!DOCTYPE svg PUBLIC "-//W3C//DTD SVG 20010904//EN"
 "http://www.w3.org/TR/2001/REC-SVG-20010904/DTD/svg10.dtd">
<svg version="1.0" xmlns="http://www.w3.org/2000/svg"
 width="120.000000pt" height="120.000000pt" viewBox="0 0 120.000000 120.000000"
 preserveAspectRatio="xMidYMid meet">
<metadata>
Created by potrace 1.14, written by Peter Selinger 2001-2017
</metadata>
<g transform="translate(0.000000,120.000000) scale(0.100000,-0.100000)"
fill="#000000" stroke="none">
<path d="M568 1139 c-157 -25 -261 -87 -322 -192 -27 -45 -33 -67 -156 -531
-66 -252 -80 -314 -71 -333 6 -13 14 -24 18 -25 5 0 253 -2 553 -3 544 -2 571
-1 595 32 7 10 11 186 10 518 0 482 -1 504 -19 524 -19 21 -26 21 -290 20
-149 -1 -292 -5 -318 -10z m240 -223 c95 -11 192 -93 192 -160 0 -50 -12 -59
-75 -60 -60 -1 -55 -4 -110 69 -13 17 -30 20 -125 23 -125 5 -155 0 -170 -27
-26 -49 14 -72 206 -116 152 -36 192 -52 237 -94 43 -39 56 -71 53 -132 -6
-134 -95 -184 -326 -182 -160 0 -200 6 -262 40 -58 32 -88 70 -95 121 -6 48
13 65 75 68 44 2 49 -1 90 -44 l42 -47 126 -4 c134 -3 168 4 177 41 11 42 -32
62 -233 108 -209 48 -295 123 -270 235 4 19 6 35 4 35 -2 0 8 18 22 40 31 46
90 78 161 87 26 3 49 6 50 7 5 4 188 -2 231 -8z"/>
</g>
</svg>
